<?xml version="1.0" encoding="utf-8"?>
<!-- Generator: Adobe Illustrator 25.4.1, SVG Export Plug-In . SVG Version: 6.00 Build 0)  -->
<svg version="1.1" xmlns="http://www.w3.org/2000/svg" xmlns:xlink="http://www.w3.org/1999/xlink" x="0px" y="0px"
	 viewBox="0 0 414 576" style="enable-background:new 0 0 414 576;" xml:space="preserve">
<style type="text/css">
	.st0{opacity:0.75;filter:url(#blur);}
	.st1{fill:#26A7BD;}
	.st2{fill:#FFFFFF;}
</style>
<filter  id="blur">
	<feGaussianBlur  stdDeviation="10"></feGaussianBlur>
</filter>
<g id="Layer_2">
	<g class="st0">
		<path d="M207,539c-1.3,0-2.6-0.8-3.4-2.3l-146-250.5c-13.5-24.7-20.7-52.6-20.7-80.7c0-6.7,0.4-13.5,1.2-20.1
			C48.3,100.8,120.9,37,207,37s158.7,63.8,168.9,148.3c0.8,6.7,1.2,13.5,1.2,20.2c0,28-7.1,55.7-20.5,80.3L210.4,536.7
			C209.6,538.1,208.3,539,207,539z"/>
	</g>
</g>
<g id="Layer_1">
	<g>
		<g id="Layer_1_00000044148075518446936400000007811868441944906147_">
			<g id="Bus_Stop_Improvements">
				<path class="st1" d="M376.2,205.5c0,27.9-7,55.4-20.4,79.9L209.7,536.2c-1.5,2.5-3.8,2.5-5.3,0l-146-250.5
					c-13.5-24.6-20.6-52.2-20.6-80.2c0-6.7,0.4-13.4,1.2-20C49.1,101.3,121.3,38,207,38s157.9,63.4,168,147.5
					C375.8,192.1,376.2,198.8,376.2,205.5z"/>
				<path class="st2" d="M128.2,252.5v4.4l5.7,1.4c1.6,0.3,38.6,8.2,73.1,8.2c24.6-0.1,49-2.9,73-8.2l5.8-1.6v-51.2
					c18.5-2.8,18.5-22.9,18.5-35.3c0-2.4-0.9-4.6-2.7-6.2c-2.6-2.4-6.8-3.8-13-4.3c-1-0.1-1.9-0.1-2.8-0.1v-22.6
					c0-10.9-10.6-18.8-31.4-23.5c-19.2-4.3-41.2-4.7-47.4-4.7s-28.2,0.3-47.4,4.7c-20.9,4.7-31.4,12.6-31.4,23.5v22.7
					c-0.9,0-1.8,0.1-2.8,0.1c-6.2,0.5-10.4,1.9-13,4.3c-1.8,1.6-2.7,3.8-2.7,6.2c0,12.4,0,32.5,18.6,35.3L128.2,252.5z M151.4,247.9
					c-5.1,0-9.3-4.1-9.3-9.2c0-5.1,4.1-9.3,9.2-9.3c5.1,0,9.3,4.1,9.3,9.2c0,0,0,0,0,0C160.6,243.7,156.5,247.8,151.4,247.9
					L151.4,247.9z M262.7,247.9c-5.1,0-9.3-4.1-9.3-9.3c0-5.1,4.1-9.3,9.3-9.3c5.1,0,9.3,4.1,9.3,9.3
					C271.9,243.7,267.8,247.8,262.7,247.9L262.7,247.9z M179.2,122.7h55.7c2.6,0,4.6,2.1,4.6,4.6c0,2.6-2.1,4.6-4.6,4.6c0,0,0,0,0,0
					h-55.7c-2.6,0-4.6-2.1-4.6-4.6C174.5,124.7,176.6,122.7,179.2,122.7z M137.4,145.8h139.2v0.1c0,0.6,0,1.2,0,1.9v52.8
					c0,6.2-7.8,14.8-13.4,14.8H151.4c-6,0-14-8-14-14.1v-54.1C137.4,146.7,137.4,146.3,137.4,145.8z"/>
				<path class="st2" d="M282.5,267.3h-0.1c-24.7,5.6-50,8.4-75.3,8.5c-36.1,0-73.6-8.1-75.2-8.5h-0.1l-3.6-0.9V285
					c0,2.6,2.1,4.6,4.6,4.6c0,0,0,0,0,0h4.6v13.9c-0.2,5,3.8,9.1,8.7,9.3c0,0,0,0,0,0h10.3c5-0.1,8.9-4.3,8.8-9.2c0,0,0,0,0,0v-13.9
					h83.5v13.9c-0.2,5,3.8,9.1,8.7,9.3c0,0,0,0,0,0h10.3c5-0.1,8.9-4.3,8.8-9.2c0,0,0,0,0,0v-13.9h4.6c2.6,0,4.6-2.1,4.6-4.6v0
					v-18.6L282.5,267.3z"/>
			</g>
		</g>
	</g>
</g>
</svg>
