<?xml version="1.0" encoding="utf-8"?>
<!-- Generator: Adobe Illustrator 26.0.1, SVG Export Plug-In . SVG Version: 6.00 Build 0)  -->
<svg version="1.1" xmlns="http://www.w3.org/2000/svg" xmlns:xlink="http://www.w3.org/1999/xlink" x="0px" y="0px"
	 viewBox="0 0 414 576" style="enable-background:new 0 0 414 576;" xml:space="preserve">
<style type="text/css">
	.st0{filter:url(#blur);}
	.st1{fill:#26A7BD;}
	.st2{fill:#FFFFFF;}
	.st3{fill:#22A7BC;}
</style>
<filter  id="blur">
	<feGaussianBlur  stdDeviation="10"></feGaussianBlur>
</filter>
<g id="Layer_2">
	<g class="st0">
		<g id="Layer_1_00000010280509266745404460000000289295720620184477_">
			<g id="Wayfinding_Signage_00000090278469493824811010000008062508848005816986_">
				<path d="M376.2,205.5c0,27.9-7,55.4-20.4,79.9L209.7,536.2c-1.4,2.5-3.8,2.5-5.3,0l-146-250.5c-13.5-24.6-20.6-52.2-20.6-80.2
					c0-6.7,0.4-13.4,1.2-20c10.1-84.2,82.4-147.6,168-147.6s157.9,63.4,168,147.5C375.8,192.1,376.2,198.8,376.2,205.5z"/>
			</g>
		</g>
	</g>
</g>
<g id="Layer_1">
	<g id="Layer_2_00000003104889754698598680000008119826287662251696_">
		<g>
			<g id="Layer_1_00000127003313078291737890000017580016115457626299_">
				<g id="Wayfinding_Signage_00000067237350872154342540000017972886581632764831_">
					<path d="M376.2,205.5c0,27.9-7,55.4-20.4,79.9L209.7,536.2c-1.4,2.5-3.8,2.5-5.3,0l-146-250.5c-13.5-24.6-20.6-52.2-20.6-80.2
						c0-6.7,0.4-13.4,1.2-20c10.1-84.2,82.4-147.6,168-147.6s157.9,63.4,168,147.5C375.8,192.1,376.2,198.8,376.2,205.5z"/>
				</g>
			</g>
		</g>
	</g>
	<g id="Layer_1_00000102539953862673254420000011908505024880923577_">
		<g>
			<g id="Layer_1_00000049904813391707551420000016395988520183614095_">
				<g id="Curb_Ramps">
					<path class="st1" d="M376.2,205.5c0,27.9-7,55.4-20.4,79.9L209.7,536.2c-1.5,2.5-3.8,2.5-5.3,0l-146-250.5
						c-13.5-24.6-20.6-52.2-20.6-80.2c0-6.7,0.4-13.4,1.2-20c10.1-84.2,82.3-147.6,168-147.6s157.9,63.4,168,147.6
						C375.8,192.1,376.2,198.8,376.2,205.5z"/>
					<path class="st2" d="M206.4,260.9l-116,33.8h233.2v-48h-16C273.4,246.7,239.3,251.5,206.4,260.9z"/>
					<path class="st2" d="M163.3,258.5h-0.4c-28.2-0.2-50.8-23.2-50.7-51.3s23.2-50.8,51.3-50.7l-0.1,13.1h-0.3
						c-20.9,0.3-37.7,17.5-37.4,38.4c0.3,20.5,16.7,37,37.2,37.4h0.3c20.9,0,37.9-17,37.9-37.9c0-10.1-4-19.7-11.1-26.8l9.3-9.3
						c20,19.9,20,52.2,0.2,72.1C189.9,253.1,176.9,258.5,163.3,258.5L163.3,258.5z"/>
					<path class="st3" d="M166.8,187.6c-9.9,0-18-8-18-18c0-2.2,0.4-4.4,1.2-6.5l16.6-43.8c3.5-9.3,13.9-14,23.2-10.4
						s14,13.9,10.4,23.2L183.7,176C181,183,174.3,187.6,166.8,187.6z"/>
					<path class="st3" d="M244.5,242.9c-5.1,0-9.7-2.9-11.8-7.5l-21.5-45.2l-45.2-2.6c-7.2-0.4-12.7-6.6-12.3-13.9
						c0.4-7.2,6.6-12.7,13.9-12.3l46.5,2.7c8.4,0.5,15.9,5.4,19.9,12.8l0.2,0.5l22.2,46.8c3.1,6.6,0.3,14.4-6.3,17.5
						C248.4,242.5,246.5,242.9,244.5,242.9L244.5,242.9z"/>
					<g>
						<path class="st2" d="M252.3,226.3l-22.2-46.8l-0.2-0.3c-3.1-5.9-9.1-9.8-15.8-10.2l-32.4-1.9l2.5-6.6
							c-2.3,0.4-4.7,0.5-7.1,0.1c-2.1-0.3-4.2-0.9-6.2-1.7c-4.4-1.7-8.2-4.6-11-8.3l-5.4,14.3c-0.6,1.5-0.9,3.1-0.9,4.6
							c0,7.2,5.9,13.1,13.1,13.1c0.1,0,0.2,0,0.3,0l46,2.7c0.9,0.1,1.7,0.6,2.2,1.4l22.1,46.6c1.4,2.9,4.2,4.7,7.4,4.7l0,0
							c1.2,0,2.4-0.3,3.5-0.8C252.5,235.3,254.3,230.4,252.3,226.3z"/>
						<path class="st2" d="M168,129.5l-6.3,16.5c2,3.6,5.8,6.8,10.5,8.7c4.9,2,9.9,2.2,14,0.6l9.4-24.9c0.1-0.3,0.3-0.6,0.4-1
							c0.9-2.7,0.9-5.4,0.1-7.9c-1.4-0.3-2.9-0.7-4.2-1.3c-4-1.8-7.3-4.9-9.3-8.7c-0.2,0-0.5,0-0.7,0l-29.1,3.1
							c-5.8,0.6-11.1,3.9-14.2,8.9l-13.4,21.8c-0.8,1.3-1.2,2.8-1.2,4.3c0,4.5,3.7,8.2,8.2,8.2c2.8,0,5.5-1.5,7-3.9l13.4-21.8
							c0.4-0.7,1.1-1.1,1.9-1.2L168,129.5z"/>
					</g>
				</g>
			</g>
		</g>
		<path class="st2" d="M214.5,108.8c-2.4,5.8-8.4,9.3-14.6,8.6c-1.1-0.2-2.2-0.5-3.2-0.9c-6.7-2.9-9.6-11.1-6.4-18.3l2.8-6.5
			c2.4-5.8,8.4-9.3,14.6-8.6c1.1,0.2,2.2,0.5,3.2,0.9c6.7,2.9,9.6,11.2,6.4,18.3L214.5,108.8z"/>
	</g>
</g>
</svg>
