<?xml version="1.0" encoding="utf-8"?>
<!-- Generator: Adobe Illustrator 25.4.1, SVG Export Plug-In . SVG Version: 6.00 Build 0)  -->
<svg version="1.1" id="Layer_1" xmlns="http://www.w3.org/2000/svg" xmlns:xlink="http://www.w3.org/1999/xlink" x="0px" y="0px"
	 viewBox="0 0 414 576" style="enable-background:new 0 0 414 576;" xml:space="preserve">
<style type="text/css">
	.st0{opacity:0.75;filter:url(#blur);}
	.st1{fill:#26A7BD;}
	.st2{fill:#FFFFFF;}
</style>
<filter  id="blur">
	<feGaussianBlur  stdDeviation="10"></feGaussianBlur>
</filter>
<g class="st0">
	<path d="M208.5,538.8c-1.3,0-2.6-0.8-3.4-2.3L59.1,286c-13.5-24.7-20.7-52.6-20.7-80.7c0-6.7,0.4-13.5,1.2-20.1
		c10.2-84.6,82.8-148.4,168.9-148.4c86.1,0,158.7,63.8,168.9,148.3c0.8,6.7,1.2,13.5,1.2,20.2c0,28-7.1,55.7-20.5,80.3L211.9,536.5
		C211.1,537.9,209.8,538.8,208.5,538.8z"/>
</g>
<g>
	<g>
		<g id="Layer_1_00000072996970862140474920000017348360891053534337_">
			<g id="High_visibility_Crosswalk_00000162344719065768407890000015385052135938267583_">
				<path class="st1" d="M377.7,205.4c0,27.9-7,55.4-20.4,79.9L211.2,536c-1.4,2.5-3.8,2.5-5.3,0l-146-250.5
					c-13.5-24.6-20.6-52.2-20.6-80.2c0-6.7,0.4-13.4,1.2-20c10.1-84.2,82.4-147.6,168-147.6s157.9,63.4,168,147.5
					C377.3,191.9,377.7,198.6,377.7,205.4z"/>
				<polygon class="st2" points="324.9,278.6 345,278.7 316,227.3 296.2,227.4 				"/>
				<polygon class="st2" points="280.1,278.6 300.2,278.7 271.1,227.3 251.4,227.4 				"/>
				<polygon class="st2" points="235.2,279 255.3,279.1 226.3,227.7 206.5,227.9 				"/>
				<polygon class="st2" points="190.4,279 210.5,279.1 181.4,227.7 161.7,227.9 				"/>
				<polygon class="st2" points="145.5,279 165.6,279.1 136.5,227.7 116.8,227.9 				"/>
				<polygon class="st2" points="100.6,279 120.7,279.1 91.7,227.7 71.9,227.9 				"/>
				<path class="st1" d="M166,252.8l-3.6-1.1c-4.2-1.3-6.6-5.8-5.3-10l0,0l8.8-28.8l19,5.8l-8.9,28.7
					C174.7,251.7,170.2,254.1,166,252.8L166,252.8z"/>
				<path class="st1" d="M235.1,251.9L235.1,251.9c-5.2,1.7-10.8-1.2-12.5-6.4l-8.6-26.9l18.9-6l8.6,26.8
					C243.2,244.7,240.3,250.2,235.1,251.9z"/>
				<path class="st2" d="M219,101.1c-1.2,5.2-5.7,9-11.1,9.3c-1,0-1.9-0.1-2.8-0.3c-6-1.5-9.6-8-8-14.5l1.5-5.9
					c1.2-5.2,5.7-9,11.1-9.3c1,0,1.9,0.1,2.8,0.3c6,1.5,9.6,8.1,8,14.5L219,101.1z"/>
				<path class="st2" d="M170.2,208.7l3-16.8l0,0l5.8-32.6l0,0l0.1-0.3l0,0l0.5-2.6c3.5,3.3,7.8,5.6,12.5,6.6
					c2.2,0.5,4.4,0.7,6.6,0.7c2.6,0,5.2-0.6,7.7-1.5l-0.7,2.9l20.2,33.4c1,1.5,1.7,3.1,2.1,4.8l0,0l9.7,36.9c0,0.1,0,0.1,0.1,0.2
					c0.1,0.2,0.1,0.4,0.1,0.6l0,0c0.6,3.4-1.6,6.7-5,7.3c-2.9,0.5-5.7-1-6.9-3.7l0,0l0,0c-0.1-0.2-0.2-0.4-0.2-0.7
					c0-0.1-0.1-0.3-0.1-0.4l-11.4-36.3l0,0l-19.2-27.8l0,0c-0.2-0.4-0.6-0.6-1-0.6s-0.7,0.2-0.9,0.6l-9,32.3l0,0l-0.1,0.2L173,245.6
					l0,0c-1,3.3-4.5,5.2-7.8,4.2s-5.2-4.5-4.2-7.8L170.2,208.7z"/>
				<path class="st2" d="M192.9,159.4c-5.3-1.2-9.8-4-12.4-7.6l3.7-18.6c0-1.9-1.3-2.7-3-1.9c0,0-7.1,3.4-8.8,3.9
					c-0.3,0.7-1.1,30.3-1.1,30.3c-0.3,3.4-3.4,5.9-6.8,5.6c-0.1,0-0.3,0-0.4-0.1c-3.4-0.7-5.8-3.9-5.3-7.4l1.3-30.2
					c0.1-3.4,1.8-6.6,4.6-8.4c2.6-1.9,26.4-16.7,32.5-15.9c2.7,3.1,6.7,4.9,10.9,4.8c1,0,1.9-0.1,2.9-0.3l0.7-0.1
					c1.7,0.1,4.9,3.5,6.1,5.8l3,6.5l0,0l6.7,14.6l22.8,9.5l0.2,0.1l0.4,0.2h0.1l0,0c3.1,1.6,4.3,5.3,2.8,8.4c-1.5,2.9-4.9,4.2-7.9,3
					l-0.3-0.2l0,0l-24.1-8.7l0,0l-0.1-0.1l-0.2-0.1l0,0c-2.6-1.3-4.7-3.5-5.9-6.1l0,0v-0.1c-0.4-0.7-0.7-1.4-1-2.1l-1.9-4.1
					c-0.1-0.1-0.2-0.2-0.3-0.2c-0.2,0-0.3,0.1-0.3,0.3l-4,17.3C203.6,160,198.3,160.6,192.9,159.4z"/>
			</g>
		</g>
	</g>
</g>
</svg>
