<?xml version="1.0" encoding="utf-8"?>
<!-- Generator: Adobe Illustrator 26.0.1, SVG Export Plug-In . SVG Version: 6.00 Build 0)  -->
<svg version="1.1" xmlns="http://www.w3.org/2000/svg" xmlns:xlink="http://www.w3.org/1999/xlink" x="0px" y="0px"
	 viewBox="0 0 414 576" style="enable-background:new 0 0 414 576;" xml:space="preserve">
<style type="text/css">
	.st0{filter:url(#blur);}
	.st1{fill:#26A7BD;}
	.st2{fill:#FFFFFF;}
</style>
<filter  id="blur">
	<feGaussianBlur  stdDeviation="10"></feGaussianBlur>
</filter>
<g id="Layer_2">
	<g class="st0">
		<g id="Layer_1_00000054978968703107390390000017201258646837791394_">
			<g id="Wayfinding_Signage_00000121272173365386326980000014043669998025300110_">
				<path d="M376.2,205.5c0,27.9-7,55.4-20.4,79.9L209.7,536.2c-1.4,2.5-3.8,2.5-5.3,0l-146-250.5c-13.5-24.6-20.6-52.2-20.6-80.2
					c0-6.7,0.4-13.4,1.2-20c10.1-84.2,82.4-147.6,168-147.6s157.9,63.4,168,147.5C375.8,192.1,376.2,198.8,376.2,205.5z"/>
			</g>
		</g>
	</g>
</g>
<g id="Layer_1">
	<g>
		<g>
			<g id="Layer_1_00000072996970862140474920000017348360891053534337_">
				<g id="High_visibility_Crosswalk_00000162344719065768407890000015385052135938267583_">
					<path class="st1" d="M376.2,205.6c0,27.9-7,55.4-20.4,79.9L209.7,536.2c-1.4,2.5-3.8,2.5-5.3,0l-146-250.5
						c-13.5-24.6-20.6-52.2-20.6-80.2c0-6.7,0.4-13.4,1.2-20c10.1-84.2,82.4-147.6,168-147.6s157.9,63.4,168,147.5
						C375.8,192.1,376.2,198.8,376.2,205.6z"/>
					<polygon class="st2" points="323.4,278.8 343.5,278.9 314.5,227.5 294.7,227.6 					"/>
					<polygon class="st2" points="278.6,278.8 298.7,278.9 269.6,227.5 249.9,227.6 					"/>
					<polygon class="st2" points="233.7,279.2 253.8,279.3 224.8,227.9 205,228.1 					"/>
					<polygon class="st2" points="188.9,279.2 209,279.3 179.9,227.9 160.2,228.1 					"/>
					<polygon class="st2" points="144,279.2 164.1,279.3 135,227.9 115.3,228.1 					"/>
					<polygon class="st2" points="99.1,279.2 119.2,279.3 90.2,227.9 70.4,228.1 					"/>
					<path class="st1" d="M164.5,253l-3.6-1.1c-4.2-1.3-6.6-5.8-5.3-10l0,0l8.8-28.8l19,5.8l-8.9,28.7
						C173.2,251.9,168.7,254.3,164.5,253L164.5,253z"/>
					<path class="st1" d="M233.6,252.1L233.6,252.1c-5.2,1.7-10.8-1.2-12.5-6.4l-8.6-26.9l18.9-6l8.6,26.8
						C241.7,244.9,238.8,250.4,233.6,252.1z"/>
					<path class="st2" d="M217.5,101.3c-1.2,5.2-5.7,9-11.1,9.3c-1,0-1.9-0.1-2.8-0.3c-6-1.5-9.6-8-8-14.5l1.5-5.9
						c1.2-5.2,5.7-9,11.1-9.3c1,0,1.9,0.1,2.8,0.3c6,1.5,9.6,8.1,8,14.5L217.5,101.3z"/>
					<path class="st2" d="M168.7,208.9l3-16.8l0,0l5.8-32.6l0,0l0.1-0.3l0,0l0.5-2.6c3.5,3.3,7.8,5.6,12.5,6.6
						c2.2,0.5,4.4,0.7,6.6,0.7c2.6,0,5.2-0.6,7.7-1.5l-0.7,2.9l20.2,33.4c1,1.5,1.7,3.1,2.1,4.8l0,0l9.7,36.9c0,0.1,0,0.1,0.1,0.2
						c0.1,0.2,0.1,0.4,0.1,0.6l0,0c0.6,3.4-1.6,6.7-5,7.3c-2.9,0.5-5.7-1-6.9-3.7l0,0l0,0c-0.1-0.2-0.2-0.4-0.2-0.7
						c0-0.1-0.1-0.3-0.1-0.4l-11.4-36.3l0,0l-19.2-27.8l0,0c-0.2-0.4-0.6-0.6-1-0.6s-0.7,0.2-0.9,0.6l-9,32.3l0,0l-0.1,0.2
						l-11.1,33.7l0,0c-1,3.3-4.5,5.2-7.8,4.2s-5.2-4.5-4.2-7.8L168.7,208.9z"/>
					<path class="st2" d="M191.4,159.6c-5.3-1.2-9.8-4-12.4-7.6l3.7-18.6c0-1.9-1.3-2.7-3-1.9c0,0-7.1,3.4-8.8,3.9
						c-0.3,0.7-1.1,30.3-1.1,30.3c-0.3,3.4-3.4,5.9-6.8,5.6c-0.1,0-0.3,0-0.4-0.1c-3.4-0.7-5.8-3.9-5.3-7.4l1.3-30.2
						c0.1-3.4,1.8-6.6,4.6-8.4c2.6-1.9,26.4-16.7,32.5-15.9c2.7,3.1,6.7,4.9,10.9,4.8c1,0,1.9-0.1,2.9-0.3l0.7-0.1
						c1.7,0.1,4.9,3.5,6.1,5.8l3,6.5l0,0l6.7,14.6l22.8,9.5l0.2,0.1l0.4,0.2h0.1l0,0c3.1,1.6,4.3,5.3,2.8,8.4
						c-1.5,2.9-4.9,4.2-7.9,3l-0.3-0.2l0,0l-24.1-8.7l0,0l-0.1-0.1l-0.2-0.1l0,0c-2.6-1.3-4.7-3.5-5.9-6.1l0,0v-0.1
						c-0.4-0.7-0.7-1.4-1-2.1l-1.9-4.1c-0.1-0.1-0.2-0.2-0.3-0.2c-0.2,0-0.3,0.1-0.3,0.3l-4,17.3
						C202.1,160.2,196.8,160.8,191.4,159.6z"/>
				</g>
			</g>
		</g>
	</g>
</g>
</svg>
