<?xml version="1.0" encoding="utf-8"?>
<!-- Generator: Adobe Illustrator 26.0.3, SVG Export Plug-In . SVG Version: 6.00 Build 0)  -->
<svg version="1.1" xmlns="http://www.w3.org/2000/svg" xmlns:xlink="http://www.w3.org/1999/xlink" x="0px" y="0px" width="50px"
	 height="60px" viewBox="0 0 50 60" style="enable-background:new 0 0 50 60;" xml:space="preserve">
<style type="text/css">
	.st0{opacity:0.75;filter:url(#blur);}
	.st1{fill:#FF8E00;}
</style>
<filter  id="blur">
	<feGaussianBlur  stdDeviation="1"></feGaussianBlur>
</filter>
<g id="Layer_2">
	<g class="st0">
		<path d="M41.7,5.3H8.3c-2.2,0-4,1.8-4,4v33.4c0,2.2,1.8,4,4,4h11.9l4.6,7.9c0.1,0.2,0.2,0.2,0.3,0l4.6-7.9h12c2.2,0,4-1.8,4-4V9.3
			C45.7,7.1,43.9,5.3,41.7,5.3"/>
	</g>
</g>
<g id="Layer_1">
	<g id="Layer_1_00000121278857798800270500000018131879709888997256_">
		<path class="st1" d="M41.7,5.3H8.3c-2.2,0-4,1.8-4,4v33.4c0,2.2,1.8,4,4,4h11.9l4.6,7.9c0.1,0.2,0.2,0.2,0.3,0l4.6-7.9h12
			c2.2,0,4-1.8,4-4V9.3C45.7,7.1,43.9,5.3,41.7,5.3"/>
		<path d="M10,22.1c1.9,0,3.4,1.5,3.4,3.4s-1.5,3.4-3.4,3.4v4.7h3.5h0.1h3.6V17.4H10V22.1z M40,22.1v-4.7h-0.7H18.6v16.3h20.7H40V29
			c-1.9,0-3.4-1.5-3.4-3.4C36.6,23.6,38.1,22.1,40,22.1 M29.3,31.1c0,0.3-0.3,0.6-0.6,0.6c-0.3,0-0.6-0.3-0.6-0.6V19.9
			c0-0.3,0.3-0.6,0.6-0.6c0.3,0,0.6,0.3,0.6,0.6V31.1z M33.1,31.1c0,0.3-0.3,0.6-0.6,0.6s-0.6-0.3-0.6-0.6V19.9
			c0-0.3,0.3-0.6,0.6-0.6s0.6,0.3,0.6,0.6V31.1z"/>
	</g>
</g>
</svg>
