<?xml version="1.0" encoding="utf-8"?>
<!-- Generator: Adobe Illustrator 26.0.3, SVG Export Plug-In . SVG Version: 6.00 Build 0)  -->
<svg version="1.1" xmlns="http://www.w3.org/2000/svg" xmlns:xlink="http://www.w3.org/1999/xlink" x="0px" y="0px" width="50px"
	 height="60px" viewBox="0 0 50 60" style="enable-background:new 0 0 50 60;" xml:space="preserve">
<style type="text/css">
	.st0{opacity:0.75;filter:url(#blur);}
	.st1{fill:#FF62AA;}
</style>
<filter  id="blur">
	<feGaussianBlur  stdDeviation="1"></feGaussianBlur>
</filter>
<g id="Layer_2">
	<g class="st0">
		<path d="M41.7,5.3H8.3c-2.2,0-4,1.8-4,4v33.4c0,2.2,1.8,4,4,4h11.9l4.6,7.9c0.1,0.2,0.2,0.2,0.3,0l4.6-7.9h12c2.2,0,4-1.8,4-4V9.3
			C45.7,7.1,43.9,5.3,41.7,5.3"/>
	</g>
</g>
<g id="Layer_1">
	<path class="st1" d="M41.7,5.3H8.3c-2.2,0-4,1.8-4,4v33.4c0,2.2,1.8,4,4,4h11.9l4.6,7.9c0.1,0.2,0.2,0.2,0.3,0l4.6-7.9h12
		c2.2,0,4-1.8,4-4V9.3C45.7,7.1,43.9,5.3,41.7,5.3"/>
	<g>
		<path d="M21.4,17.4v-2.7c0-1.8,1.5-3.2,3.4-3.2h0.4c1.9,0,3.4,1.4,3.4,3.2v2.7h1.5v-2.7c0-2.5-2.2-4.6-5-4.6h-0.4
			c-2.7,0-4.9,2.1-4.9,4.6v2.7C19.8,17.4,21.4,17.4,21.4,17.4z"/>
		<rect x="14.1" y="18.7" width="21.8" height="21.3"/>
	</g>
</g>
</svg>
