<?xml version="1.0" encoding="utf-8"?>
<!-- Generator: Adobe Illustrator 26.0.1, SVG Export Plug-In . SVG Version: 6.00 Build 0)  -->
<svg version="1.1" xmlns="http://www.w3.org/2000/svg" xmlns:xlink="http://www.w3.org/1999/xlink" x="0px" y="0px"
	 viewBox="0 0 414 576" width="75px" height="111px" style="enable-background:new 0 0 414 576;" xml:space="preserve">
<style type="text/css">
	.st0{filter:url(#blur);}
	.st1{fill:#26A7BD;}
	.st2{fill:#FFFFFF;}
</style>
<filter  id="blur">
	<feGaussianBlur  stdDeviation="10"></feGaussianBlur>
</filter>
<g id="Layer_2">
	<g class="st0">
		<g id="Layer_1_00000062885614876504435060000003606692868938241166_">
			<g id="Wayfinding_Signage_00000052071409982034211570000014379003650006622379_">
				<path d="M376.2,205.5c0,27.9-7,55.4-20.4,79.9L209.7,536.2c-1.4,2.5-3.8,2.5-5.3,0l-146-250.5c-13.5-24.6-20.6-52.2-20.6-80.2
					c0-6.7,0.4-13.4,1.2-20c10.1-84.2,82.4-147.6,168-147.6s157.9,63.4,168,147.5C375.8,192.1,376.2,198.8,376.2,205.5z"/>
			</g>
		</g>
	</g>
</g>
<g id="Layer_1">
	<g id="Layer_2_00000053530701571508284040000006906871264210484372_">
		<g>
			<g id="Layer_1_00000127733293586716391950000009294079294493058978_">
				<g id="Wayfinding_Signage_00000145753402980767225620000012069270159679148975_">
					<path d="M376.2,205.5c0,27.9-7,55.4-20.4,79.9L209.7,536.2c-1.4,2.5-3.8,2.5-5.3,0l-146-250.5c-13.5-24.6-20.6-52.2-20.6-80.2
						c0-6.7,0.4-13.4,1.2-20c10.1-84.2,82.4-147.6,168-147.6s157.9,63.4,168,147.5C375.8,192.1,376.2,198.8,376.2,205.5z"/>
				</g>
			</g>
		</g>
	</g>
	<g id="Layer_1_00000007392147941492208870000015138632222664315566_">
		<g>
			<g id="Layer_1_00000052795380740957700970000014328550820857547935_">
				<g id="New_or_Improved_Sidewalks">
					<path class="st1" d="M376.2,205.6c0,27.9-7,55.4-20.4,79.9L209.7,536.3c-1.5,2.5-3.8,2.5-5.3,0l-146-250.5
						c-13.5-24.6-20.6-52.2-20.6-80.3c0-6.7,0.4-13.4,1.2-20c10.1-84.2,82.3-147.6,168-147.6s157.9,63.5,168,147.6
						C375.8,192.3,376.2,198.9,376.2,205.6z"/>
					<path class="st2" d="M208.6,209l3.7-18.3l0,0l7-35.4l0,0l0.1-0.4l0,0l0.6-2.8c3.7,3.7,8.4,6.3,13.5,7.5
						c2.4,0.6,4.8,0.9,7.2,0.9c2.9,0,5.7-0.5,8.4-1.4l-0.8,3.2l21.2,36.9c1,1.6,1.7,3.4,2.2,5.3l0,0l9.7,40.5c0,0.1,0,0.1,0.1,0.2
						c0.1,0.2,0.1,0.4,0.1,0.6l0,0l0,0c0.6,3.7-1.9,7.2-5.6,7.9c-3.2,0.5-6.3-1.2-7.5-4.2l0,0l0,0c-0.1-0.2-0.2-0.5-0.2-0.7
						c0-0.2-0.1-0.3-0.1-0.4l-11.6-39.9l0,0l-20.2-30.8l0,0c-0.2-0.4-0.6-0.7-1.1-0.7c-0.4,0-0.8,0.2-1,0.6l-10.6,35l0,0l-0.1,0.2
						l-12.9,36.5l0,0c-1.2,3.6-5.1,5.5-8.6,4.4s-5.5-5.1-4.4-8.6L208.6,209z"/>
					<path class="st2" d="M234.4,155.9c-5.8-1.4-10.6-4.6-13.4-8.5l4.4-20.2c0.1-2-1.4-3-3.3-2.2c0,0-7.8,3.5-9.7,4
						c-0.4,0.7-2,33-2,33c-0.5,3.7-3.9,6.4-7.6,5.9c-0.1,0-0.2,0-0.4-0.1c-3.7-0.8-6.2-4.4-5.6-8.2l2.2-32.9c0-3.8,2.3-7,5.2-9.1
						s29.2-17.5,35.8-16.6c2,2.4,4.7,4.2,7.7,5c1.3,0.4,2.7,0.6,4.1,0.6c1,0,2.1-0.1,3.1-0.3l0.7-0.1c1.8,0.2,5.3,4,6.6,6.5l3.1,7.2
						l0,0l7,16l24.6,10.9l0.2,0.1l0.4,0.2h0.1l0,0c3.4,1.7,4.7,5.8,3.1,9.2c-1.6,3.3-5.6,4.7-8.9,3.2l-0.4-0.2l0,0l-26.1-10.1l0,0
						c0,0-0.1,0-0.1-0.1L265,149l0,0c-3-1.4-5-4.2-6.3-6.8l0,0v-0.1c-0.4-0.8-0.7-1.6-1-2.4l-2-4.5c-0.1-0.1-0.2-0.2-0.3-0.2
						c-0.2,0-0.3,0.1-0.4,0.3l-4.9,18.8C246.1,156.7,240.4,157.3,234.4,155.9z"/>
					<path class="st2" d="M264.4,93c-1.4,5.7-6.5,9.7-12.3,9.8c-1,0-2.1-0.1-3.1-0.4c-6.5-1.8-10.3-9-8.3-16l1.7-6.3
						c1.5-5.7,6.5-9.7,12.3-9.8c1,0,2.1,0.1,3.1,0.4c6.5,1.8,10.3,9,8.3,16L264.4,93z"/>
					<path class="st2" d="M171.9,291.5H92.5c-2.9,0.1-5.4-2.2-5.6-5.1s2.2-5.4,5.1-5.6c0.2,0,0.3,0,0.5,0h74.1v-16.5
						c0-2.9,2.4-5.3,5.3-5.3l0,0H313c2.9,0.1,5.2,2.6,5.1,5.6c-0.1,2.8-2.3,5-5.1,5.1H177.2v16.4
						C177.2,289.1,174.8,291.5,171.9,291.5z"/>
				</g>
			</g>
		</g>
	</g>
</g>
</svg>
