<?xml version="1.0" encoding="utf-8"?>
<!-- Generator: Adobe Illustrator 26.0.1, SVG Export Plug-In . SVG Version: 6.00 Build 0)  -->
<svg version="1.1" xmlns="http://www.w3.org/2000/svg" xmlns:xlink="http://www.w3.org/1999/xlink" x="0px" y="0px"
	 viewBox="0 0 414 576" style="enable-background:new 0 0 414 576;" xml:space="preserve">
<style type="text/css">
	.st0{filter:url(#blur);}
	.st1{fill:#26A7BD;}
	.st2{fill:#FFFFFF;}
</style>
<filter  id="blur">
	<feGaussianBlur  stdDeviation="10"></feGaussianBlur>
</filter>
<g id="Layer_2">
	<g class="st0">
		<g id="Layer_1_00000024706082358744462950000014976619054714034054_">
			<g id="Wayfinding_Signage_00000011009046468844133950000005723402261573259423_">
				<path d="M376.2,205.5c0,27.9-7,55.4-20.4,79.9L209.7,536.2c-1.4,2.5-3.8,2.5-5.3,0l-146-250.5c-13.5-24.6-20.6-52.2-20.6-80.2
					c0-6.7,0.4-13.4,1.2-20c10.1-84.2,82.4-147.6,168-147.6s157.9,63.4,168,147.5C375.8,192.1,376.2,198.8,376.2,205.5z"/>
			</g>
		</g>
	</g>
</g>
<g id="Layer_1">
	<path class="st1" d="M376.2,205.6c0,27.9-7,55.4-20.4,79.9L209.7,536.2c-1.4,2.5-3.8,2.5-5.3,0l-146-250.5
		c-13.5-24.6-20.6-52.2-20.6-80.2c0-6.7,0.4-13.4,1.2-20c10.1-84.2,82.4-147.6,168-147.6s157.9,63.4,168,147.5
		C375.8,192.1,376.2,198.8,376.2,205.6z"/>
	<g>
		<g id="Layer_1_00000124863341869183775630000013534103103844821161_">
			<g id="Opportunity_Improvement">
				<path class="st2" d="M194.8,318.6c0,7.1,5.8,12.9,12.9,12.9c7.1,0,12.9-5.8,12.9-12.9"/>
				<path class="st1" d="M207.7,334.8c-8.9,0-16.1-7.2-16.1-16.1h6.5c0,5.3,4.3,9.6,9.6,9.6s9.6-4.3,9.6-9.6l0,0h6.5
					C223.8,327.5,216.6,334.7,207.7,334.8z"/>
				<path class="st2" d="M184.3,293.5H231v-15.7c0.1-10.9,4.8-21.2,12.9-28.5c22-20,23.5-54.1,3.5-76s-54.1-23.5-76-3.5
					s-23.5,54.1-3.5,76c1.3,1.4,2.6,2.7,4,4c8,7.3,12.5,17.6,12.4,28.4L184.3,293.5z"/>
				<path class="st1" d="M234.3,296.7h-53.2v-18.6c0.1-9.9-4-19.3-11.3-26c-23.6-20.9-25.8-57-4.8-80.6
					c11.7-13.2,28.8-20.2,46.4-19.1c28.8,1.8,52.3,25.8,53.4,54.7c0.7,16.8-6.1,33.1-18.6,44.4c-7.4,6.6-11.7,16.1-11.9,26.1V296.7z
					 M187.6,290.2h40.2v-12.5c0.1-11.8,5.2-23,14-30.9c11-10.1,17-24.5,16.4-39.4c-1-25.6-21.8-46.9-47.3-48.4
					c-27.9-1.8-51.9,19.4-53.7,47.2c-1,15.6,5.2,30.7,16.9,41.1c8.7,7.9,13.6,19.1,13.5,30.8V290.2z"/>
				<path class="st2" d="M184.1,293.5v14.3c0,4.6,3.8,8.4,8.4,8.4l0,0h30.1c4.6,0,8.4-3.8,8.4-8.4l0,0v-14.3H184.1z"/>
				<path class="st1" d="M222.6,319.4h-30.1c-6.4,0-11.7-5.2-11.7-11.7v-17.5h53.5v17.5C234.3,314.2,229.1,319.4,222.6,319.4z
					 M187.3,296.7v11c0,2.8,2.3,5.1,5.1,5.1h30.1c2.8,0,5.1-2.3,5.1-5.1v-11H187.3z"/>
				<path class="st2" d="M210.8,105.5v18.9v10.7c0,2.2-1.7,3.9-3.9,3.9l0,0c-2.2,0-3.9-1.7-3.9-3.9v-10.7V98.2V87.5
					c0-2.2,1.7-3.9,3.9-3.9l0,0c2.2,0,3.9,1.7,3.9,3.9l0,0v10.7V105.5z"/>
				<path class="st2" d="M206.9,141.8c-3.7,0-6.7-3-6.7-6.7V87.5c0-3.7,3-6.7,6.7-6.7l0,0c3.7,0,6.7,3,6.7,6.7V135
					C213.6,138.8,210.6,141.8,206.9,141.8L206.9,141.8z M206.9,86.4L206.9,86.4c-0.3,0-0.6,0.1-0.8,0.3c-0.2,0.2-0.3,0.5-0.3,0.8
					V135c0,0.6,0.5,1.1,1.1,1.1l0,0l0,0c0.6,0,1.1-0.5,1.1-1.1V87.5c0-0.3-0.1-0.6-0.3-0.8C207.5,86.5,207.2,86.4,206.9,86.4
					L206.9,86.4z"/>
				<path class="st2" d="M128.3,141.5l14.8,11.8l8.4,6.6c1.7,1.3,2,3.8,0.6,5.5l0,0c-1.3,1.7-3.8,2-5.5,0.6l-8.4-6.6l-14.8-11.8
					l-5.7-4.6l-8.3-6.6c-1.7-1.3-2-3.8-0.6-5.5l0,0c1.3-1.7,3.8-2,5.5-0.6l8.4,6.7L128.3,141.5z"/>
				<path class="st2" d="M149,169.7c-1.5,0-3-0.5-4.2-1.5l-37.2-29.6c-2.9-2.3-3.4-6.5-1.1-9.4c2.3-2.9,6.5-3.4,9.4-1.1l0,0
					l37.2,29.6c2.9,2.3,3.4,6.5,1.1,9.4c-1.1,1.4-2.7,2.3-4.5,2.5C149.5,169.6,149.2,169.7,149,169.7z M111.8,132.2
					c-0.3,0-0.6,0.2-0.9,0.4c-0.2,0.2-0.3,0.5-0.2,0.8c0,0.3,0.2,0.6,0.4,0.7l37.2,29.6c0.5,0.4,1.2,0.3,1.6-0.2
					c0.4-0.5,0.3-1.2-0.2-1.6l-37.2-29.6C112.3,132.3,112.1,132.2,111.8,132.2z"/>
				<path class="st2" d="M105,228.4l18.4-4.2l10.4-2.4c2.1-0.5,4.2,0.8,4.7,2.9l0,0c0.5,2.1-0.8,4.2-2.9,4.7l0,0l-10.4,2.4
					l-18.4,4.2l-7.1,1.6L89.3,240c-2.1,0.5-4.2-0.8-4.7-2.9l0,0c-0.5-2.1,0.8-4.2,2.9-4.7l0,0l10.4-2.4L105,228.4z"/>
				<path class="st2" d="M88.3,243c-3.7,0-6.7-3.1-6.7-6.8c0-3.1,2.2-5.8,5.2-6.5l46.3-10.6c3.6-0.8,7.2,1.5,8,5.1s-1.4,7.1-5,8
					l-46.3,10.6C89.3,242.9,88.8,243,88.3,243z M134.7,224.5h-0.2l-46.4,10.6c-0.6,0.1-1,0.7-0.8,1.3l0,0c0.1,0.6,0.7,1,1.3,0.8l0,0
					l46.3-10.6c0.6-0.1,1-0.7,0.8-1.3c-0.1-0.3-0.2-0.5-0.5-0.7C135.1,224.6,134.9,224.5,134.7,224.5z"/>
				<path class="st2" d="M307.1,236l-18.4-4.2l-10.4-2.4c-2.1-0.4-3.5-2.5-3-4.6l0,0l0,0c0.5-2.1,2.5-3.5,4.7-3l0,0l10.4,2.4
					l18.4,4.2l7.1,1.6l10.4,2.4c2.1,0.5,3.4,2.6,3,4.7l0,0c-0.5,2.1-2.5,3.4-4.6,3l-10.4-2.4L307.1,236z"/>
				<path class="st2" d="M325.5,242.9c-0.5,0-1-0.1-1.5-0.2l-46.3-10.5c-3.6-0.8-5.9-4.4-5.1-8c0.4-1.7,1.5-3.2,3-4.2
					s3.3-1.3,5.1-0.9l46.4,10.5c3.6,0.8,5.9,4.4,5.1,8c-0.4,1.7-1.5,3.2-3,4.2C328,242.5,326.8,242.9,325.5,242.9z M307.8,233.3
					l17.5,4c0.3,0.1,0.6,0,0.8-0.1c0.5-0.3,0.7-1,0.3-1.5c-0.2-0.2-0.4-0.4-0.7-0.5l-46.3-10.6c-0.6-0.1-1.2,0.2-1.3,0.8
					c-0.1,0.3,0,0.6,0.1,0.8c0.2,0.2,0.4,0.4,0.7,0.5L307.8,233.3z"/>
				<path class="st2" d="M264.9,169.7c-0.2,0-0.5,0-0.8,0c-1.8-0.2-3.4-1.1-4.5-2.5c-2.3-2.9-1.9-7.1,1-9.4l37.1-29.7
					c2.8-2.4,7-2.1,9.5,0.7c2.4,2.8,2.1,7-0.7,9.5c-0.1,0.1-0.3,0.2-0.4,0.3L269,168.2C267.9,169.2,266.4,169.7,264.9,169.7z"/>
			</g>
		</g>
	</g>
</g>
</svg>
