<?xml version="1.0" encoding="utf-8"?>
<!-- Generator: Adobe Illustrator 25.4.1, SVG Export Plug-In . SVG Version: 6.00 Build 0)  -->
<svg version="1.1" id="Layer_1" xmlns="http://www.w3.org/2000/svg" xmlns:xlink="http://www.w3.org/1999/xlink" x="0px" y="0px"
	 viewBox="0 0 414 576" style="enable-background:new 0 0 414 576;" xml:space="preserve">
<style type="text/css">
	.st0{opacity:0.75;filter:url(#blur);}
	.st1{fill:#26A7BD;}
	.st2{fill:#FFFFFF;}
</style>
<filter  id="blur">
	<feGaussianBlur  stdDeviation="10"></feGaussianBlur>
</filter>
<g class="st0">
	<path d="M208.5,538.8c-1.3,0-2.6-0.8-3.4-2.3L59.1,286c-13.5-24.7-20.7-52.6-20.7-80.7c0-6.7,0.4-13.5,1.2-20.1
		c10.2-84.6,82.8-148.4,168.9-148.4c86.1,0,158.7,63.8,168.9,148.3c0.8,6.7,1.2,13.5,1.2,20.2c0,28-7.1,55.7-20.5,80.3L211.9,536.5
		C211.1,537.9,209.8,538.8,208.5,538.8z"/>
</g>
<path class="st1" d="M377.7,205.4c0,27.9-7,55.4-20.4,79.9L211.2,536c-1.4,2.5-3.8,2.5-5.3,0l-146-250.5
	c-13.5-24.6-20.6-52.2-20.6-80.2c0-6.7,0.4-13.4,1.2-20c10.1-84.2,82.4-147.6,168-147.6s157.9,63.4,168,147.5
	C377.3,191.9,377.7,198.6,377.7,205.4z"/>
<g>
	<g id="Layer_1_00000124863341869183775630000013534103103844821161_">
		<g id="Opportunity_Improvement">
			<path class="st2" d="M195.1,318.6c0,7.1,5.8,12.9,12.9,12.9c7.1,0,12.9-5.8,12.9-12.9"/>
			<path class="st1" d="M208,334.8c-8.9,0-16.1-7.2-16.1-16.1h6.5c0,5.3,4.3,9.6,9.6,9.6c5.3,0,9.6-4.3,9.6-9.6l0,0h6.5
				C224.1,327.5,216.9,334.7,208,334.8z"/>
			<path class="st2" d="M184.6,293.5h46.7v-15.7c0.1-10.9,4.8-21.2,12.9-28.5c22-20,23.5-54.1,3.5-76s-54.1-23.5-76-3.5
				s-23.5,54.1-3.5,76c1.3,1.4,2.6,2.7,4,4c8,7.3,12.5,17.6,12.4,28.4L184.6,293.5z"/>
			<path class="st1" d="M234.6,296.7h-53.2v-18.6c0.1-9.9-4-19.3-11.3-26c-23.6-20.9-25.8-57-4.8-80.6
				c11.7-13.2,28.8-20.2,46.4-19.1c28.8,1.8,52.3,25.8,53.4,54.7c0.7,16.8-6.1,33.1-18.6,44.4c-7.4,6.6-11.7,16.1-11.9,26.1
				L234.6,296.7z M187.9,290.2h40.2v-12.5c0.1-11.8,5.2-23,14-30.9c11-10.1,17-24.5,16.4-39.4c-1-25.6-21.8-46.9-47.3-48.4
				c-27.9-1.8-51.9,19.4-53.7,47.2c-1,15.6,5.2,30.7,16.9,41.1c8.7,7.9,13.6,19.1,13.5,30.8V290.2z"/>
			<path class="st2" d="M184.4,293.5v14.3c0,4.6,3.8,8.4,8.4,8.4c0,0,0,0,0,0h30.1c4.6,0,8.4-3.8,8.4-8.4c0,0,0,0,0,0v-14.3H184.4z"
				/>
			<path class="st1" d="M222.9,319.4h-30.1c-6.4,0-11.7-5.2-11.7-11.7v-17.5h53.5v17.5C234.6,314.2,229.4,319.4,222.9,319.4z
				 M187.6,296.7v11c0,2.8,2.3,5.1,5.1,5.1h30.1c2.8,0,5.1-2.3,5.1-5.1v-11H187.6z"/>
			<path class="st2" d="M211.1,105.5v18.9v10.7c0,2.2-1.7,3.9-3.9,3.9l0,0c-2.2,0-3.9-1.7-3.9-3.9v-10.7V98.2V87.5
				c0-2.2,1.7-3.9,3.9-3.9l0,0c2.2,0,3.9,1.7,3.9,3.9c0,0,0,0,0,0v10.7V105.5z"/>
			<path class="st2" d="M207.2,141.8c-3.7,0-6.7-3-6.7-6.7V87.5c0-3.7,3-6.7,6.7-6.7l0,0c3.7,0,6.7,3,6.7,6.7V135
				C213.9,138.8,210.9,141.8,207.2,141.8L207.2,141.8z M207.2,86.4L207.2,86.4c-0.3,0-0.6,0.1-0.8,0.3c-0.2,0.2-0.3,0.5-0.3,0.8
				v47.5c0,0.6,0.5,1.1,1.1,1.1l0,0l0,0c0.6,0,1.1-0.5,1.1-1.1V87.5c0-0.3-0.1-0.6-0.3-0.8C207.8,86.5,207.5,86.4,207.2,86.4
				L207.2,86.4z"/>
			<path class="st2" d="M128.6,141.5l14.8,11.8l8.4,6.6c1.7,1.3,2,3.8,0.6,5.5l0,0c-1.3,1.7-3.8,2-5.5,0.6l-8.4-6.6l-14.8-11.8
				L118,143l-8.3-6.6c-1.7-1.3-2-3.8-0.6-5.5l0,0c1.3-1.7,3.8-2,5.5-0.6l8.4,6.7L128.6,141.5z"/>
			<path class="st2" d="M149.3,169.7c-1.5,0-3-0.5-4.2-1.5l-37.2-29.6c-2.9-2.3-3.4-6.5-1.1-9.4c2.3-2.9,6.5-3.4,9.4-1.1l0,0
				l37.2,29.6c2.9,2.3,3.4,6.5,1.1,9.4c-1.1,1.4-2.7,2.3-4.5,2.5C149.8,169.6,149.5,169.7,149.3,169.7z M112.1,132.2
				c-0.3,0-0.6,0.2-0.9,0.4c-0.2,0.2-0.3,0.5-0.2,0.8c0,0.3,0.2,0.6,0.4,0.7l37.2,29.6c0.5,0.4,1.2,0.3,1.6-0.2
				c0.4-0.5,0.3-1.2-0.2-1.6l-37.2-29.6C112.6,132.3,112.4,132.2,112.1,132.2z"/>
			<path class="st2" d="M105.3,228.4l18.4-4.2l10.4-2.4c2.1-0.5,4.2,0.8,4.7,2.9l0,0c0.5,2.1-0.8,4.2-2.9,4.7c0,0,0,0,0,0l-10.4,2.4
				l-18.4,4.2l-7.1,1.6l-10.4,2.4c-2.1,0.5-4.2-0.8-4.7-2.9l0,0c-0.5-2.1,0.8-4.2,2.9-4.7c0,0,0,0,0,0l10.4-2.4L105.3,228.4z"/>
			<path class="st2" d="M88.6,243c-3.7,0-6.7-3.1-6.7-6.8c0-3.1,2.2-5.8,5.2-6.5l46.3-10.6c3.6-0.8,7.2,1.5,8,5.1
				c0.8,3.6-1.4,7.1-5,8l-46.3,10.6C89.6,242.9,89.1,243,88.6,243z M135,224.5h-0.2l-46.4,10.6c-0.6,0.1-1,0.7-0.8,1.3c0,0,0,0,0,0
				c0.1,0.6,0.7,1,1.3,0.8c0,0,0,0,0,0l46.3-10.6c0.6-0.1,1-0.7,0.8-1.3c-0.1-0.3-0.2-0.5-0.5-0.7
				C135.4,224.6,135.2,224.5,135,224.5z"/>
			<path class="st2" d="M307.4,236l-18.4-4.2l-10.4-2.4c-2.1-0.4-3.5-2.5-3-4.6c0,0,0,0,0,0l0,0c0.5-2.1,2.5-3.5,4.7-3c0,0,0,0,0,0
				l10.4,2.4l18.4,4.2l7.1,1.6l10.4,2.4c2.1,0.5,3.4,2.6,3,4.7l0,0c-0.5,2.1-2.5,3.4-4.6,3l-10.4-2.4L307.4,236z"/>
			<path class="st2" d="M325.8,242.9c-0.5,0-1-0.1-1.5-0.2L278,232.2c-3.6-0.8-5.9-4.4-5.1-8c0.4-1.7,1.5-3.2,3-4.2
				c1.5-1,3.3-1.3,5.1-0.9l46.4,10.5c3.6,0.8,5.9,4.4,5.1,8c-0.4,1.7-1.5,3.2-3,4.2C328.3,242.5,327.1,242.9,325.8,242.9z
				 M308.1,233.3l17.5,4c0.3,0.1,0.6,0,0.8-0.1c0.5-0.3,0.7-1,0.3-1.5c-0.2-0.2-0.4-0.4-0.7-0.5l-46.3-10.6
				c-0.6-0.1-1.2,0.2-1.3,0.8c-0.1,0.3,0,0.6,0.1,0.8c0.2,0.2,0.4,0.4,0.7,0.5L308.1,233.3z"/>
			<path class="st2" d="M265.2,169.7c-0.2,0-0.5,0-0.8,0c-1.8-0.2-3.4-1.1-4.5-2.5c-2.3-2.9-1.9-7.1,1-9.4l37.1-29.7
				c2.8-2.4,7-2.1,9.5,0.7c2.4,2.8,2.1,7-0.7,9.5c-0.1,0.1-0.3,0.2-0.4,0.3l-37.1,29.6C268.2,169.2,266.7,169.7,265.2,169.7z"/>
		</g>
	</g>
</g>
</svg>
