<?xml version="1.0" encoding="utf-8"?>
<!-- Generator: Adobe Illustrator 26.0.1, SVG Export Plug-In . SVG Version: 6.00 Build 0)  -->
<svg version="1.1" xmlns="http://www.w3.org/2000/svg" xmlns:xlink="http://www.w3.org/1999/xlink" x="0px" y="0px"
	 viewBox="0 0 414 576" width="75px" height="111px" style="enable-background:new 0 0 414 576;" xml:space="preserve">
<style type="text/css">
	.st0{filter:url(#blur);}
	.st1{fill:#26A7BD;}
	.st2{fill:#FFFFFF;}
</style>
<filter  id="blur">
	<feGaussianBlur  stdDeviation="10"></feGaussianBlur>
</filter>
<g id="Layer_2">
	<g class="st0">
		<g id="Layer_1_00000005252418185635844900000011669566313248756623_">
			<g id="Wayfinding_Signage_00000082328300876040336790000015315389563006846628_">
				<path d="M376.2,205.5c0,27.9-7,55.4-20.4,79.9L209.7,536.2c-1.4,2.5-3.8,2.5-5.3,0l-146-250.5c-13.5-24.6-20.6-52.2-20.6-80.2
					c0-6.7,0.4-13.4,1.2-20c10.1-84.2,82.4-147.6,168-147.6s157.9,63.4,168,147.5C375.8,192.1,376.2,198.8,376.2,205.5z"/>
			</g>
		</g>
	</g>
</g>
<g id="Layer_1">
	<g>
		<g id="Layer_1_00000073712337429383615210000006139197211262263175_">
			<g id="Pedestrain_Bike_Lights">
				<path class="st1" d="M376.2,205.5c0,27.9-7,55.4-20.4,79.9L209.7,536.2c-1.4,2.5-3.8,2.5-5.3,0l-146-250.5
					c-13.5-24.6-20.6-52.2-20.6-80.2c0-6.7,0.4-13.4,1.2-20C49.1,101.4,121.3,37.9,207,37.9s157.8,63.4,168,147.5
					C375.8,192.1,376.2,198.8,376.2,205.5z"/>
				<path class="st2" d="M159.5,129.8h35.6l-1.4,8.8c-0.6,3.7-2,7.3-4.3,10.3l-1.3,1.7c-2.6,3.3-6.5,5.3-10.8,5.3l0,0
					c-4.3,0-8.3-2-10.9-5.4l-1.6-2.1c-2.2-3.1-3.7-6.6-4.2-10.4L159.5,129.8z"/>
				<path class="st2" d="M177.4,156.1c2.1,0,4.2-0.5,6.1-1.5v-8h-12.3v8C173.1,155.6,175.2,156.1,177.4,156.1z"/>
				<path class="st2" d="M177.4,162.1c-2.1,0-4.2-0.3-6.2-1v105.3h12.4V161.1C181.5,161.8,179.5,162.1,177.4,162.1z"/>
				<path class="st2" d="M159.3,123.4h36c2.5,0,3.6-5,1.6-7.4l-7.9-9.6c-3.4-4.1-7.5-6.3-11.7-6.3l0,0c-4.2,0-8.4,2.2-11.7,6.3
					l-7.9,9.6C155.8,118.4,156.8,123.4,159.3,123.4z"/>
				<path class="st2" d="M224.7,134.7l21,0c2.1,0,3.8,1.7,3.8,3.8l0,0c0,2.1-1.7,3.8-3.8,3.8l-21,0c-2.1,0-3.8-1.7-3.8-3.8l0,0
					C220.9,136.4,222.6,134.7,224.7,134.7z"/>
				<path class="st2" d="M211.5,102l17-12.4c1.7-1.2,4.1-0.9,5.4,0.8l0,0c1.2,1.7,0.9,4.1-0.8,5.4l-17,12.4
					c-1.7,1.2-4.1,0.9-5.4-0.8l0,0C209.4,105.7,209.8,103.3,211.5,102z"/>
				<path class="st2" d="M210.8,169.8L210.8,169.8c1.2-1.7,3.7-2.1,5.4-0.9l17,12.3c1.7,1.2,2.1,3.6,0.9,5.4l0,0
					c-1.2,1.7-3.6,2.1-5.4,0.9l-17-12.3C209.9,173.9,209.5,171.5,210.8,169.8z"/>
				<path class="st2" d="M108.7,134.7l21,0c2.1,0,3.8,1.7,3.8,3.8l0,0c0,2.1-1.7,3.8-3.8,3.8l-21,0c-2.1,0-3.8-1.7-3.8-3.8l0,0
					C104.8,136.4,106.6,134.7,108.7,134.7z"/>
				<path class="st2" d="M121.4,181.2l17-12.4c1.7-1.2,4.1-0.9,5.4,0.8l0,0c1.2,1.7,0.9,4.1-0.8,5.4l-17,12.4
					c-1.7,1.2-4.1,0.9-5.4-0.8l0,0C119.3,184.9,119.7,182.5,121.4,181.2z"/>
				<path class="st2" d="M120.4,90.5L120.4,90.5c1.2-1.7,3.7-2.1,5.4-0.9l17,12.3c1.7,1.2,2.1,3.6,0.9,5.4l0,0
					c-1.2,1.7-3.6,2.1-5.4,0.9l-17-12.3C119.5,94.6,119.1,92.2,120.4,90.5z"/>
				<path class="st2" d="M282.5,295.4l-2.5-12.5l0,0l-4.8-24.2l0,0l-0.1-0.2l0,0l-0.4-2c-2.5,2.5-5.7,4.3-9.2,5.1
					c-1.6,0.4-3.3,0.6-4.9,0.6c-2,0-3.9-0.3-5.8-1l0.6,2.2l-14.5,25.3c-0.7,1.1-1.2,2.4-1.5,3.6l0,0l-6.6,27.8v0.1
					c0,0.1-0.1,0.3-0.1,0.4l0,0c-0.5,2.6,1.2,5,3.8,5.4c2.2,0.4,4.4-0.8,5.2-2.9l0,0l0,0c0.1-0.2,0.1-0.3,0.2-0.5
					c0-0.1,0-0.2,0.1-0.3l7.9-27.3l0,0l13.9-21.1l0,0c0.1-0.3,0.4-0.5,0.8-0.5c0.3,0,0.6,0.2,0.7,0.4l7.3,24l0,0l0,0.2l8.9,25l0,0
					c0.8,2.5,3.5,3.8,5.9,3c2.5-0.8,3.8-3.5,3-5.9l0,0L282.5,295.4z"/>
				<path class="st2" d="M264.8,258.9c3.7-0.8,6.9-2.9,9.2-5.9l-3.1-13.8c-0.1-0.8,0.4-1.6,1.2-1.7c0.4-0.1,0.7,0,1,0.2
					c0,0,5.3,2.4,6.6,2.8c0.2,0.5,1.4,22.6,1.4,22.6c0.3,2.6,2.7,4.4,5.2,4c0.1,0,0.2,0,0.2,0c2.6-0.6,4.2-3,3.9-5.6l-1.5-22.6
					c-0.1-2.5-1.5-4.9-3.6-6.2c-1.9-1.4-20-12-24.5-11.4c-2,2.4-4.9,3.8-8.1,3.8c-0.7,0-1.4-0.1-2.1-0.2H250
					c-1.3,0.1-3.6,2.7-4.5,4.5l-2.1,4.9l0,0l-4.8,11l-16.9,7.4l-0.1,0.1l-0.3,0.1h-0.1l0,0c-2.3,1.2-3.1,4.1-1.9,6.4
					c1.1,2.1,3.7,3,5.9,2.1l0.2-0.1l0,0l17.9-6.9l0,0h0.1h0.1l0,0c1.9-1,3.4-2.7,4.3-4.6l0,0v-0.1c0.3-0.6,0.5-1.1,0.7-1.6l1.3-3.1
					c0-0.1,0.1-0.1,0.2-0.1c0.1,0,0.2,0.1,0.2,0.2l3.3,12.8C257.1,259.6,261.1,260,264.8,258.9z"/>
				<path class="st2" d="M244.2,215.8c1,3.9,4.4,6.6,8.4,6.7c0.7,0,1.4-0.1,2.1-0.3c4.5-1.2,7-6.2,5.7-11l-1.2-4.4
					c-1-3.9-4.4-6.6-8.4-6.7c-0.7,0-1.4,0.1-2.1,0.3c-4.5,1.2-7,6.2-5.7,11L244.2,215.8z"/>
				<polygon class="st2" points="168.7,272.3 185.9,272.3 192.9,328.9 161.8,328.9 				"/>
			</g>
		</g>
	</g>
</g>
</svg>
