<?xml version="1.0" encoding="utf-8"?>
<!-- Generator: Adobe Illustrator 26.0.1, SVG Export Plug-In . SVG Version: 6.00 Build 0)  -->
<svg version="1.1" xmlns="http://www.w3.org/2000/svg" xmlns:xlink="http://www.w3.org/1999/xlink" x="0px" y="0px"
	 viewBox="0 0 414 576" width="75px" height="111px" style="enable-background:new 0 0 414 576;" xml:space="preserve">
<style type="text/css">
	.st0{filter:url(#blur);}
	.st1{fill:#26A7BD;}
	.st2{fill:#FFFFFF;}
	.st3{fill:#FFFFFF;stroke:#FFFFFF;stroke-width:0.19;stroke-miterlimit:10;}
</style>
<filter  id="blur">
	<feGaussianBlur  stdDeviation="10"></feGaussianBlur>
</filter>
<g id="Layer_2">
	<g class="st0">
		<g id="Layer_1_00000128470648867302172120000013043495774815329180_">
			<g id="Wayfinding_Signage_00000170262412137879052720000018236209264651756176_">
				<path d="M376.2,205.5c0,27.9-7,55.4-20.4,79.9L209.7,536.2c-1.4,2.5-3.8,2.5-5.3,0l-146-250.5c-13.5-24.6-20.6-52.2-20.6-80.2
					c0-6.7,0.4-13.4,1.2-20c10.1-84.2,82.4-147.6,168-147.6s157.9,63.4,168,147.5C375.8,192.1,376.2,198.8,376.2,205.5z"/>
			</g>
		</g>
	</g>
</g>
<g id="Layer_1">
	<g>
		<g id="Layer_1_00000177450257751702689620000002605789889139601330_">
			<g id="Plaza_Parklet">
				<path class="st1" d="M376.2,205.5c0,27.9-7,55.4-20.4,79.9L209.7,536.2c-1.5,2.5-3.8,2.5-5.3,0l-146-250.5
					c-13.5-24.6-20.6-52.2-20.6-80.2c0-6.7,0.4-13.4,1.2-20c10.1-84.1,82.3-147.6,168-147.6s157.9,63.5,168,147.5
					C375.8,192.1,376.2,198.8,376.2,205.5z"/>
				<path class="st2" d="M172,288.4h171.6h0.5h0.2h0.3h0.2l0.2-0.1l0.2-0.1l0.2-0.1l0.2-0.1l0.2-0.1l0.2-0.1l0.2-0.1l0.2-0.1
					l0.2-0.1l0.2-0.1c0,0,0.1,0,0.1-0.1l0.1-0.1l0.2-0.2l0.1-0.1c0-0.1,0.1-0.1,0.1-0.2l0.1-0.2c0-0.1,0.1-0.1,0.1-0.2
					c0-0.1,0.1-0.1,0.1-0.2l0.1-0.2c0-0.1,0.1-0.1,0.1-0.2l0.1-0.2c0-0.1,0-0.1,0.1-0.2c0-0.1,0.1-0.1,0.1-0.2c0-0.1,0-0.1,0-0.2
					c0-0.1,0-0.1,0-0.2c0-0.1,0-0.1,0-0.2c0-0.1,0-0.1,0-0.2s0-0.2,0-0.2V284c0-0.1,0-0.2,0-0.2v-0.2v-0.2c0-0.1,0-0.1,0-0.2
					c0-0.1,0-0.1,0-0.2c0-0.1,0-0.1-0.1-0.2c0-0.1,0-0.1-0.1-0.2c0-0.1,0-0.1-0.1-0.2c0-0.1-0.1-0.1-0.1-0.2l-0.1-0.2l-0.1-0.2
					c0-0.1-0.1-0.1-0.1-0.2c0-0.1-0.1-0.1-0.1-0.2c0-0.1-0.1-0.1-0.2-0.2l-0.1-0.1L302,234.1c-1.8-1.8-4.6-1.9-6.5-0.3
					c-1.8,1.6-2,4.3-0.4,6.1c0,0.1,0.1,0.1,0.1,0.2l37.7,39.5H172"/>
				<path class="st2" d="M172,279.5H87.7l37.7-39.5c1.7-1.7,1.6-4.4-0.1-6.1c-0.1-0.1-0.1-0.1-0.2-0.2c-1.9-1.7-4.7-1.5-6.5,0.3
					l-44.9,46.9l-0.1,0.1c-0.1,0.1-0.1,0.1-0.2,0.2c0,0.1-0.1,0.1-0.1,0.2c0,0.1-0.1,0.1-0.1,0.2l-0.1,0.2c0,0.1-0.1,0.1-0.1,0.2
					c0,0.1-0.1,0.1-0.1,0.2l-0.1,0.2l-0.1,0.2l-0.1,0.2l-0.1,0.2c0,0.1,0,0.1,0,0.2s0,0.1,0,0.2c0,0.1,0,0.1,0,0.2
					c0,0.1,0,0.2,0,0.2s0,0.1,0,0.1s0,0.1,0,0.1s0,0.2,0,0.2s0,0.1,0,0.2c0,0.1,0,0.1,0,0.2c0,0.1,0,0.1,0,0.2c0,0.1,0,0.1,0,0.2
					l0.1,0.2l0.1,0.2l0.1,0.2c0,0.1,0.1,0.1,0.1,0.2l0.1,0.2c0,0.1,0.1,0.1,0.1,0.2c0,0.1,0.1,0.1,0.1,0.2l0.1,0.2
					c0,0.1,0.1,0.1,0.1,0.2l0.1,0.1l0.2,0.2l0.1,0.1l0.1,0.1l0.2,0.1l0.2,0.1l0.2,0.1l0.2,0.1l0.2,0.1l0.2,0.1l0.2,0.1l0.2,0.1
					l0.2,0.1l0.2,0.1h0.2h0.3h0.2h0.4H172"/>
				<path class="st3" d="M140.2,181.1c-4.9,0-11.3-1.9-17.7-9.8c-9.3,1.8-17.3-0.6-21.6-6.5c-2.7-3.8-3.4-8.7-1.8-13.1
					c-6.7-4.1-9.8-12.2-7.5-19.8c0.6-2,1.8-3.8,3.4-5.1c-1.2-1.5-2-3.2-2.4-5c-1.2-5.7,0.9-11.5,5.3-15.2c2.8-2.1,6.4-2.9,9.8-2.2
					c-0.2-4.8,2.2-9.4,6.3-12c4.5-3.1,11.2-4.2,16.7-1.3c3-5.6,9.6-8.3,15.3-8c6,0.1,11.3,4.2,12.9,10c5.5-1.3,11.2,0,15.6,3.4
					c5.1,3.7,7.6,10.1,6.4,16.3c4.6,1.1,7.5,5.4,8.2,10c0.6,4.2-0.7,8.6-4.2,11.3c2,3.4,2.4,9.5-0.4,13.6c-1.5,2.2-3.8,3.6-6.4,4
					c1.1,5.2-0.2,10.7-3.6,14.8c-3.9,4.5-9.9,6.1-16.6,4.6c-3.6,5.5-9.4,9.1-15.9,9.9C141.5,181.1,140.8,181.1,140.2,181.1z"/>
				<path class="st3" d="M123.6,165.6c0.9,0,1.7,0.4,2.2,1.1c4.8,6.5,10.1,9.5,15.8,8.9c6.2-0.6,11.2-5.6,12.7-8.9
					c0.6-1.2,2-1.9,3.3-1.4c5.5,1.8,10.1,1,13-2.4c2.9-3.6,3.5-8.6,1.5-12.8c-0.7-1.3-0.1-3,1.2-3.6c0.5-0.3,1.1-0.3,1.7-0.2
					c3.2,0.6,5.1-0.4,6-3.2c0.9-3.2-0.2-6.5-1-7c-1.5,0.2-2.8-0.8-3.1-2.3s0.8-2.8,2.3-3.1l0,0c4.2-0.6,5.2-4.3,4.8-7.3
					s-2.4-6-5.9-5.6c-0.9,0.1-1.8-0.3-2.4-1c-0.6-0.7-0.8-1.7-0.5-2.6c2.4-7.6-1.3-11.8-3.7-13.7c-3.9-3-9.7-3.8-12.9-1.7
					c-1.2,0.8-2.9,0.5-3.7-0.8c-0.2-0.4-0.4-0.8-0.4-1.2c-0.8-7.5-6.2-8.6-8.5-8.7c-4.6-0.2-10,2.5-11,7.4c-0.3,1.5-1.7,2.4-3.2,2.1
					c-0.5-0.1-0.9-0.3-1.3-0.7c-3.8-3.6-9.5-2.9-13.1-0.4c-3.6,2.3-5,6.9-3.2,10.7c0.6,1.4-0.1,3-1.5,3.5c-0.7,0.3-1.6,0.3-2.3-0.1
					c-3.5-1.8-6.6-1.8-8.9,0c-2.8,2.4-4.1,6.1-3.3,9.8c0.4,2.2,2.1,4,4.3,4.5c1.5,0.3,2.4,1.8,2,3.3c-0.3,1.5-1.8,2.4-3.3,2l0,0
					c-2.7-0.6-3.9,2.1-4.3,3.3c-1.3,3.7-0.4,10.9,7.1,14.5c1.3,0.6,1.9,2.2,1.3,3.6c-0.1,0.1-0.1,0.2-0.2,0.4
					c-1.9,3-1.7,6.8,0.4,9.6c3.2,4.5,9.8,6,17.6,4C123.2,165.6,123.4,165.6,123.6,165.6z"/>
				<path class="st2" d="M141.5,186.1c-0.6,0.1-1.3,0.1-2,0.1c-2.2,0-4.4-0.4-6.6-1.1v70.7h14.2v-71
					C145.3,185.5,143.4,185.9,141.5,186.1z"/>
				<path class="st2" d="M304,236.8l-2.6-12.7l0,0l-4.9-24.6l0,0l0-0.2l0,0l-0.4-2c-2.6,2.6-5.8,4.4-9.4,5.2c-1.6,0.4-3.3,0.6-5,0.6
					c-2,0-4-0.3-5.9-1l0.6,2.2L261.6,230c-0.7,1.1-1.2,2.4-1.5,3.7l0,0l-6.7,28.1c0,0,0,0.1,0,0.1c0,0.1-0.1,0.3-0.1,0.5l0,0
					c-0.4,2.6,1.3,5,3.9,5.4c2.2,0.4,4.3-0.9,5.2-2.9l0,0l0,0c0.1-0.2,0.1-0.3,0.2-0.5l0.1-0.3l8-27.7l0,0l14.1-21.4l0,0
					c0.1-0.3,0.4-0.5,0.8-0.5c0.3,0,0.6,0.2,0.7,0.4l7.4,24.3l0,0l0,0.2l9,25.3l0,0c1,2.4,3.7,3.6,6.2,2.7c2.3-0.9,3.5-3.3,2.8-5.7
					L304,236.8z"/>
				<path class="st1" d="M296,197.4l0.4,2l0,0l0,0.2l0,0l4.9,24.6l0,0l2.6,12.7l7.7,24.9c0.8,2.5-0.5,5.2-3,6c0,0,0,0,0,0
					c-0.5,0.2-1,0.2-1.5,0.2c-2,0-3.9-1.3-4.5-3.2l0,0l-9-25.4l0-0.2l0,0l-7.4-24.3c-0.2-0.2-0.4-0.4-0.7-0.4
					c-0.3,0-0.6,0.2-0.8,0.5l0,0l-14.1,21.4l0,0l-8,27.7l-0.1,0.3c0,0.2-0.1,0.4-0.2,0.5l0,0l0,0c-0.7,1.8-2.5,3-4.4,3
					c-0.4,0-0.8-0.1-1.2-0.2c-2.4-0.6-3.9-2.9-3.5-5.4l0,0c0-0.1,0.1-0.3,0.1-0.5s0-0.1,0-0.1l6.7-28.1l0,0c0.3-1.3,0.8-2.5,1.5-3.7
					l14.8-25.6l-0.6-2.2c1.9,0.7,3.9,1,5.9,1c1.7,0,3.4-0.2,5-0.6C290.2,201.7,293.5,199.9,296,197.4 M296,193.3
					c-1.1,0-2.2,0.5-2.9,1.2c-2,2-4.6,3.4-7.4,4.1c-1.3,0.3-2.7,0.5-4,0.5c-1.5,0-3-0.2-4.5-0.8c-0.4-0.2-0.9-0.3-1.4-0.2
					c-2.2,0-4.1,1.8-4.1,4.1c0,0.3,0,0.7,0.1,1l0.1,0.6l-13.9,24.1c-0.9,1.4-1.5,3-1.9,4.6c0,0.1,0,0.2-0.1,0.3l-6.7,28l-0.1,0.2
					c-0.1,0.2-0.1,0.5-0.1,0.7c0,0,0,0.1,0,0.1c-0.8,4.8,2.4,9.3,7.2,10.1c4,0.7,8-1.5,9.6-5.3l0.1-0.3c0.1-0.3,0.2-0.6,0.3-0.8
					c0-0.1,0.1-0.3,0.1-0.4l7.8-26.9l10-15.2l5.3,17.5c0,0.1,0.1,0.2,0.1,0.3l0,0l9,25.3c0,0.1,0.1,0.2,0.1,0.3
					c1.3,3.4,4.6,5.6,8.2,5.6c4.9,0,8.8-3.9,8.8-8.8c0-0.9-0.1-1.8-0.4-2.7l-7.6-24.7l-2.5-12.5l-0.1-0.2l-4.8-24.2
					c0-0.1,0-0.2,0-0.3v-0.2v-0.1l-0.4-2c-0.3-1.4-1.4-2.6-2.9-3c-0.4-0.1-0.7-0.1-1.1-0.1L296,193.3z"/>
				<path class="st2" d="M286,199.9c3.7-0.8,7-2.9,9.3-5.9l-3.1-14c-0.1-0.8,0.4-1.6,1.2-1.7c0.4-0.1,0.7,0,1,0.2
					c0,0,5.4,2.4,6.7,2.8c0.2,0.5,1.4,22.9,1.4,22.9c0.4,2.6,2.8,4.4,5.3,4c0.1,0,0.1,0,0.2,0c2.6-0.6,4.3-3.1,3.9-5.7l-1.5-22.9
					c-0.1-2.6-1.5-4.9-3.6-6.3c-2-1.4-20.3-12.2-24.9-11.5c-1.4,1.7-3.2,2.9-5.3,3.4c-1.6,0.5-3.3,0.5-5,0.2h-0.5
					c-1.3,0.1-3.7,2.8-4.6,4.5l-2.1,5l0,0l-4.8,11.1l-17.1,7.6l-0.2,0.1l-0.3,0.1H242l0,0c-2.3,1.2-3.2,4.1-1.9,6.4
					c1.2,2.1,3.7,3.1,6,2.2c0.1,0,0.2-0.1,0.3-0.1l0,0l18.1-7l0,0l0.1-0.1h0.1l0,0c1.9-1,3.5-2.7,4.4-4.7l0,0v-0.1
					c0.3-0.6,0.5-1.1,0.7-1.6l1.4-3.1c0-0.1,0.1-0.1,0.2-0.1c0.1,0,0.2,0.1,0.2,0.2l3.4,13C278.3,200.5,282.3,201,286,199.9z"/>
				<path class="st2" d="M265.2,156.2c1,3.9,4.5,6.7,8.6,6.8c0.7,0,1.4-0.1,2.1-0.3c4.5-1.3,7.1-6.3,5.8-11.1l-1.2-4.4
					c-1-3.9-4.5-6.7-8.6-6.8c-0.7,0-1.4,0.1-2.1,0.3c-4.5,1.3-7.1,6.3-5.8,11.1L265.2,156.2z"/>
				<path class="st2" d="M150.5,220.3h95.4v9.6c0.1,2.5-1.9,4.6-4.4,4.6c0,0,0,0,0,0h-86.5c-2.5,0-4.5-2.1-4.4-4.6c0,0,0,0,0,0
					V220.3z"/>
				<path class="st2" d="M236.9,216.8v-24c0-3-2.8-5.4-6.2-5.4h-65c-3.4,0-6.2,2.4-6.2,5.4v24"/>
				<path class="st2" d="M243,228.8c-1.6,0-2.9-1.3-2.9-2.9v-14.7c-0.1-1.6,1.1-3,2.7-3s3,1.1,3,2.7c0,0.1,0,0.2,0,0.3v14.7
					C245.9,227.5,244.6,228.8,243,228.8C243,228.8,243,228.8,243,228.8z"/>
				<path class="st2" d="M153.4,228.8c-1.6,0-2.9-1.3-2.9-2.9v-14.7c-0.1-1.6,1.1-3,2.7-3s3,1.1,3,2.7c0,0.1,0,0.2,0,0.3v14.7
					C156.3,227.5,155,228.8,153.4,228.8C153.4,228.8,153.4,228.8,153.4,228.8z"/>
				<path class="st2" d="M237.4,256c-1.5,0-2.7-1.2-2.7-2.7v-14.8c0-1.5,1.2-2.7,2.7-2.7c1.5,0,2.7,1.2,2.7,2.7v14.8
					C240.1,254.9,238.9,256,237.4,256z"/>
				<path class="st2" d="M158.8,256c-1.5,0-2.7-1.2-2.7-2.7v0v-14.7c0-1.5,1.2-2.7,2.7-2.7c1.5,0,2.7,1.2,2.7,2.7v14.8
					C161.5,254.9,160.3,256,158.8,256z"/>
			</g>
		</g>
	</g>
</g>
</svg>
