<?xml version="1.0" encoding="utf-8"?>
<!-- Generator: Adobe Illustrator 26.0.1, SVG Export Plug-In . SVG Version: 6.00 Build 0)  -->
<svg version="1.1" xmlns="http://www.w3.org/2000/svg" xmlns:xlink="http://www.w3.org/1999/xlink" x="0px" y="0px"
	 viewBox="0 0 414 576" style="enable-background:new 0 0 414 576;" xml:space="preserve">
<style type="text/css">
	.st0{filter:url(#blur);}
	.st1{fill:#26A7BD;}
	.st2{fill:#FFFFFF;}
</style>
<filter  id="blur">
	<feGaussianBlur  stdDeviation="10"></feGaussianBlur>
</filter>
<g id="Layer_2">
	<g class="st0">
		<g id="Layer_1_00000109734225052029025400000004896718912509458336_">
			<g id="Wayfinding_Signage_00000090988917568497532050000018086926561370431618_">
				<path d="M376.2,205.5c0,27.9-7,55.4-20.4,79.9L209.7,536.2c-1.4,2.5-3.8,2.5-5.3,0l-146-250.5c-13.5-24.6-20.6-52.2-20.6-80.2
					c0-6.7,0.4-13.4,1.2-20c10.1-84.2,82.4-147.6,168-147.6s157.9,63.4,168,147.5C375.8,192.1,376.2,198.8,376.2,205.5z"/>
			</g>
		</g>
	</g>
</g>
<g id="Layer_1">
	<g>
		<g id="Layer_1_00000179624261269191200800000006270991150228329905_">
			<g id="Roundabout">
				<path class="st1" d="M376.2,205.5c0,27.9-7,55.4-20.4,79.9L209.7,536.2c-1.5,2.5-3.8,2.5-5.3,0l-146-250.5
					c-13.5-24.6-20.6-52.2-20.6-80.2c0-6.7,0.4-13.4,1.2-20c10.1-84.2,82.3-147.6,168-147.6s157.9,63.4,168,147.5
					C375.8,192.1,376.2,198.8,376.2,205.5z"/>
				<path class="st2" d="M215.1,346.8h-15.8V309c0.1-13.2,9.5-24.6,22.4-27.2c39.3-8,64.6-46.4,56.6-85.7
					c-8-39.3-46.4-64.6-85.7-56.6c-39.3,8-64.6,46.4-56.6,85.7c2.3,11.1,7.1,21.5,14.1,30.4l-12.4,9.7
					c-30.2-38.3-23.6-93.9,14.8-124.1s93.9-23.6,124.1,14.8s23.6,93.9-14.8,124.1c-10.8,8.5-23.5,14.4-37,17.2
					c-5.7,1.1-9.8,6-9.8,11.7V346.8z"/>
				<polygon class="st2" points="243.3,91 243.3,110.7 214.6,81.6 214.6,125.9 199.9,125.9 199.9,81.6 171.1,110.7 171.1,91 
					207.2,54.9 				"/>
				<polygon class="st2" points="289.2,300.5 272.5,290.1 312.4,281.1 274.7,257.6 282.5,245.1 320.2,268.6 310.6,228.8 
					327.3,239.2 338.9,288.9 				"/>
				<polygon class="st2" points="105.7,267.2 96.8,249.7 135.6,262.6 148.7,255.8 161.1,216.8 170,234.3 154.3,282.9 				"/>
				<circle class="st2" cx="207.2" cy="208.7" r="32.8"/>
			</g>
		</g>
	</g>
</g>
</svg>
