<svg id="Layer_1" data-name="Layer 1" xmlns="http://www.w3.org/2000/svg" viewBox="0 0 71.83 12.39"><defs><style>.cls-1{fill:#3774d6;}.cls-2{fill:#fff;}</style></defs><rect class="cls-1" width="71.83" height="12.39" rx="2.46"/><path class="cls-2" d="M8.29,3.89l-.51.51A1.6,1.6,0,0,0,6.61,4c-.63,0-1,.35-1,.83a.63.63,0,0,0,.2.5,1,1,0,0,0,.58.23l.64.1a1.75,1.75,0,0,1,1,.4,1.4,1.4,0,0,1,.44,1.09c0,1-.79,1.56-1.92,1.56A2.39,2.39,0,0,1,4.68,8l.53-.53A1.78,1.78,0,0,0,6.58,8c.7,0,1.1-.29,1.1-.82a.68.68,0,0,0-.21-.55,1.11,1.11,0,0,0-.59-.23l-.62-.09a1.81,1.81,0,0,1-1-.42,1.33,1.33,0,0,1-.39-1A1.57,1.57,0,0,1,6.64,3.29,2.23,2.23,0,0,1,8.29,3.89Z"/><path class="cls-2" d="M10,7C10,7.64,10.37,8,11,8a1.15,1.15,0,0,0,.92-.38l.49.45A1.78,1.78,0,0,1,11,8.7c-1,0-1.71-.5-1.71-1.94,0-1.24.64-1.94,1.61-1.94s1.61.73,1.61,1.84V7Zm1.6-1a.79.79,0,0,0-.75-.48.78.78,0,0,0-.75.48,1.1,1.1,0,0,0-.1.51h1.7A1.25,1.25,0,0,0,11.63,5.94Z"/><path class="cls-2" d="M14.06,7A.93.93,0,0,0,15,8,1.16,1.16,0,0,0,16,7.66l.48.45A1.76,1.76,0,0,1,15,8.7c-.95,0-1.7-.5-1.7-1.94,0-1.24.63-1.94,1.61-1.94s1.6.73,1.6,1.84V7Zm1.6-1a.76.76,0,0,0-.74-.48.79.79,0,0,0-.76.48,1.25,1.25,0,0,0-.1.51h1.71A1.24,1.24,0,0,0,15.66,5.94Z"/><path class="cls-2" d="M22,5.25l-.48.48a1.45,1.45,0,0,0-.94-.27c-.46,0-.68.19-.68.48s.14.4.52.44l.53,0c.78.07,1.2.41,1.2,1.08s-.68,1.2-1.58,1.2A2.07,2.07,0,0,1,19,8.16l.5-.5a1.46,1.46,0,0,0,1.09.39c.47,0,.83-.16.83-.52s-.14-.41-.51-.45l-.61,0c-.71-.07-1.12-.38-1.12-1s.64-1.16,1.43-1.16A2.07,2.07,0,0,1,22,5.25Z"/><path class="cls-2" d="M23.85,4.87h.74v.58h-.74V7.57a.39.39,0,0,0,.42.44h.32v.65h-.46a1,1,0,0,1-1-1.06V5.45h-.43V4.87h.43V3.78h.76Z"/><path class="cls-2" d="M28.31,6.12V8.66h-.75V8.31a1.24,1.24,0,0,1-1,.39,1.37,1.37,0,0,1-1-.34,1.18,1.18,0,0,1-.3-.82c0-.63.45-1.09,1.32-1.09h1V6.18c0-.48-.24-.71-.83-.71a.9.9,0,0,0-.83.38l-.5-.47a1.54,1.54,0,0,1,1.36-.56C27.79,4.82,28.31,5.27,28.31,6.12ZM26.67,7c-.46,0-.69.2-.69.55s.21.54.71.54a.9.9,0,0,0,.69-.22.72.72,0,0,0,.17-.56V7Z"/><path class="cls-2" d="M30.33,4.87h.73v.58h-.73V7.57a.39.39,0,0,0,.42.44h.31v.65h-.45a1,1,0,0,1-1-1.06V5.45h-.43V4.87h.43V3.78h.76Z"/><path class="cls-2" d="M32.82,4.12H32V3.31h.81Zm0,4.54H32V4.87h.77Z"/><path class="cls-2" d="M36.54,5.27A2,2,0,0,1,37,6.76a2,2,0,0,1-.45,1.49,1.5,1.5,0,0,1-1.13.45,1.48,1.48,0,0,1-1.13-.45,2,2,0,0,1-.45-1.49,2,2,0,0,1,.45-1.49,1.52,1.52,0,0,1,1.13-.45A1.53,1.53,0,0,1,36.54,5.27Zm-1.69.45a1.48,1.48,0,0,0-.26,1,1.48,1.48,0,0,0,.26,1,.77.77,0,0,0,.56.22A.8.8,0,0,0,36,7.8a1.48,1.48,0,0,0,.26-1,1.48,1.48,0,0,0-.26-1,.8.8,0,0,0-.56-.22A.77.77,0,0,0,34.85,5.72Z"/><path class="cls-2" d="M40.71,5.17a1.39,1.39,0,0,1,.38,1.07V8.66h-.76V6.35a.74.74,0,0,0-.76-.85.76.76,0,0,0-.79.85V8.66H38V4.87h.75v.38a1.34,1.34,0,0,1,1-.43A1.28,1.28,0,0,1,40.71,5.17Z"/><path class="cls-2" d="M47,8.66h-.75V8.25a1.15,1.15,0,0,1-1,.45,1.3,1.3,0,0,1-.93-.33,2.3,2.3,0,0,1-.42-1.6,2.31,2.31,0,0,1,.42-1.61,1.28,1.28,0,0,1,.92-.34,1.16,1.16,0,0,1,1,.44V3.33H47ZM44.64,6.77c0,.67.1,1.25.79,1.25s.79-.58.79-1.25-.1-1.27-.79-1.27S44.64,6.09,44.64,6.77Z"/><path class="cls-2" d="M48.75,7a.93.93,0,0,0,1,1.06,1.16,1.16,0,0,0,.92-.38l.48.45a1.77,1.77,0,0,1-1.42.59c-1,0-1.7-.5-1.7-1.94,0-1.24.63-1.94,1.6-1.94s1.61.73,1.61,1.84V7Zm1.6-1a.83.83,0,0,0-1.5,0,1.1,1.1,0,0,0-.1.51h1.71A1.24,1.24,0,0,0,50.35,5.94Z"/><path class="cls-2" d="M53.08,4.87h.73v.58h-.73V7.57c0,.28.13.44.42.44h.31v.65h-.46a1,1,0,0,1-1-1.06V5.45h-.43V4.87h.43V3.78h.77Z"/><path class="cls-2" d="M57.53,6.12V8.66h-.75V8.31a1.22,1.22,0,0,1-1,.39,1.33,1.33,0,0,1-1-.34,1.13,1.13,0,0,1-.3-.82c0-.63.44-1.09,1.31-1.09h1V6.18c0-.48-.23-.71-.83-.71a.93.93,0,0,0-.83.38l-.49-.47A1.52,1.52,0,0,1,56,4.82C57,4.82,57.53,5.27,57.53,6.12ZM55.89,7c-.46,0-.69.2-.69.55s.22.54.72.54a.91.91,0,0,0,.69-.22.77.77,0,0,0,.16-.56V7Z"/><path class="cls-2" d="M59.49,4.12h-.81V3.31h.81Zm0,4.54H58.7V4.87h.77Z"/><path class="cls-2" d="M61.42,7.44c0,.4.1.54.41.54h.33v.68h-.42c-.73,0-1.09-.41-1.09-1.18V3.33h.77Z"/><path class="cls-2" d="M65.65,5.25l-.47.48a1.45,1.45,0,0,0-.94-.27c-.46,0-.69.19-.69.48s.15.4.53.44l.53,0c.78.07,1.19.41,1.19,1.08s-.67,1.2-1.57,1.2a2.11,2.11,0,0,1-1.6-.54l.5-.5a1.5,1.5,0,0,0,1.1.39c.47,0,.83-.16.83-.52s-.15-.41-.51-.45l-.61,0c-.72-.07-1.12-.38-1.12-1s.64-1.16,1.43-1.16A2,2,0,0,1,65.65,5.25Z"/><path class="cls-2" d="M67.62,8.66h-.91V7.75h.91Z"/></svg>