<?xml version="1.0" encoding="utf-8"?>
<!-- Generator: Adobe Illustrator 26.0.1, SVG Export Plug-In . SVG Version: 6.00 Build 0)  -->
<svg version="1.1" xmlns="http://www.w3.org/2000/svg" xmlns:xlink="http://www.w3.org/1999/xlink" x="0px" y="0px"
	 viewBox="0 0 414 576" width="75px" height="111px" style="enable-background:new 0 0 414 576;" xml:space="preserve">
<style type="text/css">
	.st0{filter:url(#blur);}
	.st1{fill:#26A7BD;}
	.st2{fill:#FFFFFF;}
</style>
<filter  id="blur">
	<feGaussianBlur  stdDeviation="10"></feGaussianBlur>
</filter>
<g id="Layer_2">
	<g class="st0">
		<g id="Layer_1_00000178171891164149462500000009419106005109273752_">
			<g id="Wayfinding_Signage_00000012445031170715759100000007405320595404302465_">
				<path d="M376.2,205.5c0,27.9-7,55.4-20.4,79.9L209.7,536.2c-1.4,2.5-3.8,2.5-5.3,0l-146-250.5c-13.5-24.6-20.6-52.2-20.6-80.2
					c0-6.7,0.4-13.4,1.2-20c10.1-84.2,82.4-147.6,168-147.6s157.9,63.4,168,147.5C375.8,192.1,376.2,198.8,376.2,205.5z"/>
			</g>
		</g>
	</g>
</g>
<g id="Layer_1">
	<g>
		<g id="Layer_1_00000121983838945209470760000003251514664366865332_">
			<g id="Shade_Structure">
				<path class="st1" d="M376.2,205.5c0,27.9-7,55.4-20.4,79.9L209.7,536.2c-1.4,2.5-3.8,2.5-5.3,0l-146-250.5
					c-13.5-24.6-20.6-52.2-20.6-80.2c0-6.7,0.4-13.4,1.2-20c10.1-84.2,82.4-147.6,168-147.6s157.9,63.4,168,147.6
					C375.8,192.1,376.2,198.8,376.2,205.5z"/>
				<path class="st2" d="M245.5,332.7c-4.3,0-7.9-3.5-7.9-7.9V188.8l-110.9-23.7c-4.3-0.8-7.1-5-6.2-9.2c0.8-4.3,5-7.1,9.2-6.2
					c0.1,0,0.2,0,0.3,0.1l123.4,26.4v148.8C253.4,329.2,249.9,332.7,245.5,332.7z"/>
				<path class="st2" d="M203.4,302.2l-2.6-12.7l0,0l-4.9-24.5l0,0v-0.2l0,0l-0.4-2c-2.6,2.6-5.8,4.4-9.4,5.2
					c-1.6,0.4-3.3,0.6-5,0.6c-2,0-4-0.3-5.9-1l0.6,2.2l-14.7,25.7c-0.7,1.1-1.2,2.4-1.5,3.7l0,0l-6.7,28.1c0,0,0,0.1,0,0.1
					s-0.1,0.3-0.1,0.4l0,0c-0.4,2.6,1.3,5,3.9,5.5c2.2,0.4,4.4-0.9,5.2-2.9l0,0l0,0c0.1-0.2,0.1-0.3,0.2-0.5s0-0.2,0.1-0.3l8-27.7
					l0,0l14.1-21.4l0,0c0.1-0.3,0.4-0.5,0.8-0.5c0.3,0,0.6,0.2,0.7,0.4l7.4,24.3l0,0l0.1,0.2l9,25.3l0,0c1,2.4,3.7,3.6,6.2,2.7
					c2.3-0.9,3.5-3.3,2.8-5.7L203.4,302.2z"/>
				<path class="st2" d="M185.4,265.2c3.7-0.8,7-2.9,9.3-5.9l-3.1-14c-0.1-0.8,0.4-1.6,1.2-1.7c0.4-0.1,0.7,0,1,0.2
					c0,0,5.4,2.4,6.7,2.8c0.2,0.5,1.4,22.9,1.4,22.9c0.3,2.6,2.7,4.4,5.3,4.1c0.1,0,0.2,0,0.2,0c2.6-0.6,4.3-3.1,3.9-5.7l-1.5-22.9
					c-0.1-2.6-1.5-4.9-3.6-6.3c-2-1.4-20.3-12.2-24.9-11.5c-1.4,1.7-3.2,2.9-5.3,3.4c-0.9,0.3-1.9,0.4-2.8,0.4
					c-0.7,0-1.5-0.1-2.2-0.2h-0.5c-1.3,0.1-3.7,2.8-4.6,4.5l-2.1,5l0,0l-4.9,11.2l-17.1,7.5l-0.1,0.1l-0.3,0.1h-0.1l0,0
					c-2.3,1.2-3.2,4.1-2,6.4c1.1,2.2,3.8,3.1,6.1,2.2l0.2-0.1l0,0l18.1-7l0,0h0.1h0.1l0,0c1.9-1,3.5-2.7,4.4-4.7l0,0v-0.1
					c0.3-0.6,0.5-1.1,0.7-1.6l1.4-3.1c0-0.1,0.1-0.1,0.2-0.1c0.1,0,0.2,0.1,0.2,0.2l3.4,13C177.7,265.9,181.7,266.3,185.4,265.2z"/>
				<path class="st2" d="M164.6,221.5c1,3.9,4.5,6.7,8.6,6.8c0.7,0,1.4-0.1,2.1-0.3c4.5-1.3,7.1-6.3,5.8-11.1l-1.2-4.4
					c-1-3.9-4.5-6.7-8.6-6.8c-0.7,0-1.4,0.1-2.1,0.3c-4.5,1.3-7.1,6.3-5.8,11.1L164.6,221.5z"/>
				<path class="st2" d="M245.5,190.3c-4.4,0-7.9-3.6-7.8-7.9c0-3.2,1.9-6,4.8-7.2l41.4-17.1c3.9-1.9,8.6-0.2,10.5,3.7
					s0.2,8.6-3.7,10.5c-0.2,0.1-0.5,0.2-0.8,0.3l-41.4,17.1C247.6,190.1,246.5,190.3,245.5,190.3z"/>
				<path class="st2" d="M185.2,103.7c0.1-13.1,10.8-23.7,23.9-23.6c13.1,0.1,23.7,10.8,23.6,23.9c-0.1,13.1-10.7,23.6-23.8,23.6
					C195.8,127.5,185.2,116.8,185.2,103.7z"/>
				<path class="st2" d="M208.9,56.6h0.1c1.8,0,3.2,1.4,3.2,3.2v8.8c0,1.8-1.4,3.2-3.2,3.2h-0.1c-1.8,0-3.2-1.4-3.2-3.2v-8.8
					C205.7,58,207.1,56.6,208.9,56.6z"/>
				<path class="st2" d="M175.3,70.6L175.3,70.6c1.3-1.3,3.3-1.3,4.6,0l6.2,6.2c1.3,1.3,1.3,3.3,0,4.6l0,0c-1.3,1.3-3.3,1.3-4.6,0
					l-6.2-6.2C174,73.9,174,71.8,175.3,70.6z"/>
				<path class="st2" d="M164.6,101h8.8c1.8,0,3.2,1.4,3.2,3.2v0.1c0,1.8-1.4,3.2-3.2,3.2h-8.8c-1.8,0-3.2-1.4-3.2-3.2v-0.1
					C161.4,102.4,162.8,101,164.6,101z"/>
				<path class="st2" d="M175.3,133.3l6.2-6.2c1.3-1.3,3.3-1.3,4.6,0l0,0c1.3,1.3,1.3,3.3,0,4.6l-6.2,6.2c-1.3,1.3-3.3,1.3-4.6,0
					l0,0C174,136.6,174,134.5,175.3,133.3z"/>
				<path class="st2" d="M208.9,136.6h0.1c1.8,0,3.2,1.4,3.2,3.2v8.8c0,1.8-1.4,3.2-3.2,3.2h-0.1c-1.8,0-3.2-1.4-3.2-3.2v-8.8
					C205.7,138,207.2,136.6,208.9,136.6z"/>
				<path class="st2" d="M231.8,127.1L231.8,127.1c1.3-1.3,3.3-1.3,4.6,0l6.2,6.2c1.3,1.3,1.3,3.3,0,4.6l0,0c-1.3,1.3-3.3,1.3-4.6,0
					l-6.2-6.2C230.6,130.4,230.6,128.3,231.8,127.1z"/>
				<path class="st2" d="M244.5,101h8.8c1.8,0,3.2,1.4,3.2,3.2v0.1c0,1.8-1.4,3.2-3.2,3.2h-8.8c-1.8,0-3.2-1.4-3.2-3.2v-0.1
					C241.3,102.4,242.8,101,244.5,101z"/>
				<path class="st2" d="M231.9,76.7l6.2-6.2c1.3-1.3,3.3-1.3,4.6,0l0,0c1.3,1.3,1.3,3.3,0,4.6l-6.2,6.2c-1.3,1.3-3.3,1.3-4.6,0l0,0
					C230.6,80.1,230.6,78,231.9,76.7z"/>
			</g>
		</g>
	</g>
</g>
</svg>
