<?xml version="1.0" encoding="utf-8"?>
<!-- Generator: Adobe Illustrator 26.0.1, SVG Export Plug-In . SVG Version: 6.00 Build 0)  -->
<svg version="1.1" xmlns="http://www.w3.org/2000/svg" xmlns:xlink="http://www.w3.org/1999/xlink" x="0px" y="0px"
	 viewBox="0 0 414 576" style="enable-background:new 0 0 414 576;" xml:space="preserve">
<style type="text/css">
	.st0{filter:url(#blur);}
	.st1{fill:#26A7BD;}
	.st2{fill:#FFFFFF;}
</style>
<filter  id="blur">
	<feGaussianBlur  stdDeviation="10"></feGaussianBlur>
</filter>
<g id="Layer_2">
	<g class="st0">
		<g id="Layer_1_00000105384830717862046460000014793719749562942655_">
			<g id="Wayfinding_Signage_00000088820826604474105890000013731704337165768113_">
				<path d="M376.2,205.5c0,27.9-7,55.4-20.4,79.9L209.7,536.2c-1.4,2.5-3.8,2.5-5.3,0l-146-250.5c-13.5-24.6-20.6-52.2-20.6-80.2
					c0-6.7,0.4-13.4,1.2-20c10.1-84.2,82.4-147.6,168-147.6s157.9,63.4,168,147.5C375.8,192.1,376.2,198.8,376.2,205.5z"/>
			</g>
		</g>
	</g>
</g>
<g id="Layer_1">
	<g>
		<g id="Layer_1_00000036965975588054189270000011187816035510688912_">
			<g id="Short_Term_Bicycle_Parking">
				<path class="st1" d="M376.2,205.5c0,27.9-7,55.4-20.4,80L209.7,536.2c-1.4,2.5-3.8,2.5-5.3,0l-146-250.5
					c-13.5-24.6-20.6-52.2-20.6-80.2c0-6.7,0.4-13.4,1.2-20c10.1-84.2,82.3-147.6,168-147.6s157.9,63.5,168,147.6
					C375.8,192.1,376.2,198.8,376.2,205.5z"/>
				<path class="st2" d="M274.3,212.5c-23.7,0-43-19.2-43-42.9c0-23.7,19.2-43,42.9-43c23.7,0,43,19.2,43,42.9c0,0,0,0,0,0
					C317.1,193.2,297.9,212.4,274.3,212.5z M274.3,134.2c-19.5,0-35.4,15.8-35.4,35.3s15.8,35.4,35.3,35.4s35.4-15.8,35.4-35.3
					c0,0,0,0,0,0C309.6,150.1,293.8,134.2,274.3,134.2L274.3,134.2z"/>
				<path class="st2" d="M139.8,212.5c-23.7,0-42.9-19.2-43-42.9c0-23.7,19.2-42.9,42.9-43c23.7,0,42.9,19.2,43,42.9c0,0,0,0,0,0
					C182.7,193.2,163.5,212.5,139.8,212.5z M139.8,134.2c-19.5,0-35.4,15.8-35.4,35.3s15.8,35.4,35.3,35.4s35.4-15.8,35.4-35.3
					c0,0,0,0,0,0C175.1,150.1,159.3,134.2,139.8,134.2L139.8,134.2z"/>
				<path class="st2" d="M195.8,173.3h-56c-2.1,0-3.8-1.7-3.8-3.8c0-0.7,0.2-1.5,0.6-2.1l38-57c0.7-1.1,1.9-1.7,3.2-1.7h70.9
					c2.1,0.1,3.7,1.9,3.6,4c-0.1,1.9-1.7,3.5-3.6,3.6h-68.9l-32.9,49.4h48.9c2.1,0.1,3.7,1.9,3.6,4
					C199.3,171.7,197.7,173.2,195.8,173.3L195.8,173.3z"/>
				<path class="st2" d="M216.1,163.9c-0.9,0-1.7-0.3-2.4-0.9c-1.6-1.3-1.9-3.7-0.5-5.3c0,0,0,0,0,0l34.5-41.9
					c1.3-1.6,3.7-1.8,5.3-0.5c1.6,1.3,1.8,3.7,0.5,5.3L219,162.5C218.3,163.4,217.2,163.9,216.1,163.9z"/>
				<path class="st2" d="M202.4,162.3c-1.4,0-2.7-0.8-3.4-2l-29.9-55.7c-1-1.8-0.3-4.1,1.5-5.1s4.1-0.3,5.1,1.5l29.9,55.7
					c1,1.8,0.3,4.1-1.5,5.1C203.7,162.1,203.1,162.3,202.4,162.3L202.4,162.3z"/>
				<path class="st2" d="M274.3,173.3c-1.5,0-2.9-0.9-3.5-2.2l-33-73.7c-1.6-3.6-2.4-5.3-3.3-5.8c-1.2-0.6-4.6-0.6-9.7-0.6
					c-2.1-0.1-3.7-1.9-3.6-4c0.1-1.9,1.7-3.5,3.6-3.6c13.3,0,15.2,0.4,19.9,10.9l33,73.7c0.9,1.9,0,4.1-1.9,5c0,0,0,0,0,0
					C275.3,173.2,274.8,173.3,274.3,173.3z"/>
				<path class="st2" d="M158,90.6c0.6-0.1,1.2-0.2,1.9-0.2c4.3,0,8.1,2.2,14.1,2.7c3.5,0.3,6.6,0.2,8.9,0.5c1,0.1,2.1,0.3,3,0.8
					c0.9,0.5,1.5,1.3,1.7,2.3c0,0.2,0.1,0.4,0.1,0.6c0,0.9-0.4,1.8-1.2,2.4c-2.1,1.8-6.1,2.4-11.2,3.3c-3.4,0.6-5.8,1.8-8.9,1.8l0,0
					c-2.3,0-5-0.7-8.6-2.6c-3.4-1.8-5.1-4.2-5.2-6.5C152.5,93.1,154.7,91.1,158,90.6"/>
				<path class="st2" d="M207.1,197.2h-13.2c-2.1-0.1-3.7-1.9-3.6-4c0.1-1.9,1.7-3.5,3.6-3.6h13.2c2.1,0.1,3.7,1.9,3.6,4
					C210.6,195.5,209.1,197.1,207.1,197.2z"/>
				<path class="st2" d="M209.8,162c-0.2,0-0.4,0-0.6,0c-2.1-0.3-3.5-2.3-3.2-4.3c0,0,0,0,0,0l1.8-11.4c0.3-2.1,2.2-3.5,4.3-3.2
					c2.1,0.3,3.5,2.2,3.2,4.3l0,0l-1.8,11.3C213.2,160.7,211.6,162,209.8,162z"/>
				<path class="st2" d="M221.6,147.7h-13.2c-2.1,0-3.8-1.7-3.8-3.8c0-2.1,1.7-3.8,3.8-3.8h13.2c2.1,0,3.8,1.7,3.8,3.8
					C225.4,146,223.7,147.7,221.6,147.7z"/>
				<path class="st2" d="M208.3,184.7c-8.4,0-15.2-6.8-15.2-15.2s6.8-15.2,15.2-15.2s15.2,6.8,15.2,15.2c0,0,0,0,0,0
					C223.5,177.9,216.7,184.7,208.3,184.7z M208.3,162c-4.2,0-7.6,3.4-7.6,7.6c0,4.2,3.4,7.6,7.6,7.6c4.2,0,7.6-3.4,7.6-7.6
					c0,0,0,0,0,0C215.9,165.4,212.5,162,208.3,162z"/>
				<path class="st2" d="M204.6,195c-0.2,0-0.4,0-0.6,0c-2.1-0.3-3.5-2.3-3.2-4.3l3.4-22.2c0.3-2.1,2.3-3.5,4.3-3.2s3.5,2.3,3.2,4.3
					l-3.4,22.1C208.1,193.6,206.5,195,204.6,195z"/>
				<path class="st2" d="M247.8,325.2h-55.8v-10.7h55.8c16.1,0,29.1-14.6,29.1-32.6s-13.1-32.6-29.1-32.6h-55.8v-10.7h55.8
					c21.9,0,39.8,19.4,39.8,43.3S269.7,325.2,247.8,325.2z"/>
				<path class="st2" d="M174.3,224h-7.5c-6.5,0-11.8,5.3-11.8,11.8v0v91.8c0,6.5,5.3,11.8,11.8,11.8h7.5c6.5,0,11.8-5.3,11.8-11.8
					c0,0,0,0,0,0v-91.8C186.1,229.3,180.8,224,174.3,224L174.3,224z M170.5,327c-4,0-7.2-3.2-7.2-7.2c0-4,3.2-7.2,7.2-7.2
					c4,0,7.2,3.2,7.2,7.2c0,0,0,0,0,0C177.7,323.8,174.5,327,170.5,327L170.5,327z"/>
			</g>
		</g>
	</g>
</g>
</svg>
