<?xml version="1.0" encoding="utf-8"?>
<!-- Generator: Adobe Illustrator 26.0.1, SVG Export Plug-In . SVG Version: 6.00 Build 0)  -->
<svg version="1.1" xmlns="http://www.w3.org/2000/svg" xmlns:xlink="http://www.w3.org/1999/xlink" x="0px" y="0px"
	 viewBox="0 0 414 576" width="75px" height="111px" style="enable-background:new 0 0 414 576;" xml:space="preserve">
<style type="text/css">
	.st0{filter:url(#blur);}
	.st1{fill:#26A7BD;}
	.st2{fill:#FFFFFF;}
	.st3{fill:none;}
</style>
<filter  id="blur">
	<feGaussianBlur  stdDeviation="10"></feGaussianBlur>
</filter>
<g id="Layer_2">
	<g class="st0">
		<g id="Layer_1_00000119093670211570882350000007898768586188147127_">
			<g id="Wayfinding_Signage_00000116223126724092668310000016001867134901506487_">
				<path d="M376.2,205.5c0,27.9-7,55.4-20.4,79.9L209.7,536.2c-1.4,2.5-3.8,2.5-5.3,0l-146-250.5c-13.5-24.6-20.6-52.2-20.6-80.2
					c0-6.7,0.4-13.4,1.2-20c10.1-84.2,82.4-147.6,168-147.6s157.9,63.4,168,147.5C375.8,192.1,376.2,198.8,376.2,205.5z"/>
			</g>
		</g>
	</g>
</g>
<g id="Layer_1">
	<g>
		<g id="Layer_1_00000082334213958891106040000013084827167199272854_">
			<g id="Signalized_Crossing">
				<path class="st1" d="M376.2,205.5c0,27.9-7,55.4-20.4,79.9L209.7,536.2c-1.5,2.5-3.8,2.5-5.3,0l-146-250.4
					c-13.5-24.6-20.6-52.2-20.6-80.2c0-6.7,0.4-13.4,1.2-20c10.1-84.2,82.3-147.6,168-147.6s157.9,63.4,168,147.5
					C375.8,192.1,376.2,198.8,376.2,205.5z"/>
				<path class="st2" d="M252.8,169.6c-0.8,3.1-3.5,5.3-6.7,5.3c-0.6,0-1.1-0.1-1.7-0.2c-3.6-1.2-5.6-5-4.5-8.7l1-3.4
					c0.8-3.1,3.5-5.3,6.7-5.4c0.6,0,1.1,0.1,1.7,0.2c3.6,1.2,5.6,5,4.5,8.7L252.8,169.6z"/>
				<path class="st2" d="M222.6,232.6l2-9.9l0,0l3.8-19.2l0,0l0.1-0.2l0,0l0.3-1.5c2,2,4.5,3.4,7.3,4.1c1.3,0.3,2.6,0.5,3.9,0.5
					c1.6,0,3.1-0.3,4.6-0.8l-0.4,1.7l11.5,20c0.5,0.9,0.9,1.9,1.2,2.9l0,0l5.2,22v0.1c0,0.1,0,0.2,0.1,0.4l0,0c0.4,2-1,3.9-3,4.3
					c-1.7,0.3-3.5-0.7-4.1-2.3l0,0c0-0.1-0.1-0.3-0.1-0.4s0-0.1-0.1-0.2l-6.2-21.6l0,0l-11-16.7l0,0c-0.1-0.2-0.3-0.4-0.6-0.4
					c-0.2,0-0.4,0.1-0.6,0.3l-5.8,19l0,0v0.1l-7,19.8l0,0c-0.6,1.9-2.7,3-4.7,2.4s-3-2.7-2.4-4.7L222.6,232.6z"/>
				<path class="st2" d="M236.6,203.8c-2.9-0.6-5.5-2.3-7.2-4.6l2.4-11c0-1.1-0.7-1.6-1.8-1.2c0,0-4.2,1.9-5.2,2.2
					c-0.2,0.4-1.1,17.9-1.1,17.9c-0.3,2-2.1,3.5-4.1,3.2c-0.1,0-0.1,0-0.2,0c-2-0.5-3.3-2.4-3.1-4.4l1.2-17.9c0.1-2,1.1-3.9,2.9-4.9
					c1.5-1.1,15.9-9.5,19.4-9c1.1,1.3,2.5,2.2,4.2,2.7c0.7,0.2,1.5,0.3,2.2,0.3c0.6,0,1.1-0.1,1.7-0.2h0.4c1,0.1,2.9,2.2,3.6,3.5
					l1.7,3.9l0,0l3.8,8.7l13.4,5.9l0.1,0.1l0.2,0.1h0.1l0,0c1.8,1,2.5,3.2,1.5,5c-0.9,1.7-2.9,2.4-4.7,1.7l-0.2-0.1l0,0l-14.2-5.5
					l0,0h-0.1h-0.1l0,0c-1.5-0.8-2.7-2.1-3.4-3.7l0,0l0,0c-0.2-0.4-0.4-0.9-0.6-1.3l-1.1-2.5c0-0.1-0.1-0.1-0.2-0.1
					c-0.1,0-0.2,0.1-0.2,0.1l-2.6,10.2C242.6,204.3,239.5,204.6,236.6,203.8z"/>
				<path class="st2" d="M241.1,311.4l0.1,0c2.1,0,3.8,1.7,3.8,3.8l0,21.4c0,2.1-1.7,3.8-3.8,3.8l-0.1,0c-2.1,0-3.8-1.7-3.8-3.8
					l0-21.4C237.3,313.1,239,311.4,241.1,311.4z"/>
				<path class="st2" d="M241.2,341c-2.4,0-4.4-2-4.4-4.4v-21.3c0-2.4,2-4.4,4.4-4.4c0,0,0,0,0,0l0,0c2.4,0,4.4,2,4.4,4.4v21.3
					C245.6,339,243.6,341,241.2,341L241.2,341z M241.2,311.9L241.2,311.9c-1.9,0-3.4,1.5-3.4,3.4v21.3c0,1.9,1.5,3.4,3.3,3.4
					c0,0,0,0,0,0l0,0c0.9,0,1.8-0.4,2.4-1c0.6-0.6,1-1.5,1-2.4v-21.3C244.6,313.4,243,311.9,241.2,311.9L241.2,311.9z"/>
				<path class="st2" d="M272.7,301.1L272.7,301.1c1.7-1.3,4.2-0.9,5.4,0.9l12.5,17.2c1.3,1.7,0.9,4.2-0.8,5.4l0,0
					c-1.7,1.3-4.2,0.9-5.4-0.9l-12.5-17.2C270.6,304.8,271,302.3,272.7,301.1z"/>
				<path class="st2" d="M287.6,325.8c-0.2,0-0.5,0-0.7-0.1c-1.2-0.2-2.2-0.8-2.9-1.8l-12.5-17.2c-0.7-0.9-1-2.1-0.8-3.3
					c0.2-1.2,0.8-2.2,1.8-2.9c2-1.4,4.7-1,6.2,1l12.5,17.2c0.7,0.9,1,2.1,0.8,3.3c-0.2,1.2-0.8,2.2-1.8,2.9
					C289.4,325.5,288.5,325.8,287.6,325.8z M275,300.8c-1.9,0-3.4,1.5-3.4,3.4c0,0.7,0.2,1.4,0.7,2l12.5,17.2
					c1.1,1.5,3.2,1.8,4.7,0.7c0.7-0.5,1.2-1.3,1.3-2.2c0.1-0.9-0.1-1.8-0.6-2.5l-12.5-17.2c-0.5-0.7-1.3-1.2-2.2-1.4
					C275.4,300.8,275.2,300.8,275,300.8z"/>
				<path class="st2" d="M191.6,319.3l12.5-17.2c1.3-1.7,3.7-2.1,5.4-0.9h0c1.7,1.3,2.1,3.7,0.9,5.4l-12.5,17.2
					c-1.3,1.7-3.7,2.1-5.4,0.9l0,0C190.7,323.5,190.3,321,191.6,319.3z"/>
				<path class="st2" d="M194.7,326c-0.9,0-1.8-0.3-2.6-0.8l0,0c-2-1.4-2.4-4.2-1-6.1c0,0,0,0,0,0l12.5-17.2c1.4-2,4.2-2.4,6.2-1
					c2,1.4,2.4,4.2,1,6.1l-12.5,17.2C197.4,325.3,196.1,326,194.7,326z M192.7,324.3c1.5,1.1,3.6,0.8,4.7-0.7c0,0,0,0,0,0l12.5-17.2
					c1.1-1.5,0.8-3.6-0.7-4.7c-1.5-1.1-3.6-0.8-4.7,0.7L192,319.6C190.9,321.1,191.2,323.2,192.7,324.3L192.7,324.3z"/>
				<path class="st2" d="M241,79.1l0.1,0c2.1,0,3.8,1.7,3.8,3.8l0,21.4c0,2.1-1.7,3.8-3.8,3.8l-0.1,0c-2.1,0-3.8-1.7-3.8-3.8l0-21.4
					C237.2,80.8,238.9,79.1,241,79.1z"/>
				<path class="st2" d="M241.1,108.7c-2.4,0-4.4-2-4.4-4.4V83c0-2.4,2-4.4,4.4-4.4l0,0c2.4,0,4.4,2,4.4,4.4v21.3
					C245.5,106.7,243.6,108.7,241.1,108.7L241.1,108.7z M241.1,79.6L241.1,79.6c-1.9,0-3.4,1.5-3.4,3.4c0,0,0,0,0,0v21.3
					c0,0.9,0.4,1.8,1,2.4c0.6,0.6,1.5,1,2.4,1c1.9,0,3.4-1.5,3.4-3.4V83C244.5,81.1,243,79.6,241.1,79.6L241.1,79.6z"/>
				<path class="st2" d="M192.4,95L192.4,95c1.7-1.3,4.2-0.9,5.4,0.9l12.5,17.2c1.3,1.7,0.9,4.2-0.8,5.4l0,0
					c-1.7,1.3-4.2,0.9-5.4-0.9l-12.5-17.2C190.3,98.7,190.7,96.3,192.4,95z"/>
				<path class="st2" d="M207.3,119.8c-1.4,0-2.7-0.7-3.6-1.8l-12.6-17.2c-1.4-2-1-4.7,1-6.2c2-1.4,4.7-1,6.2,1l12.5,17.2
					c1.4,2,1,4.7-1,6.2C209.1,119.5,208.2,119.8,207.3,119.8z M194.7,94.8c-0.7,0-1.4,0.2-2,0.7c-1.5,1.1-1.8,3.2-0.7,4.7l12.5,17.2
					c1.1,1.5,3.2,1.8,4.7,0.7c1.5-1.1,1.8-3.2,0.7-4.7l-12.5-17.2C196.8,95.3,195.8,94.8,194.7,94.8z"/>
				<path class="st2" d="M271.9,113l12.5-17.2c1.3-1.7,3.7-2.1,5.4-0.9l0,0c1.7,1.3,2.1,3.7,0.9,5.4l-12.5,17.2
					c-1.3,1.7-3.7,2.1-5.4,0.9l0,0C271,117.1,270.6,114.7,271.9,113z"/>
				<path class="st2" d="M275.1,119.7c-0.9,0-1.8-0.3-2.6-0.8c-2-1.4-2.4-4.2-1-6.1c0,0,0,0,0,0L284,95.4c1.4-2,4.2-2.4,6.1-1
					s2.4,4.2,1,6.2l0,0l-12.5,17.2C277.8,119,276.5,119.7,275.1,119.7z M287.6,94.7c-0.2,0-0.4,0-0.5,0c-0.9,0.1-1.7,0.6-2.2,1.4
					l-12.5,17.2c-0.5,0.7-0.7,1.6-0.6,2.5c0.3,1.8,2,3.1,3.9,2.8c0.9-0.1,1.7-0.6,2.2-1.4l12.5-17.2c1.1-1.5,0.8-3.6-0.7-4.7
					C288.9,94.8,288.2,94.6,287.6,94.7L287.6,94.7z"/>
				<path class="st2" d="M102.3,243.4V168c0-5.2-4.2-9.4-9.4-9.4c0,0,0,0,0,0h-3.4c-5.2,0-9.4,4.2-9.4,9.4c0,0,0,0,0,0v82.7
					c0,5.2,4.2,9.4,9.4,9.4c0,0,0,0,0,0h3.4c5.2,0,9.4-4.2,9.4-9.4c0,0,0,0,0,0V243.4"/>
				<polyline class="st2" points="101.7,240 120.7,240 120.7,178.6 101.7,178.6 				"/>
				<line class="st3" x1="101.7" y1="178.6" x2="101.7" y2="240"/>
				<path class="st2" d="M275.7,286.3H145.6c-14.8,0-26.7-12-26.8-26.7V159.1c0-14.8,12-26.7,26.8-26.7h130.1
					c14.8,0,26.7,12,26.8,26.7v100.4C302.4,274.3,290.5,286.2,275.7,286.3z M145.6,147.6c-6.3,0-11.5,5.2-11.5,11.5v100.4
					c0,6.3,5.2,11.5,11.5,11.5h130.1c6.4,0,11.5-5.1,11.5-11.5c0,0,0,0,0,0V159.1c0-6.4-5.2-11.5-11.5-11.5H145.6z"/>
			</g>
		</g>
	</g>
</g>
</svg>
