<svg id="Layer_1" data-name="Layer 1" xmlns="http://www.w3.org/2000/svg" viewBox="0 0 31 26.97"><defs><style>.Station-box-10{fill:#231f20;}.cls-1{fill:#fff;}.cls-2{fill:none;stroke:#231f20;stroke-width:2.06px;}</style></defs><rect class="Station-box-10" width="31" height="16.94"/><path class="cls-1" d="M3.37,6.27H5.79V7.2H2.33V1.87h1Z"/><path class="cls-1" d="M9.76,5.14v.41H7.32a.8.8,0,0,0,.85.87A1,1,0,0,0,9,6.05l.6.58a1.82,1.82,0,0,1-1.48.61c-.92,0-1.8-.42-1.8-2,0-1.28.69-2,1.7-2A1.67,1.67,0,0,1,9.76,5.14ZM7.4,4.47a.81.81,0,0,0-.08.42H8.79a.93.93,0,0,0-.08-.42.73.73,0,0,0-1.31,0Z"/><path class="cls-1" d="M11.63,2.64h-1v-.8h1Zm0,4.56h-1V3.41h1Z"/><path class="cls-1" d="M17.79,3.6a1.47,1.47,0,0,1,.42,1.11V7.2h-1V4.84a.65.65,0,1,0-1.3,0V7.2H15V4.84a.65.65,0,1,0-1.29,0V7.2h-1V3.3h1v.36a1.35,1.35,0,0,1,1-.4,1.21,1.21,0,0,1,1,.49,1.46,1.46,0,0,1,1.15-.49A1.4,1.4,0,0,1,17.79,3.6Z"/><path class="cls-1" d="M22.45,5.14v.41H20a.8.8,0,0,0,.86.87,1.07,1.07,0,0,0,.87-.37l.6.58a1.85,1.85,0,0,1-1.48.61c-.93,0-1.8-.42-1.8-2,0-1.28.68-2,1.69-2A1.67,1.67,0,0,1,22.45,5.14ZM20.1,4.47a.93.93,0,0,0-.09.42h1.48a.93.93,0,0,0-.09-.42.72.72,0,0,0-1.3,0Z"/><path class="cls-1" d="M26.19,3.62l-.72.74a.65.65,0,0,0-1.15.49V7.2h-1V3.3h.94v.38a1.3,1.3,0,0,1,1-.42A1.16,1.16,0,0,1,26.19,3.62Z"/><path class="cls-1" d="M27.83,3.41h.69v.74h-.69V6c0,.23.1.35.34.35h.35V7.2H28a1.05,1.05,0,0,1-1.13-1.12V4.15h-.41V3.41h.41V2.26h1Z"/><path class="cls-1" d="M9.87,9.35a1.66,1.66,0,1,1,0,3.32h-1v2h-1V9.35Zm-1,.92v1.47h1a.74.74,0,1,0,0-1.47Z"/><path class="cls-1" d="M15.3,12.1v2.57h-1v-.34a1.21,1.21,0,0,1-1,.38,1.35,1.35,0,0,1-1-.35,1.23,1.23,0,0,1-.32-.87c0-.62.43-1.13,1.35-1.13h.9v-.2c0-.42-.21-.61-.72-.61a.87.87,0,0,0-.75.34l-.61-.61a1.63,1.63,0,0,1,1.4-.55C14.73,10.73,15.3,11.19,15.3,12.1ZM13.58,13c-.39,0-.57.16-.57.45s.18.44.59.44a.74.74,0,0,0,.57-.18c.12-.1.15-.25.15-.5V13Z"/><path class="cls-1" d="M19.19,11.1l-.73.74A.64.64,0,0,0,18,11.6a.66.66,0,0,0-.64.72v2.35h-1v-3.9h.95v.38a1.3,1.3,0,0,1,1-.42A1.13,1.13,0,0,1,19.19,11.1Z"/><path class="cls-1" d="M20.71,12.37l1.3-1.6h1.18l-1.4,1.57,1.5,2.33h-1.2l-1-1.62-.41.46v1.16h-1V9.35h1Z"/><path class="cls-1" d="M11.79,22.23a3.71,3.71,0,1,1,3.71,3.71A3.71,3.71,0,0,1,11.79,22.23Z"/><path class="cls-2" d="M11.79,22.23a3.71,3.71,0,1,1,3.71,3.71A3.71,3.71,0,0,1,11.79,22.23Z"/></svg>