<svg id="Layer_1" data-name="Layer 1" xmlns="http://www.w3.org/2000/svg" viewBox="0 0 40 19.97"><defs><style>.Station-box-10{fill:#231f20;}.cls-1{fill:#fff;}.cls-2{fill:none;stroke:#231f20;stroke-width:2.06px;}</style></defs><rect class="Station-box-10" width="40" height="9.94"/><path class="cls-1" d="M7.46,7.2h-1V5H4.61V7.2h-1V1.87h1V4H6.42V1.87h1Z"/><path class="cls-1" d="M10.07,7.83a1.46,1.46,0,0,1-.29.5,1.12,1.12,0,0,1-.83.3H8.56V7.75h.23a.41.41,0,0,0,.48-.35l.17-.48L8.11,3.3h1l.81,2.41.78-2.41h1Z"/><path class="cls-1" d="M15.38,7.2h-1V6.83a1.16,1.16,0,0,1-1,.41,1.28,1.28,0,0,1-1-.35,2.26,2.26,0,0,1-.41-1.64,2.26,2.26,0,0,1,.41-1.64,1.25,1.25,0,0,1,.94-.35,1.14,1.14,0,0,1,.95.39V1.87h1ZM13.09,5.25c0,.63.07,1.12.65,1.12s.67-.49.67-1.12-.08-1.12-.67-1.12S13.09,4.62,13.09,5.25Z"/><path class="cls-1" d="M19.67,5.14v.41H17.23a.8.8,0,0,0,.85.87A1.08,1.08,0,0,0,19,6.05l.6.58a1.85,1.85,0,0,1-1.48.61c-.93,0-1.8-.42-1.8-2,0-1.27.68-2,1.69-2A1.67,1.67,0,0,1,19.67,5.14Zm-2.36-.67a1.12,1.12,0,0,0-.08.42h1.48a1,1,0,0,0-.09-.42.67.67,0,0,0-.65-.4A.69.69,0,0,0,17.31,4.47Z"/><path class="cls-1" d="M24.44,1.87a1.64,1.64,0,0,1,1.75,1.66,1.63,1.63,0,0,1-1.75,1.66h-1v2h-1V1.87Zm-1,.93V4.27h1a.71.71,0,0,0,.77-.74.7.7,0,0,0-.77-.73Z"/><path class="cls-1" d="M29.86,4.63V7.2h-.95V6.86a1.19,1.19,0,0,1-.95.38,1.34,1.34,0,0,1-1-.35A1.24,1.24,0,0,1,26.64,6c0-.62.43-1.13,1.35-1.13h.9v-.2c0-.42-.21-.61-.72-.61a.86.86,0,0,0-.75.34l-.62-.61a1.64,1.64,0,0,1,1.4-.55C29.3,3.26,29.86,3.72,29.86,4.63Zm-1.71.92c-.39,0-.58.16-.58.45s.19.44.6.44a.76.76,0,0,0,.57-.18.63.63,0,0,0,.15-.5V5.55Z"/><path class="cls-1" d="M33.75,3.62,33,4.36a.65.65,0,0,0-1.15.49V7.2h-1V3.3h.95v.38a1.28,1.28,0,0,1,1-.42A1.14,1.14,0,0,1,33.75,3.62Z"/><path class="cls-1" d="M35.28,4.9l1.29-1.6h1.18l-1.4,1.57L37.86,7.2H36.65l-1-1.62L35.28,6V7.2h-1V1.87h1Z"/><path class="cls-1" d="M16.29,15.23A3.71,3.71,0,1,1,20,18.94,3.71,3.71,0,0,1,16.29,15.23Z"/><path class="cls-2" d="M16.29,15.23A3.71,3.71,0,1,1,20,18.94,3.71,3.71,0,0,1,16.29,15.23Z"/></svg>