<svg id="Layer_1" data-name="Layer 1" xmlns="http://www.w3.org/2000/svg" viewBox="0 0 50.4 9.4"><defs><style>.cls-1{fill:#231f20;}.cls-2{fill:#fff;}</style></defs><polygon class="cls-1" points="0 0 50.4 0 50.4 9.4 0 9.4 0 0 0 0"/><path class="cls-2" d="M8,7.12H6.85l-.31-.94H4.66l-.33.94H3.24l2-5.32H6Zm-3-1.82H6.25L5.6,3.37Z"/><path class="cls-2" d="M10.09,7.12H9.33L7.89,3.22h1l.79,2.41.78-2.41h1Z"/><path class="cls-2" d="M13.07,2.56h-1v-.8h1Zm0,4.56h-1V3.34h1Z"/><path class="cls-2" d="M17.09,4.55V7.12h-.95V6.78a1.19,1.19,0,0,1-1,.38,1.31,1.31,0,0,1-1-.35,1.23,1.23,0,0,1-.32-.87c0-.62.42-1.13,1.34-1.13h.91v-.2c0-.42-.21-.61-.73-.61a.85.85,0,0,0-.74.34L14,3.73a1.63,1.63,0,0,1,1.4-.55C16.53,3.18,17.09,3.64,17.09,4.55Zm-1.71.92c-.39,0-.58.16-.58.45s.19.44.59.44A.78.78,0,0,0,16,6.18a.63.63,0,0,0,.15-.5V5.47Z"/><path class="cls-2" d="M19.2,3.34h.68v.74H19.2V5.94c0,.23.1.36.33.36h.35v.82h-.53A1.05,1.05,0,0,1,18.23,6V4.08h-.42V3.34h.42V2.18h1Z"/><path class="cls-2" d="M21.75,2.56h-1v-.8h1Zm0,4.56h-1V3.34h1Z"/><path class="cls-2" d="M25.51,6.68a1.75,1.75,0,0,1-2.41,0,2,2,0,0,1-.44-1.51,2,2,0,0,1,.44-1.51,1.58,1.58,0,0,1,1.2-.48,1.55,1.55,0,0,1,1.21.48A2,2,0,0,1,26,5.17,1.93,1.93,0,0,1,25.51,6.68Zm-.75-2.46a.64.64,0,0,0-.46-.17.61.61,0,0,0-.45.17,1.35,1.35,0,0,0-.22,1,1.35,1.35,0,0,0,.22,1,.61.61,0,0,0,.45.17.64.64,0,0,0,.46-.17,1.35,1.35,0,0,0,.22-1A1.35,1.35,0,0,0,24.76,4.22Z"/><path class="cls-2" d="M29.72,3.52a1.47,1.47,0,0,1,.4,1.11V7.12h-1V4.76a.62.62,0,0,0-.64-.71.63.63,0,0,0-.65.71V7.12h-1V3.22h.95v.36a1.31,1.31,0,0,1,1-.4A1.25,1.25,0,0,1,29.72,3.52Z"/><path class="cls-2" d="M31.53,7.67h-.92l2.1-6.33h.92Z"/><path class="cls-2" d="M35.28,6.19H37.7v.93H34.25V1.8h1Z"/><path class="cls-2" d="M42.65,7.12H41.56l-.31-.94H39.36L39,7.12H38L39.9,1.8h.81Zm-3-1.82H41l-.65-1.93Z"/><path class="cls-2" d="M45.5,4.39l1.65,2.73H46l-1-1.86-1,1.86H42.72l1.65-2.73L42.82,1.8H44l.93,1.71.92-1.71h1.19Z"/></svg>