<svg id="Layer_1" data-name="Layer 1" xmlns="http://www.w3.org/2000/svg" viewBox="0 0 36 26.97"><defs><style>.Station-box-10{fill:#231f20;}.cls-1{fill:#fff;}.cls-2{fill:none;stroke:#231f20;stroke-width:2.06px;}</style></defs><rect class="Station-box-10" width="36" height="16.94"/><path class="cls-1" d="M7.33,2.8H4.87V4.11H7V5H4.87V7.2h-1V1.87h3.5Z"/><path class="cls-1" d="M10.88,4.63V7.2h-1V6.86A1.17,1.17,0,0,1,9,7.24a1.34,1.34,0,0,1-1-.35A1.24,1.24,0,0,1,7.66,6c0-.62.43-1.13,1.35-1.13h.9v-.2c0-.42-.21-.61-.72-.61a.86.86,0,0,0-.75.34l-.62-.61a1.64,1.64,0,0,1,1.4-.55C10.32,3.26,10.88,3.72,10.88,4.63Zm-1.71.92c-.39,0-.57.16-.57.45s.18.44.59.44a.74.74,0,0,0,.57-.18.63.63,0,0,0,.15-.5V5.55Z"/><path class="cls-1" d="M12.91,2.64h-1v-.8h1Zm0,4.56h-1V3.41h1Z"/><path class="cls-1" d="M16.83,3.62l-.73.74a.62.62,0,0,0-.51-.23.66.66,0,0,0-.64.72V7.2H14V3.3h.95v.38a1.3,1.3,0,0,1,1-.42A1.16,1.16,0,0,1,16.83,3.62Z"/><path class="cls-1" d="M19.12,7.2h-.77L16.92,3.3h1l.79,2.41.79-2.41h1Z"/><path class="cls-1" d="M22.1,2.64h-1v-.8h1Zm0,4.56h-1V3.41h1Z"/><path class="cls-1" d="M26.37,5.14v.41H23.94a.79.79,0,0,0,.85.87,1.07,1.07,0,0,0,.87-.37l.6.58a1.85,1.85,0,0,1-1.48.61c-.93,0-1.8-.42-1.8-2,0-1.28.69-2,1.7-2A1.67,1.67,0,0,1,26.37,5.14ZM24,4.47a.83.83,0,0,0-.08.42h1.47a1.12,1.12,0,0,0-.08-.42.7.7,0,0,0-.65-.41A.68.68,0,0,0,24,4.47Z"/><path class="cls-1" d="M31.14,7.2h-.8l-.82-2.45L28.71,7.2h-.8l-1.2-3.9h1l.62,2.41.8-2.41h.71l.8,2.41.63-2.41h1Z"/><path class="cls-1" d="M9.26,14.67h-1V12.44H6.41v2.23h-1V9.35h1v2.16H8.22V9.35h1Z"/><path class="cls-1" d="M13.62,12.61V13H11.18a.8.8,0,0,0,.86.87,1.1,1.1,0,0,0,.87-.36l.6.57a1.82,1.82,0,0,1-1.48.62c-.93,0-1.8-.42-1.8-2,0-1.27.68-2,1.69-2A1.67,1.67,0,0,1,13.62,12.61Zm-2.35-.67a1,1,0,0,0-.09.42h1.48a1,1,0,0,0-.09-.42.73.73,0,0,0-1.3,0Z"/><path class="cls-1" d="M15.5,10.11h-1V9.32h1Zm0,4.56h-1V10.89h1Z"/><path class="cls-1" d="M18.69,11.14v-.37h.94v3.76a1.58,1.58,0,0,1-1.71,1.61,1.84,1.84,0,0,1-1.42-.51l.62-.61a1,1,0,0,0,.76.3.73.73,0,0,0,.78-.81v-.39a1.16,1.16,0,0,1-.93.39,1.28,1.28,0,0,1-.92-.35,2,2,0,0,1-.4-1.55,2,2,0,0,1,.4-1.54,1.32,1.32,0,0,1,.93-.34A1.14,1.14,0,0,1,18.69,11.14Zm-1.31,1.47c0,.52.06,1,.64,1s.64-.5.64-1-.06-1-.64-1S17.38,12.11,17.38,12.61Z"/><path class="cls-1" d="M23,14.67V12.31a.62.62,0,0,0-.64-.71.63.63,0,0,0-.65.71v2.36h-1V9.35h1v1.78a1.25,1.25,0,0,1,.95-.4,1.3,1.3,0,0,1,.92.34,1.47,1.47,0,0,1,.4,1.11v2.49Z"/><path class="cls-1" d="M26.06,10.89h.69v.74h-.69V13.5a.31.31,0,0,0,.34.35h.35v.82h-.53a1.06,1.06,0,0,1-1.13-1.11V11.63h-.41v-.74h.41V9.74h1Z"/><path class="cls-1" d="M30.43,11.19l-.6.6a1.36,1.36,0,0,0-.91-.26c-.39,0-.55.18-.55.37s.11.31.4.34l.62.06c.77.07,1.16.48,1.16,1.14,0,.86-.74,1.28-1.66,1.28a2.11,2.11,0,0,1-1.66-.57l.64-.63a1.41,1.41,0,0,0,1,.37c.33,0,.69-.12.69-.41s-.1-.33-.41-.36l-.62-.06c-.7-.06-1.13-.37-1.13-1.09s.71-1.24,1.5-1.24A2.08,2.08,0,0,1,30.43,11.19Z"/><path class="cls-1" d="M14.29,22.23A3.71,3.71,0,1,1,18,25.94,3.71,3.71,0,0,1,14.29,22.23Z"/><path class="cls-2" d="M14.29,22.23A3.71,3.71,0,1,1,18,25.94,3.71,3.71,0,0,1,14.29,22.23Z"/></svg>