<svg id="Layer_1" data-name="Layer 1" xmlns="http://www.w3.org/2000/svg" viewBox="0 0 51 16.94"><defs><style>.Station-box-10{fill:#231f20;}.cls-1{fill:#fff;}</style></defs><rect class="Station-box-10" width="51" height="16.94"/><path class="cls-1" d="M7.89,7.2H7L6,4l-1,3.23H4.2L2.77,1.87H3.85l.82,3.35,1-3.35h.77l1,3.35.83-3.35H9.31Z"/><path class="cls-1" d="M12.8,5.14v.41H10.36a.8.8,0,0,0,.85.87,1.08,1.08,0,0,0,.88-.37l.6.58a1.85,1.85,0,0,1-1.48.61c-.93,0-1.81-.42-1.81-2,0-1.28.69-2,1.7-2A1.67,1.67,0,0,1,12.8,5.14Zm-2.36-.67a1.08,1.08,0,0,0-.08.42h1.47a.81.81,0,0,0-.08-.42.68.68,0,0,0-.65-.41A.69.69,0,0,0,10.44,4.47Z"/><path class="cls-1" d="M16.5,3.71l-.59.61A1.38,1.38,0,0,0,15,4.06c-.39,0-.55.18-.55.37s.11.31.4.34l.61.06c.77.07,1.16.48,1.16,1.14,0,.86-.73,1.27-1.65,1.27a2.14,2.14,0,0,1-1.66-.56L14,6.05a1.4,1.4,0,0,0,1,.36c.33,0,.68-.11.68-.4s-.09-.33-.41-.36l-.61-.06c-.7-.07-1.14-.37-1.14-1.09S14.22,3.26,15,3.26A2.09,2.09,0,0,1,16.5,3.71Z"/><path class="cls-1" d="M18.45,3.41h.68v.74h-.68V6c0,.23.1.35.33.35h.35V7.2H18.6a1.06,1.06,0,0,1-1.13-1.12V4.15h-.41V3.41h.41V2.26h1Z"/><path class="cls-1" d="M22.84,3.78l-.67.66a.76.76,0,0,0-.62-.31.66.66,0,0,0-.55.26,1.29,1.29,0,0,0-.22.86,1.31,1.31,0,0,0,.22.86.66.66,0,0,0,.55.26.79.79,0,0,0,.62-.31l.67.65a1.68,1.68,0,0,1-1.29.53c-.78,0-1.74-.42-1.74-2s1-2,1.74-2A1.67,1.67,0,0,1,22.84,3.78Z"/><path class="cls-1" d="M25.86,7.2V4.84a.65.65,0,1,0-1.3,0V7.2h-1V1.87h1V3.66a1.25,1.25,0,0,1,1-.4,1.24,1.24,0,0,1,.92.34,1.42,1.42,0,0,1,.4,1.11V7.2Z"/><path class="cls-1" d="M31.08,5.14v.41H28.64a.8.8,0,0,0,.85.87,1,1,0,0,0,.87-.37l.6.58a1.82,1.82,0,0,1-1.48.61c-.92,0-1.8-.42-1.8-2,0-1.28.69-2,1.7-2A1.67,1.67,0,0,1,31.08,5.14Zm-2.36-.67a.81.81,0,0,0-.08.42h1.47A.93.93,0,0,0,30,4.47a.73.73,0,0,0-1.31,0Z"/><path class="cls-1" d="M34.78,3.71l-.6.61a1.34,1.34,0,0,0-.9-.26c-.39,0-.56.18-.56.37s.12.31.41.34l.61.06c.77.07,1.16.48,1.16,1.14,0,.86-.73,1.27-1.65,1.27a2.13,2.13,0,0,1-1.66-.56l.63-.63a1.41,1.41,0,0,0,1,.36c.34,0,.69-.11.69-.4s-.1-.33-.41-.36l-.61-.06c-.71-.07-1.14-.37-1.14-1.09s.71-1.24,1.5-1.24A2.1,2.1,0,0,1,34.78,3.71Z"/><path class="cls-1" d="M36.72,3.41h.69v.74h-.69V6a.31.31,0,0,0,.34.35h.35V7.2h-.53a1.06,1.06,0,0,1-1.13-1.12V4.15h-.41V3.41h.41V2.26h1Z"/><path class="cls-1" d="M41.45,5.14v.41H39a.8.8,0,0,0,.85.87,1.07,1.07,0,0,0,.87-.37l.6.58a1.84,1.84,0,0,1-1.48.61c-.93,0-1.8-.42-1.8-2,0-1.28.69-2,1.7-2A1.67,1.67,0,0,1,41.45,5.14ZM39.1,4.47a.81.81,0,0,0-.08.42h1.47a1.08,1.08,0,0,0-.08-.42.73.73,0,0,0-1.31,0Z"/><path class="cls-1" d="M45.2,3.62l-.73.74A.63.63,0,0,0,44,4.13a.66.66,0,0,0-.64.72V7.2h-1V3.3h.95v.38a1.3,1.3,0,0,1,1-.42A1.16,1.16,0,0,1,45.2,3.62Z"/><path class="cls-1" d="M45.74,8.25h-.91l2.1-6.33h.91Z"/><path class="cls-1" d="M12.76,14.67H12L10.22,9.35H11.3l1.07,3.46,1.07-3.46h1.08Z"/><path class="cls-1" d="M18,12.61V13H15.55a.8.8,0,0,0,.85.87,1.08,1.08,0,0,0,.88-.37l.6.58a1.86,1.86,0,0,1-1.49.61c-.92,0-1.8-.41-1.8-2,0-1.27.69-2,1.7-2A1.68,1.68,0,0,1,18,12.61Zm-2.36-.67a1,1,0,0,0-.08.42H17a1,1,0,0,0-.08-.42.67.67,0,0,0-.65-.4A.68.68,0,0,0,15.63,11.94Z"/><path class="cls-1" d="M19.94,10.89h.69v.74h-.69V13.5a.31.31,0,0,0,.34.35h.35v.82H20.1A1.06,1.06,0,0,1,19,13.56V11.63h-.41v-.74H19V9.73h1Z"/><path class="cls-1" d="M24.67,12.61V13H22.24a.8.8,0,0,0,.85.87,1.06,1.06,0,0,0,.87-.37l.6.58a1.82,1.82,0,0,1-1.48.61c-.92,0-1.8-.41-1.8-2,0-1.27.69-2,1.7-2A1.67,1.67,0,0,1,24.67,12.61Zm-2.35-.67a.83.83,0,0,0-.08.42h1.47a1,1,0,0,0-.08-.42.74.74,0,0,0-1.31,0Z"/><path class="cls-1" d="M28.42,11.1l-.73.74a.64.64,0,0,0-.51-.24.66.66,0,0,0-.64.72v2.35h-1v-3.9h.95v.38a1.3,1.3,0,0,1,1-.42A1.13,1.13,0,0,1,28.42,11.1Z"/><path class="cls-1" d="M31.84,12.1v2.57h-.95v-.34a1.19,1.19,0,0,1-1,.38,1.31,1.31,0,0,1-1-.35,1.23,1.23,0,0,1-.32-.87c0-.62.42-1.13,1.34-1.13h.91v-.2c0-.42-.21-.61-.73-.61a.84.84,0,0,0-.74.34l-.62-.61a1.63,1.63,0,0,1,1.4-.55C31.28,10.73,31.84,11.19,31.84,12.1ZM30.13,13c-.39,0-.58.16-.58.45s.19.44.59.44a.78.78,0,0,0,.58-.18.63.63,0,0,0,.15-.5V13Z"/><path class="cls-1" d="M35.73,11.07a1.46,1.46,0,0,1,.39,1.11v2.49h-1V12.31a.65.65,0,1,0-1.29,0v2.36h-1v-3.9h.95v.36a1.35,1.35,0,0,1,1-.4A1.25,1.25,0,0,1,35.73,11.07Z"/><path class="cls-1" d="M40,11.18l-.6.61a1.36,1.36,0,0,0-.91-.26c-.38,0-.55.18-.55.37s.11.31.41.34l.61.06c.77.07,1.16.48,1.16,1.14,0,.86-.74,1.27-1.66,1.27a2.12,2.12,0,0,1-1.66-.56l.64-.63a1.4,1.4,0,0,0,1,.36c.34,0,.69-.11.69-.4s-.1-.33-.41-.36l-.62-.06C37.42,13,37,12.69,37,12s.71-1.24,1.5-1.24A2.13,2.13,0,0,1,40,11.18Z"/></svg>