<svg id="Layer_1" data-name="Layer 1" xmlns="http://www.w3.org/2000/svg" viewBox="0 0 49.32 26.97"><defs><style>.Station-box-10{fill:#231f20;}.cls-1{fill:#fff;}.cls-2{fill:none;stroke:#231f20;stroke-width:2.06px;}</style></defs><rect class="Station-box-10" width="49.32" height="16.94"/><path class="cls-1" d="M6.56,7.2H5.47l-.32-1H3.27L3,7.2H1.85L3.8,1.87h.81Zm-3-1.82H4.86L4.21,3.45Z"/><path class="cls-1" d="M8.05,2.64h-1v-.8h1ZM8,7.2h-1V3.41H8Z"/><path class="cls-1" d="M11.91,3.62l-.72.74A.65.65,0,0,0,10,4.85V7.2h-1V3.3H10v.38a1.32,1.32,0,0,1,1-.42A1.16,1.16,0,0,1,11.91,3.62Z"/><path class="cls-1" d="M15.27,3.61a2.33,2.33,0,0,1,.4,1.63,2.37,2.37,0,0,1-.4,1.65,1.28,1.28,0,0,1-.94.35,1.13,1.13,0,0,1-.95-.39V8.62h-1V3.3h.94v.37a1.18,1.18,0,0,1,1-.41A1.31,1.31,0,0,1,15.27,3.61ZM13.38,5.24c0,.64.07,1.13.65,1.13s.67-.49.67-1.13S14.63,4.13,14,4.13,13.38,4.62,13.38,5.24Z"/><path class="cls-1" d="M19.23,6.76A1.62,1.62,0,0,1,18,7.24a1.6,1.6,0,0,1-1.21-.48,2,2,0,0,1-.44-1.52,2,2,0,0,1,.44-1.5A1.6,1.6,0,0,1,18,3.26a1.58,1.58,0,0,1,1.21.48,2,2,0,0,1,.44,1.5A2,2,0,0,1,19.23,6.76ZM18.47,4.3a.68.68,0,0,0-.9,0,1.33,1.33,0,0,0-.23.94,1.36,1.36,0,0,0,.23,1,.68.68,0,0,0,.9,0,1.31,1.31,0,0,0,.23-1A1.29,1.29,0,0,0,18.47,4.3Z"/><path class="cls-1" d="M23.38,3.62l-.72.74a.65.65,0,0,0-1.15.49V7.2h-1V3.3h.95v.38a1.3,1.3,0,0,1,1-.42A1.16,1.16,0,0,1,23.38,3.62Z"/><path class="cls-1" d="M25,3.41h.69v.74H25V6c0,.23.1.35.34.35h.35V7.2h-.53A1.05,1.05,0,0,1,24,6.08V4.15h-.41V3.41H24V2.26h1Z"/><path class="cls-1" d="M33,7.2H32V4.1L31,6h-.7l-1-1.89V7.2h-1V1.87h1l1.39,2.76L32,1.87h1Z"/><path class="cls-1" d="M37.34,5.14v.41H34.9a.8.8,0,0,0,.86.87,1.07,1.07,0,0,0,.87-.37l.6.58a1.85,1.85,0,0,1-1.48.61c-.93,0-1.8-.42-1.8-2,0-1.27.68-2,1.69-2A1.67,1.67,0,0,1,37.34,5.14ZM35,4.47a.93.93,0,0,0-.09.42h1.48a.93.93,0,0,0-.09-.42.72.72,0,0,0-1.3,0Z"/><path class="cls-1" d="M39.24,3.41h.69v.74h-.69V6c0,.23.1.35.34.35h.35V7.2H39.4a1.05,1.05,0,0,1-1.13-1.12V4.15h-.41V3.41h.41V2.26h1Z"/><path class="cls-1" d="M43.6,3.62l-.73.74a.65.65,0,0,0-1.15.49V7.2h-1V3.3h1v.38a1.29,1.29,0,0,1,1-.42A1.17,1.17,0,0,1,43.6,3.62Z"/><path class="cls-1" d="M46.55,6.76a1.75,1.75,0,0,1-2.41,0,2,2,0,0,1-.44-1.52,2,2,0,0,1,.44-1.5,1.59,1.59,0,0,1,1.2-.48,1.55,1.55,0,0,1,1.21.48A1.92,1.92,0,0,1,47,5.24,2,2,0,0,1,46.55,6.76ZM45.8,4.3a.62.62,0,0,0-.46-.17.64.64,0,0,0-.45.17,1.34,1.34,0,0,0-.22.94,1.36,1.36,0,0,0,.22,1,.64.64,0,0,0,.45.17.62.62,0,0,0,.46-.17,1.36,1.36,0,0,0,.22-1A1.34,1.34,0,0,0,45.8,4.3Z"/><path class="cls-1" d="M11.68,11h-1a.88.88,0,0,0-.9-.75.86.86,0,0,0-.66.27c-.2.23-.27.49-.27,1.51s.07,1.28.27,1.5a.86.86,0,0,0,.66.28.88.88,0,0,0,.9-.76h1a1.85,1.85,0,0,1-1.95,1.68,1.94,1.94,0,0,1-1.43-.56C7.77,13.62,7.77,13,7.77,12s0-1.62.53-2.15A1.94,1.94,0,0,1,9.73,9.3,1.86,1.86,0,0,1,11.68,11Z"/><path class="cls-1" d="M15.15,14.24a1.65,1.65,0,0,1-1.21.47,1.64,1.64,0,0,1-1.21-.47,2,2,0,0,1-.44-1.52,2,2,0,0,1,.44-1.51,1.6,1.6,0,0,1,1.21-.48,1.62,1.62,0,0,1,1.21.48,2,2,0,0,1,.44,1.51A2,2,0,0,1,15.15,14.24Zm-.76-2.46a.65.65,0,0,0-.9,0,1.31,1.31,0,0,0-.22.94,1.35,1.35,0,0,0,.22.95.68.68,0,0,0,.9,0,1.3,1.3,0,0,0,.23-.95A1.26,1.26,0,0,0,14.39,11.78Z"/><path class="cls-1" d="M19.3,11.07a1.46,1.46,0,0,1,.39,1.11v2.49h-1V12.31a.65.65,0,1,0-1.29,0v2.36h-1v-3.9h.95v.36a1.31,1.31,0,0,1,1-.4A1.25,1.25,0,0,1,19.3,11.07Z"/><path class="cls-1" d="M23.52,11.07a1.46,1.46,0,0,1,.39,1.11v2.49h-1V12.31a.62.62,0,0,0-.64-.71.63.63,0,0,0-.65.71v2.36h-1v-3.9h.95v.36a1.31,1.31,0,0,1,1-.4A1.25,1.25,0,0,1,23.52,11.07Z"/><path class="cls-1" d="M28.1,12.61V13H25.66a.8.8,0,0,0,.85.87,1.11,1.11,0,0,0,.88-.36l.6.57a1.85,1.85,0,0,1-1.48.61c-.93,0-1.81-.42-1.81-2,0-1.27.69-2,1.7-2A1.67,1.67,0,0,1,28.1,12.61Zm-2.36-.67a1.12,1.12,0,0,0-.08.42h1.47a.83.83,0,0,0-.08-.42.67.67,0,0,0-.65-.4A.69.69,0,0,0,25.74,11.94Z"/><path class="cls-1" d="M31.8,11.25l-.67.66a.76.76,0,0,0-.62-.31.66.66,0,0,0-.55.26,1.31,1.31,0,0,0-.22.86,1.29,1.29,0,0,0,.22.86.66.66,0,0,0,.55.26.79.79,0,0,0,.62-.31l.67.65a1.68,1.68,0,0,1-1.29.53c-.78,0-1.74-.42-1.74-2s1-2,1.74-2A1.67,1.67,0,0,1,31.8,11.25Z"/><path class="cls-1" d="M33.55,10.89h.69v.74h-.69v1.86c0,.23.11.36.34.36h.35v.82h-.53a1.06,1.06,0,0,1-1.13-1.12V11.63h-.41v-.74h.41V9.73h1Z"/><path class="cls-1" d="M37.72,14.24a1.66,1.66,0,0,1-1.22.47,1.63,1.63,0,0,1-1.2-.47,2,2,0,0,1-.44-1.52,2,2,0,0,1,.44-1.51,1.59,1.59,0,0,1,1.2-.48,1.63,1.63,0,0,1,1.22.48,2,2,0,0,1,.44,1.51A2,2,0,0,1,37.72,14.24ZM37,11.78a.59.59,0,0,0-.46-.18.57.57,0,0,0-.44.18,1.26,1.26,0,0,0-.23.94,1.3,1.3,0,0,0,.23.95.6.6,0,0,0,.44.17.62.62,0,0,0,.46-.17,1.35,1.35,0,0,0,.23-.95A1.31,1.31,0,0,0,37,11.78Z"/><path class="cls-1" d="M41.87,11.1l-.73.74a.64.64,0,0,0-.51-.24.66.66,0,0,0-.64.72v2.35H39v-3.9H40v.38a1.3,1.3,0,0,1,1-.42A1.13,1.13,0,0,1,41.87,11.1Z"/><path class="cls-1" d="M21,22.23a3.71,3.71,0,1,1,3.71,3.71A3.71,3.71,0,0,1,21,22.23Z"/><path class="cls-2" d="M21,22.23a3.71,3.71,0,1,1,3.71,3.71A3.71,3.71,0,0,1,21,22.23Z"/></svg>