<svg id="Layer_1" data-name="Layer 1" xmlns="http://www.w3.org/2000/svg" viewBox="0 0 47.51 25.3"><defs><style>.cls-1{fill:#fff;}.cls-2{fill:none;stroke:#231f20;stroke-width:2.06px;}.Station-box{fill:#231f20;}</style></defs><path class="cls-1" d="M1,20.56a3.71,3.71,0,1,1,3.71,3.71A3.71,3.71,0,0,1,1,20.56Z"/><path class="cls-2" d="M1,20.56a3.71,3.71,0,1,1,3.71,3.71A3.71,3.71,0,0,1,1,20.56Z"/><rect class="Station-box" x="9.34" width="38.18" height="16.94"/><path class="cls-1" d="M23,2.8H20.51V4.05h2.1V5h-2.1V6.27H23V7.2h-3.5V1.87H23Z"/><path class="cls-1" d="M25.87,5.21l1.35,2H26.05L25.33,6,24.62,7.2H23.46l1.34-2L23.51,3.3h1.17l.65,1.12L26,3.3h1.16Z"/><path class="cls-1" d="M30.71,3.61a2.3,2.3,0,0,1,.41,1.64,2.31,2.31,0,0,1-.41,1.64,1.31,1.31,0,0,1-.94.35,1.15,1.15,0,0,1-.95-.39V8.63h-1V3.3h.94v.37a1.2,1.2,0,0,1,1-.41A1.28,1.28,0,0,1,30.71,3.61ZM28.82,5.25c0,.63.08,1.12.66,1.12s.67-.49.67-1.12-.08-1.12-.67-1.12S28.82,4.62,28.82,5.25Z"/><path class="cls-1" d="M34.73,6.76a1.75,1.75,0,0,1-2.41,0,2,2,0,0,1-.44-1.51,2,2,0,0,1,.44-1.52,1.63,1.63,0,0,1,1.2-.47,1.58,1.58,0,0,1,1.21.47,2,2,0,0,1,.45,1.52A1.94,1.94,0,0,1,34.73,6.76ZM34,4.3a.62.62,0,0,0-.46-.17.64.64,0,0,0-.45.17,1.35,1.35,0,0,0-.22,1,1.31,1.31,0,0,0,.22.94.61.61,0,0,0,.45.18A.59.59,0,0,0,34,6.19a1.31,1.31,0,0,0,.22-.94A1.35,1.35,0,0,0,34,4.3Z"/><path class="cls-1" d="M36.47,7.75h-.92l2.1-6.33h.92Z"/><path class="cls-1" d="M16.13,11H15.07a.92.92,0,0,0-1.56-.48c-.19.23-.26.49-.26,1.51s.07,1.28.26,1.5A.91.91,0,0,0,15.07,13h1.06a1.87,1.87,0,0,1-1.95,1.68,1.94,1.94,0,0,1-1.43-.56c-.53-.53-.54-1.13-.54-2.14s0-1.62.54-2.15a1.94,1.94,0,0,1,1.43-.56A1.87,1.87,0,0,1,16.13,11Z"/><path class="cls-1" d="M19.8,11.1l-.73.74a.64.64,0,0,0-.51-.24.66.66,0,0,0-.64.72v2.35H17v-3.9h.95v.38a1.3,1.3,0,0,1,1-.42A1.13,1.13,0,0,1,19.8,11.1Z"/><path class="cls-1" d="M23.32,12.61V13H20.89a.8.8,0,0,0,.85.87,1.06,1.06,0,0,0,.87-.37l.6.58a1.82,1.82,0,0,1-1.48.61c-.92,0-1.8-.42-1.8-2,0-1.27.69-2,1.7-2A1.67,1.67,0,0,1,23.32,12.61ZM21,11.94a1,1,0,0,0-.08.42h1.47a1,1,0,0,0-.08-.42.74.74,0,0,0-1.31,0Z"/><path class="cls-1" d="M27.06,11.07a1.47,1.47,0,0,1,.4,1.11v2.49h-1V12.31a.62.62,0,0,0-.64-.71.63.63,0,0,0-.65.71v2.36h-1v-3.9h1v.36a1.31,1.31,0,0,1,1-.4A1.25,1.25,0,0,1,27.06,11.07Z"/><path class="cls-1" d="M31.31,11.18l-.6.61a1.34,1.34,0,0,0-.9-.26c-.39,0-.55.18-.55.37s.11.31.4.34l.61.06c.77.07,1.16.48,1.16,1.14,0,.86-.73,1.27-1.65,1.27a2.1,2.1,0,0,1-1.66-.56l.63-.63a1.41,1.41,0,0,0,1,.36c.34,0,.69-.11.69-.4s-.1-.33-.41-.36l-.61-.06c-.71-.07-1.14-.37-1.14-1.09s.71-1.24,1.5-1.24A2.1,2.1,0,0,1,31.31,11.18Z"/><path class="cls-1" d="M34.51,14.67V12.31a.65.65,0,1,0-1.29,0v2.36h-1V9.35h1v1.78a1.22,1.22,0,0,1,1-.4,1.3,1.3,0,0,1,.92.34,1.46,1.46,0,0,1,.39,1.11v2.49Z"/><path class="cls-1" d="M39.47,12.1v2.57h-.95v-.34a1.19,1.19,0,0,1-1,.38,1.34,1.34,0,0,1-1-.35,1.23,1.23,0,0,1-.32-.87c0-.62.43-1.13,1.35-1.13h.9v-.2c0-.42-.21-.61-.73-.61a.85.85,0,0,0-.74.34l-.62-.61a1.64,1.64,0,0,1,1.4-.55C38.91,10.73,39.47,11.19,39.47,12.1ZM37.76,13c-.39,0-.58.16-.58.45s.19.44.59.44a.77.77,0,0,0,.58-.18.63.63,0,0,0,.15-.5V13Z"/><path class="cls-1" d="M44.43,14.67h-.8l-.82-2.45L42,14.67h-.8L40,10.77h1l.63,2.41.79-2.41h.71l.8,2.41.63-2.41h1Z"/></svg>