<svg id="Layer_1" data-name="Layer 1" xmlns="http://www.w3.org/2000/svg" viewBox="0 0 63.86 19.44"><defs><style>.cls-1{fill:#231f20;}.cls-2{fill:#fff;}.cls-3{fill:none;stroke:#636466;stroke-width:2.06px;}</style></defs><polygon class="cls-1" points="0 0 63.86 0 63.86 9.4 0 9.4 0 0 0 0"/><path class="cls-2" d="M8,7.12H6.87l-.32-.94H4.67l-.32.94H3.26L5.2,1.8H6ZM5,5.3H6.26L5.61,3.37Z"/><path class="cls-2" d="M10.1,7.12H9.34L7.9,3.22h1l.79,2.41.79-2.41h1Z"/><path class="cls-2" d="M13.08,2.56h-1v-.8h1Zm0,4.56h-1V3.34h1Z"/><path class="cls-2" d="M17.1,4.55V7.12h-.94V6.78a1.21,1.21,0,0,1-1,.38,1.35,1.35,0,0,1-1-.35,1.23,1.23,0,0,1-.32-.87c0-.62.43-1.13,1.35-1.13h.9v-.2c0-.42-.21-.61-.72-.61a.87.87,0,0,0-.75.34l-.61-.61a1.62,1.62,0,0,1,1.4-.55C16.54,3.18,17.1,3.64,17.1,4.55Zm-1.71.92c-.39,0-.57.16-.57.45s.18.44.59.44A.74.74,0,0,0,16,6.18c.12-.1.15-.25.15-.5V5.47Z"/><path class="cls-2" d="M19.21,3.34h.69v.74h-.69V5.94c0,.23.11.36.34.36h.35v.82h-.53A1.06,1.06,0,0,1,18.24,6V4.08h-.41V3.34h.41V2.18h1Z"/><path class="cls-2" d="M21.76,2.56h-1v-.8h1Zm0,4.56h-1V3.34h1Z"/><path class="cls-2" d="M25.53,6.68a1.63,1.63,0,0,1-1.22.48,1.59,1.59,0,0,1-1.2-.48,2,2,0,0,1-.44-1.51,2,2,0,0,1,.44-1.51,1.77,1.77,0,0,1,2.42,0A2,2,0,0,1,26,5.17,2,2,0,0,1,25.53,6.68Zm-.76-2.46a.62.62,0,0,0-.46-.17.6.6,0,0,0-.44.17,1.3,1.3,0,0,0-.23,1,1.3,1.3,0,0,0,.23,1,.6.6,0,0,0,.44.17.62.62,0,0,0,.46-.17,1.35,1.35,0,0,0,.23-1A1.35,1.35,0,0,0,24.77,4.22Z"/><path class="cls-2" d="M29.73,3.52a1.43,1.43,0,0,1,.4,1.11V7.12h-1V4.76a.65.65,0,1,0-1.3,0V7.12h-1V3.22h.95v.36a1.33,1.33,0,0,1,1-.4A1.24,1.24,0,0,1,29.73,3.52Z"/><path class="cls-2" d="M31.54,7.67h-.91l2.1-6.33h.91Z"/><path class="cls-2" d="M38,3.43H36.94A.92.92,0,0,0,35.38,3c-.19.23-.26.49-.26,1.51s.07,1.27.26,1.5a.87.87,0,0,0,.67.28.88.88,0,0,0,.89-.76H38a1.87,1.87,0,0,1-2,1.68,1.9,1.9,0,0,1-1.43-.56c-.53-.53-.54-1.13-.54-2.14s0-1.62.54-2.15a1.9,1.9,0,0,1,1.43-.56A1.87,1.87,0,0,1,38,3.43Z"/><path class="cls-2" d="M42,5.06v.41H39.6a.79.79,0,0,0,.85.87A1.07,1.07,0,0,0,41.32,6l.6.58a1.85,1.85,0,0,1-1.48.61c-.93,0-1.8-.42-1.8-2,0-1.27.69-2,1.7-2A1.67,1.67,0,0,1,42,5.06Zm-2.35-.67a.83.83,0,0,0-.08.42h1.47A1.12,1.12,0,0,0,41,4.39a.69.69,0,0,0-.65-.4A.67.67,0,0,0,39.68,4.39Z"/><path class="cls-2" d="M45.77,3.52a1.46,1.46,0,0,1,.39,1.11V7.12h-1V4.76a.62.62,0,0,0-.64-.71.63.63,0,0,0-.65.71V7.12h-1V3.22h1v.36a1.31,1.31,0,0,1,1-.4A1.25,1.25,0,0,1,45.77,3.52Z"/><path class="cls-2" d="M48.27,3.34H49v.74h-.69V5.94c0,.23.11.36.34.36H49v.82h-.53A1.06,1.06,0,0,1,47.3,6V4.08h-.41V3.34h.41V2.18h1Z"/><path class="cls-2" d="M53,7.12h-1V6.76a1.31,1.31,0,0,1-1,.4,1.27,1.27,0,0,1-.92-.34,1.46,1.46,0,0,1-.4-1.11V3.22h1V5.58a.62.62,0,0,0,.64.71.63.63,0,0,0,.65-.71V3.22h1Z"/><path class="cls-2" d="M57,3.54l-.73.74a.65.65,0,0,0-1.15.49V7.12h-1V3.22h1V3.6a1.3,1.3,0,0,1,1-.42A1.16,1.16,0,0,1,57,3.54Z"/><path class="cls-2" d="M59,7.75a1.46,1.46,0,0,1-.29.5,1.16,1.16,0,0,1-.84.3h-.38V7.67h.22a.43.43,0,0,0,.49-.35l.17-.48L57.06,3.22h1l.81,2.41.77-2.41h1Z"/><path class="cls-2" d="M28.27,14.7A3.71,3.71,0,1,1,32,18.41,3.71,3.71,0,0,1,28.27,14.7Z"/><path class="cls-3" d="M28.27,14.7A3.71,3.71,0,1,1,32,18.41,3.71,3.71,0,0,1,28.27,14.7Z"/></svg>