<svg id="Layer_1" data-name="Layer 1" xmlns="http://www.w3.org/2000/svg" viewBox="0 0 41.18 16.94"><defs><style>.Station-box-10{fill:#231f20;}.cls-1{fill:#fff;}</style></defs><rect class="Station-box-10" width="41.18" height="16.94"/><path class="cls-1" d="M9.9,7.2H8.8l-.31-.94H6.61l-.33.94H5.19L7.14,1.87H8Zm-3-1.82H8.2L7.55,3.45Z"/><path class="cls-1" d="M12,7.2h-.76L9.84,3.3h1l.79,2.41.78-2.41h1Z"/><path class="cls-1" d="M15,2.64H14v-.8h1ZM15,7.2H14V3.41h1Z"/><path class="cls-1" d="M19,4.63V7.2h-.95V6.86a1.19,1.19,0,0,1-1,.38,1.33,1.33,0,0,1-1-.35A1.24,1.24,0,0,1,15.82,6c0-.62.43-1.13,1.35-1.13h.9v-.2c0-.42-.21-.61-.73-.61a.85.85,0,0,0-.74.34L16,3.81a1.64,1.64,0,0,1,1.4-.55C18.48,3.26,19,3.72,19,4.63Zm-1.71.92c-.39,0-.58.16-.58.45s.19.44.59.44a.77.77,0,0,0,.58-.18.63.63,0,0,0,.15-.5V5.55Z"/><path class="cls-1" d="M21.15,3.41h.68v.74h-.68V6c0,.23.1.36.33.36h.35V7.2H21.3a1.05,1.05,0,0,1-1.12-1.12V4.15h-.42V3.41h.42V2.26h1Z"/><path class="cls-1" d="M23.7,2.64h-1v-.8h1Zm0,4.56h-1V3.41h1Z"/><path class="cls-1" d="M27.46,6.76a1.6,1.6,0,0,1-1.21.48,1.56,1.56,0,0,1-1.2-.48,2,2,0,0,1-.44-1.51,2,2,0,0,1,.44-1.51,1.75,1.75,0,0,1,2.41,0,2,2,0,0,1,.44,1.51A1.93,1.93,0,0,1,27.46,6.76ZM26.71,4.3a.64.64,0,0,0-.46-.17.61.61,0,0,0-.45.17,1.35,1.35,0,0,0-.22,1,1.35,1.35,0,0,0,.22,1,.61.61,0,0,0,.45.17.64.64,0,0,0,.46-.17,1.35,1.35,0,0,0,.22-1A1.35,1.35,0,0,0,26.71,4.3Z"/><path class="cls-1" d="M31.67,3.6a1.47,1.47,0,0,1,.4,1.11V7.2h-1V4.84a.62.62,0,0,0-.64-.71.63.63,0,0,0-.65.71V7.2h-1V3.3h1v.36a1.31,1.31,0,0,1,1-.4A1.25,1.25,0,0,1,31.67,3.6Z"/><path class="cls-1" d="M33.48,7.75h-.92l2.1-6.33h.92Z"/><path class="cls-1" d="M11.19,11H10.13a.88.88,0,0,0-.9-.75.83.83,0,0,0-.66.28c-.2.22-.26.48-.26,1.5s.06,1.28.26,1.5a.86.86,0,0,0,.66.28.88.88,0,0,0,.9-.76h1.06a1.87,1.87,0,0,1-2,1.68,1.9,1.9,0,0,1-1.42-.56C7.27,13.62,7.27,13,7.27,12s0-1.62.54-2.15A1.9,1.9,0,0,1,9.23,9.3,1.88,1.88,0,0,1,11.19,11Z"/><path class="cls-1" d="M15.22,12.61V13H12.78a.8.8,0,0,0,.85.86,1.08,1.08,0,0,0,.88-.36l.6.57a1.82,1.82,0,0,1-1.48.61c-.93,0-1.8-.41-1.8-2,0-1.27.68-2,1.69-2A1.67,1.67,0,0,1,15.22,12.61Zm-2.36-.67a1.12,1.12,0,0,0-.08.42h1.47a.83.83,0,0,0-.08-.42.67.67,0,0,0-.65-.4A.69.69,0,0,0,12.86,11.94Z"/><path class="cls-1" d="M19,11.07a1.48,1.48,0,0,1,.39,1.11v2.49h-1V12.32a.65.65,0,1,0-1.29,0v2.35h-1v-3.9h.95v.36a1.35,1.35,0,0,1,1-.4A1.27,1.27,0,0,1,19,11.07Z"/><path class="cls-1" d="M21.46,10.89h.69v.74h-.69V13.5c0,.22.1.35.33.35h.36v.82h-.53a1.05,1.05,0,0,1-1.13-1.11V11.63h-.41v-.74h.41V9.74h1Z"/><path class="cls-1" d="M26.22,14.67h-.95v-.36a1.33,1.33,0,0,1-1,.4,1.23,1.23,0,0,1-.92-.34,1.42,1.42,0,0,1-.4-1.11V10.77h1v2.36a.65.65,0,1,0,1.3,0V10.77h1Z"/><path class="cls-1" d="M30.16,11.1l-.73.74a.65.65,0,0,0-1.15.48v2.35h-1v-3.9h1v.38a1.29,1.29,0,0,1,1-.42A1.13,1.13,0,0,1,30.16,11.1Z"/><path class="cls-1" d="M32.22,15.3a1.46,1.46,0,0,1-.29.5,1.16,1.16,0,0,1-.84.3h-.38v-.88h.22a.43.43,0,0,0,.49-.35l.16-.48-1.33-3.62h1l.8,2.41.78-2.41h1Z"/></svg>