<svg id="Layer_1" data-name="Layer 1" xmlns="http://www.w3.org/2000/svg" viewBox="0 0 50 19.97"><defs><style>.Station-box-10{fill:#231f20;}.cls-1{fill:#fff;}.cls-2{fill:none;stroke:#231f20;stroke-width:2.06px;}</style></defs><rect class="Station-box-10" width="50" height="9.94"/><path class="cls-1" d="M4.58,6.27H7V7.2H3.54V1.87h1Z"/><path class="cls-1" d="M11,5.14v.41H8.52a.8.8,0,0,0,.85.87,1.08,1.08,0,0,0,.88-.37l.6.58a1.85,1.85,0,0,1-1.48.61c-.93,0-1.81-.42-1.81-2,0-1.27.69-2,1.7-2A1.67,1.67,0,0,1,11,5.14ZM8.6,4.47a1.12,1.12,0,0,0-.08.42H10a.83.83,0,0,0-.08-.42.67.67,0,0,0-.65-.4A.68.68,0,0,0,8.6,4.47Z"/><path class="cls-1" d="M12.83,2.64h-1v-.8h1Zm0,4.56h-1V3.41h1Z"/><path class="cls-1" d="M19,3.6a1.45,1.45,0,0,1,.42,1.11V7.2h-1V4.84a.65.65,0,1,0-1.29,0V7.2h-1V4.84a.62.62,0,0,0-.64-.71.63.63,0,0,0-.65.71V7.2h-1V3.3h.95v.36a1.34,1.34,0,0,1,1-.4,1.2,1.2,0,0,1,1,.49A1.48,1.48,0,0,1,18,3.26,1.35,1.35,0,0,1,19,3.6Z"/><path class="cls-1" d="M23.65,5.14v.41H21.22a.8.8,0,0,0,.85.87,1.07,1.07,0,0,0,.87-.37l.6.58a1.84,1.84,0,0,1-1.48.61c-.93,0-1.8-.42-1.8-2,0-1.27.69-2,1.7-2A1.67,1.67,0,0,1,23.65,5.14ZM21.3,4.47a.83.83,0,0,0-.08.42h1.47a1.12,1.12,0,0,0-.08-.42.74.74,0,0,0-1.31,0Z"/><path class="cls-1" d="M27.4,3.62l-.73.74a.63.63,0,0,0-.51-.23.66.66,0,0,0-.64.72V7.2h-1V3.3h.95v.38a1.3,1.3,0,0,1,1-.42A1.16,1.16,0,0,1,27.4,3.62Z"/><path class="cls-1" d="M29,3.41h.69v.75H29V6c0,.23.11.36.34.36h.35V7.2h-.53a1.06,1.06,0,0,1-1.13-1.12V4.16h-.41V3.41h.41V2.26h1Z"/><path class="cls-1" d="M34.47,1.87a1.64,1.64,0,0,1,1.76,1.66,1.63,1.63,0,0,1-1.76,1.66h-1v2h-1V1.87Zm-1,.93V4.27h1a.71.71,0,0,0,.77-.74.7.7,0,0,0-.77-.73Z"/><path class="cls-1" d="M39.9,4.63V7.2H39V6.86a1.19,1.19,0,0,1-1,.38,1.31,1.31,0,0,1-1-.35A1.24,1.24,0,0,1,36.68,6c0-.62.42-1.13,1.34-1.13h.91v-.2c0-.42-.21-.61-.73-.61a.87.87,0,0,0-.75.34l-.61-.61a1.63,1.63,0,0,1,1.4-.55C39.34,3.26,39.9,3.72,39.9,4.63Zm-1.71.92c-.39,0-.58.16-.58.45s.19.44.59.44a.78.78,0,0,0,.58-.18.63.63,0,0,0,.15-.5V5.55Z"/><path class="cls-1" d="M43.79,3.62l-.72.74a.66.66,0,0,0-1.16.49V7.2h-1V3.3h1v.38a1.3,1.3,0,0,1,1-.42A1.16,1.16,0,0,1,43.79,3.62Z"/><path class="cls-1" d="M45.31,4.9l1.3-1.6h1.18l-1.4,1.57,1.5,2.33h-1.2l-1-1.62L45.31,6V7.2h-1V1.87h1Z"/><path class="cls-1" d="M21.29,15.23A3.71,3.71,0,1,1,25,18.94,3.71,3.71,0,0,1,21.29,15.23Z"/><path class="cls-2" d="M21.29,15.23A3.71,3.71,0,1,1,25,18.94,3.71,3.71,0,0,1,21.29,15.23Z"/></svg>