<svg id="Layer_1" data-name="Layer 1" xmlns="http://www.w3.org/2000/svg" viewBox="0 0 59.34 16.94"><defs><style>.Station-box{fill:#231f20;}.cls-1{fill:#fff;}</style></defs><rect class="Station-box" x="21.16" width="38.18" height="16.94"/><path class="cls-1" d="M34.8,2.8H32.33V4.05h2.11V5H32.33V6.27H34.8V7.2H31.29V1.87H34.8Z"/><path class="cls-1" d="M37.69,5.21,39,7.2H37.87L37.16,6,36.45,7.2H35.28l1.35-2L35.33,3.3H36.5l.66,1.12.66-1.12H39Z"/><path class="cls-1" d="M42.54,3.61a2.35,2.35,0,0,1,.4,1.64,2.36,2.36,0,0,1-.4,1.64,1.34,1.34,0,0,1-.94.35,1.13,1.13,0,0,1-1-.39V8.62h-1V3.3h.95v.37a1.18,1.18,0,0,1,1-.41A1.31,1.31,0,0,1,42.54,3.61ZM40.65,5.25c0,.63.07,1.12.65,1.12S42,5.88,42,5.25s-.08-1.12-.67-1.12S40.65,4.62,40.65,5.25Z"/><path class="cls-1" d="M46.56,6.76a1.62,1.62,0,0,1-1.21.48,1.6,1.6,0,0,1-1.21-.48,2,2,0,0,1-.44-1.51,2,2,0,0,1,.44-1.52,1.64,1.64,0,0,1,1.21-.47,1.62,1.62,0,0,1,1.21.47A2,2,0,0,1,47,5.25,1.93,1.93,0,0,1,46.56,6.76ZM45.8,4.3a.68.68,0,0,0-.9,0,1.35,1.35,0,0,0-.23,1,1.31,1.31,0,0,0,.23.94.65.65,0,0,0,.9,0A1.31,1.31,0,0,0,46,5.25,1.35,1.35,0,0,0,45.8,4.3Z"/><path class="cls-1" d="M48.29,7.75h-.91l2.1-6.33h.91Z"/><path class="cls-1" d="M28,11H26.9a.88.88,0,0,0-.9-.75.84.84,0,0,0-.66.27c-.2.23-.27.49-.27,1.51s.07,1.28.27,1.5a.85.85,0,0,0,.66.28.88.88,0,0,0,.9-.76H28A1.86,1.86,0,0,1,26,14.71a1.94,1.94,0,0,1-1.43-.56C24,13.62,24,13,24,12s0-1.62.54-2.15A1.94,1.94,0,0,1,26,9.3,1.87,1.87,0,0,1,28,11Z"/><path class="cls-1" d="M31.62,11.1l-.73.74a.63.63,0,0,0-.51-.24.66.66,0,0,0-.64.72v2.35h-1v-3.9h.95v.38a1.3,1.3,0,0,1,1-.42A1.13,1.13,0,0,1,31.62,11.1Z"/><path class="cls-1" d="M35.15,12.61V13H32.71a.8.8,0,0,0,.85.87,1.08,1.08,0,0,0,.88-.37l.6.58a1.85,1.85,0,0,1-1.48.61c-.93,0-1.81-.42-1.81-2,0-1.27.69-2,1.7-2A1.68,1.68,0,0,1,35.15,12.61Zm-2.36-.67a1,1,0,0,0-.08.42h1.47a.83.83,0,0,0-.08-.42.67.67,0,0,0-.65-.4A.68.68,0,0,0,32.79,11.94Z"/><path class="cls-1" d="M38.88,11.07a1.43,1.43,0,0,1,.4,1.11v2.49h-1V12.31a.65.65,0,1,0-1.3,0v2.36H36v-3.9h1v.36a1.33,1.33,0,0,1,1-.4A1.24,1.24,0,0,1,38.88,11.07Z"/><path class="cls-1" d="M43.14,11.18l-.6.61a1.36,1.36,0,0,0-.91-.26c-.39,0-.55.18-.55.37s.11.31.4.34l.62.06c.77.07,1.15.48,1.15,1.14,0,.86-.73,1.27-1.65,1.27a2.1,2.1,0,0,1-1.66-.56l.64-.63a1.4,1.4,0,0,0,1,.36c.33,0,.69-.11.69-.4s-.1-.33-.42-.36l-.61-.06c-.7-.07-1.14-.37-1.14-1.09s.71-1.24,1.51-1.24A2.13,2.13,0,0,1,43.14,11.18Z"/><path class="cls-1" d="M46.33,14.67V12.31a.62.62,0,0,0-.64-.71.63.63,0,0,0-.65.71v2.36h-1V9.35h1v1.78a1.25,1.25,0,0,1,1-.4,1.3,1.3,0,0,1,.92.34,1.47,1.47,0,0,1,.4,1.11v2.49Z"/><path class="cls-1" d="M51.29,12.1v2.57h-.94v-.34a1.21,1.21,0,0,1-1,.38,1.35,1.35,0,0,1-1-.35,1.23,1.23,0,0,1-.32-.87c0-.62.43-1.13,1.35-1.13h.9v-.2c0-.42-.21-.61-.72-.61a.87.87,0,0,0-.75.34l-.61-.61a1.62,1.62,0,0,1,1.4-.55C50.73,10.73,51.29,11.19,51.29,12.1ZM49.58,13c-.39,0-.57.16-.57.45s.18.44.59.44a.74.74,0,0,0,.57-.18c.12-.1.15-.25.15-.5V13Z"/><path class="cls-1" d="M56.25,14.67h-.8l-.82-2.45-.81,2.45H53l-1.2-3.9h1l.63,2.41.8-2.41H55l.8,2.41.62-2.41h1Z"/></svg>