<svg id="Layer_1" data-name="Layer 1" xmlns="http://www.w3.org/2000/svg" viewBox="0 0 49 26.97"><defs><style>.Station-box-10{fill:#231f20;}.cls-1{fill:#fff;}.cls-2{fill:none;stroke:#231f20;stroke-width:2.06px;}</style></defs><rect class="Station-box-10" width="49" height="16.94"/><path class="cls-1" d="M6.51,7.2h-1V4.1L4.45,6h-.7l-1-1.89V7.2h-1V1.87h1L4.1,4.63,5.48,1.87h1Z"/><path class="cls-1" d="M10.55,4.63V7.2h-1V6.86a1.17,1.17,0,0,1-.95.37,1.39,1.39,0,0,1-1-.34A1.24,1.24,0,0,1,7.33,6c0-.63.43-1.13,1.35-1.13h.9v-.2c0-.42-.21-.61-.72-.61a.87.87,0,0,0-.75.34L7.5,3.81a1.61,1.61,0,0,1,1.39-.55C10,3.26,10.55,3.72,10.55,4.63Zm-1.71.92c-.39,0-.57.16-.57.45s.18.44.59.44a.71.71,0,0,0,.57-.19c.11-.09.15-.24.15-.49V5.55Z"/><path class="cls-1" d="M14.39,3.62l-.73.74a.63.63,0,0,0-.51-.23.66.66,0,0,0-.64.72V7.2h-1V3.3h1v.38a1.3,1.3,0,0,1,1-.42A1.16,1.16,0,0,1,14.39,3.62Z"/><path class="cls-1" d="M16,3.41h.69v.74H16V6a.31.31,0,0,0,.34.35h.35V7.2h-.53A1.06,1.06,0,0,1,15,6.08V4.15h-.41V3.41H15V2.26h1Z"/><path class="cls-1" d="M18.45,2.64h-1v-.8h1Zm0,4.56h-1V3.41h1Z"/><path class="cls-1" d="M22.31,3.6a1.46,1.46,0,0,1,.39,1.11V7.2h-1V4.84a.65.65,0,1,0-1.29,0V7.2h-1V3.3h1v.36a1.31,1.31,0,0,1,1-.4A1.25,1.25,0,0,1,22.31,3.6Z"/><path class="cls-1" d="M26.48,6.27h2.41V7.2H25.44V1.87h1Z"/><path class="cls-1" d="M32.79,7.2h-.95V6.84a1.31,1.31,0,0,1-1,.4A1.27,1.27,0,0,1,30,6.9a1.47,1.47,0,0,1-.4-1.11V3.3h1V5.66a.65.65,0,1,0,1.3,0V3.3h1Z"/><path class="cls-1" d="M34.88,3.41h.69v.74h-.69V6a.31.31,0,0,0,.34.35h.35V7.2H35a1.06,1.06,0,0,1-1.13-1.12V4.15H33.5V3.41h.41V2.26h1Z"/><path class="cls-1" d="M38.66,7.2V4.84a.65.65,0,1,0-1.3,0V7.2h-1V1.87h1V3.66a1.37,1.37,0,0,1,1.87-.06,1.42,1.42,0,0,1,.4,1.11V7.2Z"/><path class="cls-1" d="M43.81,5.14v.41H41.38a.79.79,0,0,0,.85.87,1.07,1.07,0,0,0,.87-.37l.6.58a1.85,1.85,0,0,1-1.48.61c-.93,0-1.8-.42-1.8-2,0-1.27.69-2,1.7-2A1.67,1.67,0,0,1,43.81,5.14Zm-2.35-.67a.81.81,0,0,0-.08.42h1.47a1.08,1.08,0,0,0-.08-.42.7.7,0,0,0-.65-.41A.68.68,0,0,0,41.46,4.47Z"/><path class="cls-1" d="M47.5,3.62l-.73.74a.65.65,0,0,0-.51-.23.66.66,0,0,0-.64.72V7.2h-1V3.3h1v.38a1.29,1.29,0,0,1,1-.42A1.16,1.16,0,0,1,47.5,3.62Z"/><path class="cls-1" d="M15.31,11.46l1.9,3.21H16l-1.37-2.42-.7.82v1.6h-1V9.35h1v2.31l1.89-2.31h1.27Z"/><path class="cls-1" d="M18.71,10.11h-1V9.32h1Zm0,4.56h-1V10.89h1Z"/><path class="cls-1" d="M22.56,11.07a1.43,1.43,0,0,1,.4,1.11v2.49H22V12.31a.65.65,0,1,0-1.3,0v2.36h-1v-3.9h1v.36a1.33,1.33,0,0,1,1-.4A1.24,1.24,0,0,1,22.56,11.07Z"/><path class="cls-1" d="M26.06,11.14v-.37H27v3.76a1.58,1.58,0,0,1-1.71,1.61,1.8,1.8,0,0,1-1.41-.51l.61-.61a1,1,0,0,0,.76.3.73.73,0,0,0,.78-.81v-.39a1.15,1.15,0,0,1-.93.38,1.27,1.27,0,0,1-.92-.34,2.05,2.05,0,0,1-.4-1.55,2,2,0,0,1,.4-1.54,1.32,1.32,0,0,1,.93-.34A1.14,1.14,0,0,1,26.06,11.14Zm-1.31,1.47c0,.52.06,1,.64,1s.64-.5.64-1-.06-1-.64-1S24.75,12.1,24.75,12.61Z"/><path class="cls-1" d="M32.43,12.92a1.92,1.92,0,0,1-3.25,1.25l.69-.68a.83.83,0,0,0,.68.3c.51,0,.84-.3.84-.92V9.35h1Z"/><path class="cls-1" d="M36.3,11.1l-.73.74a.65.65,0,0,0-1.15.48v2.35h-1v-3.9h.95v.38a1.29,1.29,0,0,1,1-.42A1.15,1.15,0,0,1,36.3,11.1Z"/><path class="cls-1" d="M20.79,22.23a3.71,3.71,0,1,1,3.71,3.71A3.71,3.71,0,0,1,20.79,22.23Z"/><path class="cls-2" d="M20.79,22.23a3.71,3.71,0,1,1,3.71,3.71A3.71,3.71,0,0,1,20.79,22.23Z"/></svg>