<svg id="Layer_1" data-name="Layer 1" xmlns="http://www.w3.org/2000/svg" viewBox="0 0 41.18 26.97"><defs><style>.Station-box-10{fill:#231f20;}.cls-1{fill:#fff;}.cls-2{fill:none;stroke:#231f20;stroke-width:2.06px;}</style></defs><rect class="Station-box-10" width="41.18" height="16.94"/><path class="cls-1" d="M5.18,1.87a1.84,1.84,0,0,1,1.61.78,3.09,3.09,0,0,1,.33,1.89,3.07,3.07,0,0,1-.33,1.88,1.84,1.84,0,0,1-1.61.78H3.26V1.87ZM4.3,2.8V6.27h.79a.92.92,0,0,0,.78-.33c.19-.23.21-.56.21-1.4s0-1.18-.21-1.41a.92.92,0,0,0-.78-.33Z"/><path class="cls-1" d="M10.8,6.76a1.62,1.62,0,0,1-1.21.48,1.6,1.6,0,0,1-1.21-.48,2,2,0,0,1-.44-1.51,2,2,0,0,1,.44-1.52,1.64,1.64,0,0,1,1.21-.47,1.62,1.62,0,0,1,1.21.47,2,2,0,0,1,.44,1.52A1.93,1.93,0,0,1,10.8,6.76ZM10,4.3a.68.68,0,0,0-.9,0,1.35,1.35,0,0,0-.22,1,1.31,1.31,0,0,0,.22.94.65.65,0,0,0,.9,0,1.26,1.26,0,0,0,.23-.94A1.3,1.3,0,0,0,10,4.3Z"/><path class="cls-1" d="M16,7.2h-.8l-.82-2.45L13.61,7.2h-.8l-1.2-3.9h1l.63,2.41.79-2.41h.71l.8,2.41L16.2,3.3h1Z"/><path class="cls-1" d="M20.64,3.6A1.43,1.43,0,0,1,21,4.71V7.2h-1V4.84a.65.65,0,1,0-1.3,0V7.2h-1V3.3h.95v.36a1.31,1.31,0,0,1,1-.4A1.25,1.25,0,0,1,20.64,3.6Z"/><path class="cls-1" d="M23.14,3.41h.69v.74h-.69V6a.31.31,0,0,0,.34.35h.35V7.2H23.3a1.06,1.06,0,0,1-1.13-1.12V4.15h-.41V3.41h.41V2.26h1Z"/><path class="cls-1" d="M27.37,6.76a1.63,1.63,0,0,1-1.22.48A1.59,1.59,0,0,1,25,6.76a2,2,0,0,1-.44-1.51A2,2,0,0,1,25,3.73a1.79,1.79,0,0,1,2.42,0,2,2,0,0,1,.44,1.52A2,2,0,0,1,27.37,6.76ZM26.61,4.3a.62.62,0,0,0-.46-.17.6.6,0,0,0-.44.17,1.3,1.3,0,0,0-.23,1,1.26,1.26,0,0,0,.23.94.57.57,0,0,0,.44.18.59.59,0,0,0,.46-.18,1.31,1.31,0,0,0,.22-.94A1.35,1.35,0,0,0,26.61,4.3Z"/><path class="cls-1" d="M32.6,7.2h-.8L31,4.75,30.17,7.2h-.79l-1.2-3.9h1l.63,2.41.79-2.41h.71l.8,2.41.63-2.41h1Z"/><path class="cls-1" d="M37.21,3.6a1.46,1.46,0,0,1,.39,1.11V7.2h-1V4.84a.65.65,0,1,0-1.29,0V7.2h-1V3.3h.94v.36a1.35,1.35,0,0,1,1-.4A1.25,1.25,0,0,1,37.21,3.6Z"/><path class="cls-1" d="M4.5,14.67h-1V9.35h1Z"/><path class="cls-1" d="M8.51,11.07a1.47,1.47,0,0,1,.4,1.11v2.49h-1V12.31a.62.62,0,0,0-.64-.71.63.63,0,0,0-.65.71v2.36h-1v-3.9h1v.36a1.31,1.31,0,0,1,1-.4A1.25,1.25,0,0,1,8.51,11.07Z"/><path class="cls-1" d="M12.07,11.14v-.37H13v3.76a1.58,1.58,0,0,1-1.71,1.61,1.84,1.84,0,0,1-1.42-.51L10.5,15a1,1,0,0,0,.76.3.73.73,0,0,0,.78-.81v-.39a1.15,1.15,0,0,1-.93.38,1.27,1.27,0,0,1-.92-.34,2,2,0,0,1-.4-1.55,2,2,0,0,1,.4-1.54,1.32,1.32,0,0,1,.93-.34A1.14,1.14,0,0,1,12.07,11.14Zm-1.31,1.47c0,.52.06,1,.64,1s.64-.5.64-1-.06-1-.64-1S10.76,12.1,10.76,12.61Z"/><path class="cls-1" d="M15,13.5c0,.23.1.35.35.35h.37v.82H15.2a1.06,1.06,0,0,1-1.14-1.12V9.35h1Z"/><path class="cls-1" d="M19.65,12.61V13H17.21a.8.8,0,0,0,.86.87,1.07,1.07,0,0,0,.87-.37l.6.58a1.85,1.85,0,0,1-1.48.61c-.93,0-1.8-.41-1.8-2,0-1.27.68-2,1.69-2A1.67,1.67,0,0,1,19.65,12.61Zm-2.35-.67a1,1,0,0,0-.09.42h1.48a1,1,0,0,0-.09-.42.73.73,0,0,0-1.3,0Z"/><path class="cls-1" d="M24.42,14.67h-.8l-.82-2.45L22,14.67h-.8L20,10.77h1l.63,2.41.79-2.41h.71l.8,2.41.63-2.41h1Z"/><path class="cls-1" d="M28.83,14.24a1.78,1.78,0,0,1-2.41,0A2,2,0,0,1,26,12.72a2,2,0,0,1,.44-1.51,1.75,1.75,0,0,1,2.41,0,1.94,1.94,0,0,1,.45,1.51A2,2,0,0,1,28.83,14.24Zm-.75-2.46a.59.59,0,0,0-.46-.18.61.61,0,0,0-.45.18,1.31,1.31,0,0,0-.22.94,1.35,1.35,0,0,0,.22.95.64.64,0,0,0,.45.17.62.62,0,0,0,.46-.17,1.35,1.35,0,0,0,.22-.95A1.31,1.31,0,0,0,28.08,11.78Z"/><path class="cls-1" d="M32.89,14.24a1.64,1.64,0,0,1-1.21.47,1.59,1.59,0,0,1-1.2-.47A2,2,0,0,1,30,12.72a2,2,0,0,1,.44-1.51,1.56,1.56,0,0,1,1.2-.48,1.6,1.6,0,0,1,1.21.48,2,2,0,0,1,.44,1.51A2,2,0,0,1,32.89,14.24Zm-.75-2.46a.6.6,0,0,0-.46-.18.58.58,0,0,0-.45.18,1.31,1.31,0,0,0-.22.94,1.35,1.35,0,0,0,.22.95.61.61,0,0,0,.45.17.64.64,0,0,0,.46-.17,1.35,1.35,0,0,0,.22-.95A1.31,1.31,0,0,0,32.14,11.78Z"/><path class="cls-1" d="M37.36,14.67h-1V14.3a1.16,1.16,0,0,1-1,.41,1.28,1.28,0,0,1-1-.35,2.25,2.25,0,0,1-.41-1.64,2.26,2.26,0,0,1,.41-1.64,1.29,1.29,0,0,1,.94-.35,1.17,1.17,0,0,1,1,.39V9.35h1Zm-2.3-1.95c0,.63.08,1.12.66,1.12s.67-.49.67-1.12-.08-1.12-.67-1.12S35.06,12.09,35.06,12.72Z"/><path class="cls-1" d="M16.88,22.23a3.71,3.71,0,1,1,3.71,3.71A3.71,3.71,0,0,1,16.88,22.23Z"/><path class="cls-2" d="M16.88,22.23a3.71,3.71,0,1,1,3.71,3.71A3.71,3.71,0,0,1,16.88,22.23Z"/></svg>