<?xml version="1.0" encoding="utf-8"?>
<!-- Generator: Adobe Illustrator 26.0.1, SVG Export Plug-In . SVG Version: 6.00 Build 0)  -->
<svg version="1.1" xmlns="http://www.w3.org/2000/svg" xmlns:xlink="http://www.w3.org/1999/xlink" x="0px" y="0px"
	 viewBox="0 0 414 576" style="enable-background:new 0 0 414 576;" xml:space="preserve">
<style type="text/css">
	.st0{filter:url(#blur);}
	.st1{fill:#26A7BD;}
	.st2{fill:#FFFFFF;}
</style>
<filter  id="blur">
	<feGaussianBlur  stdDeviation="10"></feGaussianBlur>
</filter>
<g id="Layer_2">
	<g class="st0">
		<g id="Layer_1_00000142882989915717606260000001309334757491860107_">
			<g id="Wayfinding_Signage_00000004511295664811591240000004449697094201451447_">
				<path d="M376.2,205.5c0,27.9-7,55.4-20.4,79.9L209.7,536.2c-1.4,2.5-3.8,2.5-5.3,0l-146-250.5c-13.5-24.6-20.6-52.2-20.6-80.2
					c0-6.7,0.4-13.4,1.2-20c10.1-84.2,82.4-147.6,168-147.6s157.9,63.4,168,147.5C375.8,192.1,376.2,198.8,376.2,205.5z"/>
			</g>
		</g>
	</g>
</g>
<g id="Layer_1">
	<g>
		<g id="Layer_1_00000148653072290056585560000005051776083701565359_">
			<g id="Street_Furniture">
				<path class="st1" d="M376.4,204.8c0,27.9-7,55.4-20.4,79.9L209.9,535.4c-1.4,2.5-3.8,2.5-5.3,0L58.6,285
					C45.1,260.4,38,232.8,38,204.8c0-6.7,0.4-13.4,1.2-20c10.1-84.2,82.3-147.6,168-147.6s157.9,63.4,168,147.5
					C376,191.3,376.4,198,376.4,204.8z"/>
				<path class="st2" d="M74.6,199.9h177v17.5c0.1,4.6-3.6,8.4-8.2,8.4H82.8c-4.6-0.1-8.3-3.8-8.2-8.4c0,0,0,0,0,0V199.9z"/>
				<path class="st2" d="M234.9,193.6v-43.9c0-5.5-5.2-10-11.5-10H102.8c-6.4,0-11.5,4.4-11.5,10v43.9"/>
				<path class="st2" d="M246.2,215.4c-2.9,0-5.3-2.3-5.3-5.2c0,0,0,0,0,0v-26.9c0.1-2.9,2.6-5.2,5.6-5.1c2.8,0.1,5,2.3,5.1,5.1
					v26.9C251.5,213.1,249.2,215.5,246.2,215.4C246.2,215.4,246.2,215.4,246.2,215.4z"/>
				<path class="st2" d="M79.9,215.4c-2.9,0-5.3-2.3-5.3-5.2c0,0,0,0,0,0v-26.9c0.1-2.9,2.6-5.2,5.6-5.1c2.8,0.1,5,2.3,5.1,5.1v26.9
					C85.2,213.1,82.9,215.5,79.9,215.4C79.9,215.4,79.9,215.4,79.9,215.4z"/>
				<path class="st2" d="M235.8,265.2c-2.7,0-5-2.2-5-4.9v-26.9c0-2.8,2.3-5,5-5s5,2.3,5,5v26.9C240.9,263,238.6,265.2,235.8,265.2
					C235.8,265.2,235.8,265.2,235.8,265.2z"/>
				<path class="st2" d="M89.9,265.2c-2.7,0-5-2.2-5-4.9v-26.9c0-2.8,2.3-5,5-5s5,2.3,5,5v26.9C95,263,92.7,265.2,89.9,265.2
					C89.9,265.2,89.9,265.2,89.9,265.2z"/>
				<path class="st2" d="M328.3,266.6h-56.2c-2.8,0-5.2-2.3-5.2-5.1c0,0,0,0,0,0V171c0-6.9,5.1-11.9,12-11.9h42.5c7,0,12,5,12,11.9
					v90.6C333.3,264.4,331.1,266.6,328.3,266.6z"/>
				<polygon class="st1" points="286.4,185.7 280.3,185.7 280.3,169.2 320.1,169.2 320.1,185.6 314,185.6 314,175.2 286.4,175.2 
									"/>
			</g>
		</g>
	</g>
</g>
</svg>
