<?xml version="1.0" encoding="utf-8"?>
<!-- Generator: Adobe Illustrator 26.0.1, SVG Export Plug-In . SVG Version: 6.00 Build 0)  -->
<svg version="1.1" xmlns="http://www.w3.org/2000/svg" xmlns:xlink="http://www.w3.org/1999/xlink" x="0px" y="0px"
	 viewBox="0 0 414 576" style="enable-background:new 0 0 414 576;" xml:space="preserve">
<style type="text/css">
	.st0{filter:url(#blur);}
	.st1{fill:#26A7BD;}
	.st2{fill:#FFFFFF;}
</style>
<filter  id="blur">
	<feGaussianBlur  stdDeviation="10"></feGaussianBlur>
</filter>
<g id="Layer_2">
	<g class="st0">
		<g id="Layer_1_00000001642600017299669990000007646217697357256112_">
			<g id="Wayfinding_Signage_00000112633164506742072010000015968381200723890577_">
				<path d="M376.2,205.5c0,27.9-7,55.4-20.4,79.9L209.7,536.2c-1.4,2.5-3.8,2.5-5.3,0l-146-250.5c-13.5-24.6-20.6-52.2-20.6-80.2
					c0-6.7,0.4-13.4,1.2-20c10.1-84.2,82.4-147.6,168-147.6s157.9,63.4,168,147.5C375.8,192.1,376.2,198.8,376.2,205.5z"/>
			</g>
		</g>
	</g>
</g>
<g id="Layer_1">
	<g>
		<g id="Layer_1_00000107582375566530983680000014945431984529120941_">
			<g id="Street_Lights">
				<path class="st1" d="M376.2,205.5c0,27.9-7,55.4-20.4,79.9L209.7,536.2c-1.4,2.5-3.8,2.5-5.3,0l-146-250.5
					c-13.5-24.6-20.6-52.2-20.6-80.2c0-6.7,0.4-13.4,1.2-20c10.1-84.1,82.4-147.6,168-147.6s157.9,63.4,168,147.5
					C375.8,192.1,376.2,198.8,376.2,205.5z"/>
				<path class="st2" d="M235.6,263.8c-0.1-0.5-0.3-1-0.7-1.3c-0.9-0.9-3.9-1.4-9-1.3l-2.7-5l0,0l-3.6-6.8c0-0.1-0.1-0.2-0.2-0.3
					c-4.7-7.2-9.9-11.6-41.6-11.7s-36.9,4.5-41.6,11.7c-0.1,0.1-0.1,0.2-0.2,0.3l-3.6,6.7l0,0l-2.7,5c-5,0-8,0.4-9,1.3
					c-0.4,0.3-0.6,0.8-0.7,1.3c0,3.5,1.5,5.6,4.8,6.6l-1.8,3.4c-0.6,1.2-1,2.6-1,4v39.4c0,2.8,2.2,5.1,5,5.1h3.4c2.8,0,5-2.3,5-5.1
					v-5.1h84.7v5.1c0,2.8,2.2,5.1,5,5.1h3.4c2.8,0,5-2.3,5-5.1v-39.3c0-1.4-0.4-2.8-1-4l-1.8-3.4C234,269.5,235.6,267.4,235.6,263.8
					z M138.6,259.1L138.6,259.1l3.4-6.3c1.5-2.7,4-4.7,7-5.6c5.4-1.9,14.9-2.9,28.9-2.9s23.5,1,28.9,2.9c3,0.8,5.5,2.9,7,5.6
					l3.4,6.3l0,0l4.8,8.9h-88.1L138.6,259.1z M139,291.9c-3.8,0-6.8-3-6.8-6.8c0-3.8,3-6.8,6.8-6.8c3.8,0,6.8,3,6.8,6.8c0,0,0,0,0,0
					C145.8,288.8,142.8,291.9,139,291.9L139,291.9z M216.6,291.9c-3.8,0-6.8-3-6.8-6.8c0-3.8,3-6.8,6.8-6.8c3.8,0,6.8,3,6.8,6.8
					c0,0,0,0,0,0C223.4,288.8,220.4,291.9,216.6,291.9C216.6,291.9,216.6,291.9,216.6,291.9L216.6,291.9z"/>
				<path class="st2" d="M198.2,118.5h-37.1c-2.4,0.1-4.5-1.8-4.6-4.2c0-11.7,10.4-21.2,23.1-21.2s23.1,9.5,23.1,21.2
					C202.7,116.7,200.6,118.6,198.2,118.5z"/>
				<path class="st2" d="M179.5,140.2l0.1,0c2.1,0,3.8,1.7,3.8,3.8l0,21.4c0,2.1-1.7,3.8-3.8,3.8l-0.1,0c-2.1,0-3.8-1.7-3.8-3.8
					l0-21.4C175.6,141.9,177.3,140.2,179.5,140.2z"/>
				<path class="st2" d="M211.1,129.9L211.1,129.9c1.7-1.3,4.2-0.9,5.4,0.9l12.5,17.2c1.3,1.7,0.9,4.2-0.8,5.4h0
					c-1.7,1.3-4.2,0.9-5.4-0.9l-12.5-17.2C209,133.6,209.4,131.2,211.1,129.9z"/>
				<path class="st2" d="M130,148.1l12.5-17.2c1.3-1.7,3.7-2.1,5.4-0.9h0c1.7,1.3,2.1,3.7,0.9,5.4l-12.5,17.2
					c-1.3,1.7-3.7,2.1-5.4,0.9l0,0C129.1,152.3,128.7,149.9,130,148.1z"/>
				<path class="st2" d="M269.2,325.7c-4.4,0-7.9-3.1-7.9-6.9V115.3c0-3.8,3.5-6.9,7.9-6.9s7.9,3.1,7.9,6.9v203.5
					C277.1,322.6,273.6,325.7,269.2,325.7z"/>
				<path class="st2" d="M196.9,101.2c-2.8-0.2-5.3,1.8-5.5,4.6c-0.2,2.8,1.8,5.3,4.6,5.5l6.6,0.6c-0.7-3.9-2.4-7.6-5-10.6
					L196.9,101.2z"/>
				<path class="st2" d="M217,102.9l-12.8-1.1c1.9,3.2,3.1,6.8,3.6,10.5l8.3,0.7c17.2,1.4,32.4,11.7,40.2,27.1v-17.8
					C246.2,111,232.1,104.1,217,102.9z"/>
			</g>
		</g>
	</g>
</g>
</svg>
