<?xml version="1.0" encoding="utf-8"?>
<!-- Generator: Adobe Illustrator 26.0.1, SVG Export Plug-In . SVG Version: 6.00 Build 0)  -->
<svg version="1.1" xmlns="http://www.w3.org/2000/svg" xmlns:xlink="http://www.w3.org/1999/xlink" x="0px" y="0px"
	 viewBox="0 0 414 576" style="enable-background:new 0 0 414 576;" xml:space="preserve">
<style type="text/css">
	.st0{filter:url(#blur);}
	.st1{fill:#26A7BD;}
	.st2{fill:#FFFFFF;}
</style>
<filter  id="blur">
	<feGaussianBlur  stdDeviation="10"></feGaussianBlur>
</filter>
<g id="Layer_2">
	<g class="st0">
		<g id="Layer_1_00000038389791306643959540000005549670152543931071_">
			<g id="Wayfinding_Signage_00000106133016904326334300000017377646250543643542_">
				<path d="M376.2,205.5c0,27.9-7,55.4-20.4,79.9L209.7,536.2c-1.4,2.5-3.8,2.5-5.3,0l-146-250.5c-13.5-24.6-20.6-52.2-20.6-80.2
					c0-6.7,0.4-13.4,1.2-20c10.1-84.2,82.4-147.6,168-147.6s157.9,63.4,168,147.5C375.8,192.1,376.2,198.8,376.2,205.5z"/>
			</g>
		</g>
	</g>
</g>
<g id="Layer_1">
	<g>
		<g id="Layer_1_00000111879472014549515310000010230211968347277222_">
			<g id="Underpass_Improvements">
				<path class="st1" d="M376.2,205.5c0,27.9-7,55.4-20.4,79.9L209.7,536.2c-1.4,2.5-3.8,2.5-5.3,0l-146-250.5
					c-13.5-24.6-20.6-52.2-20.6-80.2c0-6.7,0.4-13.4,1.2-20c10.1-84.2,82.3-147.6,168-147.6s157.9,63.4,168,147.5
					C375.8,192.1,376.2,198.8,376.2,205.5z"/>
				<path class="st2" d="M226.3,245.6c-0.1-0.4-0.3-0.8-0.6-1c-0.8-0.7-3.2-1.1-7.3-1.1l-2.1-4.1l0,0l-3-5.5c0-0.1-0.1-0.2-0.1-0.2
					c-3.8-5.8-8-9.5-33.8-9.5s-30,3.7-33.8,9.5c0,0.1-0.1,0.1-0.1,0.2l-2.9,5.5l0,0l-2.2,4.1c-4.1,0-6.5,0.3-7.3,1.1
					c-0.3,0.2-0.5,0.6-0.6,1c0,2.9,1.2,4.6,3.9,5.3l-1.5,2.8c-0.5,1-0.8,2.1-0.8,3.3v32c0,2.3,1.8,4.1,4.1,4.1h2.8
					c2.3,0,4.1-1.9,4.1-4.1v-4.1h68.8v4.2c0,2.3,1.8,4.1,4.1,4.1h2.8c2.3,0,4.1-1.9,4.1-4.1v-32c0-1.1-0.3-2.3-0.8-3.3l-1.5-2.8
					C225.1,250.1,226.3,248.5,226.3,245.6z M147.5,241.7L147.5,241.7l2.7-5.1c1.2-2.2,3.2-3.9,5.7-4.6c4.4-1.5,12.1-2.4,23.5-2.4
					s19.1,0.9,23.5,2.4c2.4,0.7,4.5,2.3,5.7,4.5l2.7,5.1l0,0l3.9,7.2h-71.5L147.5,241.7z M147.9,268.4c-3,0-5.5-2.5-5.5-5.5
					c0-3,2.5-5.5,5.5-5.5c3,0,5.5,2.5,5.5,5.5C153.4,265.9,150.9,268.4,147.9,268.4C147.9,268.4,147.9,268.4,147.9,268.4
					L147.9,268.4z M210.9,268.4c-3,0-5.5-2.5-5.5-5.5c0-3,2.5-5.5,5.5-5.5c3,0,5.5,2.5,5.5,5.5C216.4,265.9,213.9,268.3,210.9,268.4
					L210.9,268.4z"/>
				<path class="st2" d="M244.7,265.6l1.5-7.5l0,0l2.9-14.4l0,0v-0.1l0,0l0.2-1.1c1.5,1.5,3.4,2.6,5.5,3.1c1,0.2,1.9,0.4,2.9,0.4
					c1.2,0,2.3-0.2,3.5-0.6l-0.3,1.3l8.6,15.1c0.4,0.7,0.7,1.4,0.9,2.2l0,0l3.9,16.5v0.1c0,0.1,0,0.2,0,0.3l0,0
					c0.2,1.5-0.8,2.9-2.3,3.2c-1.3,0.2-2.5-0.5-3-1.7l0,0c0-0.1-0.1-0.2-0.1-0.3c0-0.1,0-0.1,0-0.2l-4.7-16.3l0,0l-8.2-12.6l0,0
					c-0.1-0.2-0.2-0.3-0.4-0.3c-0.2,0-0.3,0.1-0.4,0.2l-4.4,14.2l0,0v0.1l-5.3,14.9l0,0c-0.5,1.5-2.1,2.3-3.5,1.8
					c-1.5-0.5-2.3-2.1-1.8-3.5L244.7,265.6z"/>
				<path class="st2" d="M255.2,243.5c-2.1-0.6-4-2-5.2-3.9l2.4-8.1c0.1-0.5-0.2-1-0.6-1.1c-0.2-0.1-0.4,0-0.6,0.1
					c0,0-3.3,1.2-4.1,1.4c-0.2,0.3-1.8,13.4-1.8,13.4c-0.3,1.5-1.8,2.5-3.3,2.2c0,0-0.1,0-0.1,0c-1.5-0.5-2.3-2-2-3.5l1.9-13.3
					c0.2-1.5,1.1-2.8,2.4-3.6c1.2-0.7,12.4-6.3,15-5.7c0.7,1,1.8,1.8,3,2.2c0.9,0.3,1.9,0.4,2.9,0.3h0.3c0.7,0.1,2,1.8,2.5,2.9l1,3
					l0,0l2.4,6.7l9.7,5.1h0.1l0.1,0.1l0,0l0,0c1.3,0.8,1.8,2.5,1.1,3.8s-2.5,1.8-3.8,1.1l-0.1-0.1l0,0l-10.3-4.9l0,0h0h-0.1l0,0
					c-1.1-0.7-1.9-1.7-2.4-2.9l0,0l0,0c-0.1-0.3-0.2-0.7-0.3-1l-0.7-1.9c0,0-0.1-0.1-0.1-0.1c-0.1,0-0.1,0-0.1,0.1l-2.5,7.5
					C259.7,244.2,257.3,244.3,255.2,243.5z"/>
				<path class="st2" d="M269.7,218c-0.6,2.3-2.6,3.9-5,4c-0.4,0-0.8-0.1-1.2-0.2c-2.7-0.9-4.3-3.8-3.4-6.5l0.7-2.6
					c0.6-2.3,2.6-3.9,5-4c0.4,0,0.8,0.1,1.2,0.2c2.7,0.9,4.2,3.8,3.4,6.5L269.7,218z"/>
				<path class="st2" d="M92.6,121.1v171.8h31.9v-92.8c0-20.6,16.7-37.3,37.3-37.3l0,0H253c20.6,0,37.3,16.7,37.3,37.3v92.8h31.2
					V121.1H92.6z"/>
				<path class="st2" d="M296.9,292.9h-60c-1.7,0-3.1-1.4-3.1-3.1c0-1.7,1.4-3.1,3.1-3.1c0,0,0,0,0,0h60c1.7,0,3.1,1.4,3.1,3.1
					C300,291.5,298.6,292.9,296.9,292.9z"/>
			</g>
		</g>
	</g>
</g>
</svg>
