<?xml version="1.0" encoding="utf-8"?>
<!-- Generator: Adobe Illustrator 26.0.1, SVG Export Plug-In . SVG Version: 6.00 Build 0)  -->
<svg version="1.1" xmlns="http://www.w3.org/2000/svg" xmlns:xlink="http://www.w3.org/1999/xlink" x="0px" y="0px"
	 viewBox="0 0 414 576" style="enable-background:new 0 0 414 576;" xml:space="preserve">
<style type="text/css">
	.st0{filter:url(#blur);}
	.st1{opacity:0.75;}
	.st2{fill:#26A7BD;}
	.st3{fill:#FFFFFF;}
	.st4{fill:#FFFEFF;}
	.st5{clip-path:url(#SVGID_00000015320792778939715870000011328786678025608596_);}
</style>
<filter  id="blur">
	<feGaussianBlur  stdDeviation="10"></feGaussianBlur>
</filter>
<g id="Layer_2">
	<g class="st0">
		<g id="Layer_1_00000088828287508920471150000009938343036591507593_">
			<g id="Wayfinding_Signage_00000041281788422469443090000004870399460259783102_">
				<path d="M376.2,205.5c0,27.9-7,55.4-20.4,79.9L209.7,536.2c-1.4,2.5-3.8,2.5-5.3,0l-146-250.5c-13.5-24.6-20.6-52.2-20.6-80.2
					c0-6.7,0.4-13.4,1.2-20c10.1-84.2,82.4-147.6,168-147.6s157.9,63.4,168,147.5C375.8,192.1,376.2,198.8,376.2,205.5z"/>
			</g>
		</g>
	</g>
</g>
<g id="Layer_1">
	<g id="Layer_1_00000092450628466731091810000004484589263976473263_">
		<g id="Layer_2_00000149367292273880465470000002767514256493392276_">
			<g class="st1">
				<path d="M376.1,205.5c0,27.9-7,55.4-20.4,79.9L209.5,536.2c-1.5,2.5-3.8,2.5-5.3,0l-146-250.5c-13.5-24.6-20.6-52.2-20.6-80.2
					c0-6.7,0.4-13.4,1.2-20c10.1-84.2,82.3-147.6,168-147.6s157.9,63.4,168,147.6C375.6,192.1,376,198.8,376.1,205.5z"/>
			</g>
		</g>
		<g id="Layer_1_00000022518323211693282290000003031537589195452863_">
			<g>
				<g id="Layer_1_00000013874047733956275010000017436097162444232110_">
					<g id="Bicycle-Friendly_Intersection">
						<path class="st2" d="M376.2,205.5c0,27.9-7,55.4-20.4,79.9L209.6,536.2c-1.5,2.5-3.8,2.5-5.3,0l-146-250.5
							c-13.5-24.6-20.6-52.2-20.6-80.2c0-6.7,0.4-13.4,1.2-20c10.1-84.2,82.3-147.6,168-147.6s157.9,63.4,168,147.6
							C375.7,192.1,376.1,198.8,376.2,205.5z"/>
						<path class="st3" d="M268,254.3c-21.6,0-39.2-17.5-39.2-39.1s17.5-39.2,39.1-39.2s39.2,17.5,39.2,39.1c0,0,0,0,0,0.1
							C307.1,236.7,289.6,254.2,268,254.3z M268,182.9c-17.8,0-32.2,14.4-32.3,32.2c0,17.8,14.4,32.2,32.2,32.3
							c17.8,0,32.2-14.4,32.3-32.2l0,0C300.1,197.3,285.7,182.9,268,182.9L268,182.9z"/>
						<path class="st3" d="M145.2,254.3c-21.6,0-39.2-17.5-39.2-39.1s17.5-39.2,39.1-39.2s39.2,17.5,39.2,39.1l0,0
							C184.4,236.7,166.9,254.2,145.2,254.3z M145.2,182.9c-17.8,0-32.2,14.4-32.3,32.2s14.4,32.2,32.2,32.3s32.2-14.4,32.3-32.2
							l0,0C177.4,197.3,163.1,182.9,145.2,182.9L145.2,182.9z"/>
						<path class="st3" d="M196.4,218.6h-51.1c-1.9,0-3.5-1.5-3.5-3.5c0-0.7,0.2-1.4,0.6-1.9l34.7-52c0.6-1,1.7-1.5,2.9-1.5h64.7
							c1.9,0,3.5,1.5,3.5,3.5s-1.5,3.5-3.5,3.5l0,0h-62.8l-30.1,45.1h44.6c1.9,0,3.5,1.6,3.5,3.5C199.9,217,198.2,218.6,196.4,218.6
							L196.4,218.6z"/>
						<path class="st3" d="M214.9,210c-1.9,0-3.5-1.6-3.4-3.5c0-0.8,0.3-1.6,0.8-2.2l31.5-38.2c1.3-1.4,3.5-1.5,4.9-0.3
							c1.3,1.2,1.5,3.2,0.5,4.6l-31.5,38.2C216.9,209.5,215.9,210,214.9,210z"/>
						<path class="st3" d="M202.4,208.5c-1.3,0-2.4-0.7-3.1-1.8l-27.2-50.8c-1-1.6-0.4-3.8,1.2-4.7s3.8-0.4,4.7,1.2
							c0.1,0.1,0.1,0.2,0.2,0.3l27.2,50.8c0.9,1.7,0.3,3.8-1.4,4.7C203.6,208.3,203.1,208.5,202.4,208.5L202.4,208.5z"/>
						<path class="st3" d="M268,218.6c-1.3,0-2.6-0.8-3.1-2l-30.1-67.2c-1.5-3.3-2.2-4.9-3-5.3c-1.1-0.6-4.2-0.6-8.8-0.6
							c-1.9,0-3.5-1.6-3.5-3.5s1.5-3.5,3.5-3.5c12.1,0,13.9,0.4,18.1,10l30.1,67.2c0.8,1.7,0,3.8-1.7,4.6
							C269,218.5,268.5,218.6,268,218.6z"/>
						<path class="st3" d="M161.9,143.1c0.6-0.1,1.1-0.1,1.7-0.1c3.9,0,7.4,2,12.8,2.5c3.2,0.3,6,0.2,8.2,0.4c1,0,1.9,0.3,2.8,0.7
							c0.8,0.4,1.4,1.2,1.5,2.1c0,0.2,0,0.4,0.1,0.6c0,0.9-0.4,1.7-1.1,2.2c-1.9,1.6-5.6,2.2-10.3,3c-3.1,0.5-5.2,1.6-8.2,1.6l0,0
							c-2.1,0-4.5-0.6-7.8-2.4c-3.1-1.7-4.7-3.8-4.7-5.9C156.9,145.4,158.9,143.6,161.9,143.1"/>
						<path class="st3" d="M204.4,238.3c-0.2,0-0.4,0-0.5,0c-1.9-0.3-3.2-2.1-2.9-4l0,0l3.1-20.2c0.3-1.9,2.1-3.2,3.9-2.9
							s3.2,2.1,2.9,3.9l0,0l-3.2,20.2C207.6,237.1,206.2,238.3,204.4,238.3z"/>
						<path class="st4" d="M206.8,240.3h-12.1c-1.9,0-3.5-1.5-3.5-3.5s1.5-3.5,3.5-3.5l0,0h12.1c1.9,0,3.5,1.6,3.5,3.5
							C210.2,238.8,208.7,240.3,206.8,240.3z"/>
						<path class="st3" d="M209.2,208.3c-0.2,0-0.4,0-0.5,0c-1.9-0.3-3.2-2.1-2.9-3.9l0,0l1.6-10.4c0.2-1.9,1.9-3.3,3.8-3.1
							c1.9,0.2,3.3,1.9,3.1,3.8c0,0.1,0,0.2-0.1,0.3l-1.6,10.3C212.2,207,210.9,208.3,209.2,208.3z"/>
						<path class="st3" d="M219.9,195.2h-12.1c-1.9,0-3.5-1.6-3.5-3.5s1.5-3.5,3.5-3.5h12.1c1.9,0,3.5,1.6,3.5,3.5
							C223.4,193.6,221.9,195.2,219.9,195.2L219.9,195.2z"/>
						<path class="st3" d="M207.9,228.9c-7.6,0-13.8-6.2-13.9-13.8c0-7.6,6.2-13.8,13.8-13.9c7.6,0,13.8,6.2,13.9,13.8l0,0
							C221.7,222.7,215.4,228.9,207.9,228.9z M207.9,208.2c-3.8,0-6.9,3.1-6.9,6.9s3.1,6.9,6.9,6.9c3.8,0,6.9-3.1,6.9-6.9l0,0
							C214.7,211.3,211.7,208.2,207.9,208.2L207.9,208.2z"/>
						<g>
							<g>
								<g>
									<defs>
										<path id="SVGID_1_" d="M207.2,376.3c93.4,0,169.2-75.8,169.2-169.2S300.7,37.9,207.2,37.9C113.8,37.9,38,113.6,38,207.1
											C38.1,300.6,113.8,376.3,207.2,376.3"/>
									</defs>
									<clipPath id="SVGID_00000116196076534994974520000006774208856945273228_">
										<use xlink:href="#SVGID_1_"  style="overflow:visible;"/>
									</clipPath>
									<g style="clip-path:url(#SVGID_00000116196076534994974520000006774208856945273228_);">
										<path class="st3" d="M394.9,386.2H268.5v-68.9c0-31.7,25.7-57.4,57.5-57.5h68.9V386.2z M278.7,376h106.1V269.9H326
											c-26.1,0-47.3,21.2-47.3,47.3V376L278.7,376z"/>
										<path class="st3" d="M143.9,386.2H17.5V259.8h68.9c31.7,0,57.4,25.8,57.5,57.5V386.2z M27.6,376h106.1v-58.8
											c0-26.1-21.2-47.3-47.3-47.3H27.6V376z"/>
										<path class="st3" d="M394.9,161.8H326c-31.7,0-57.4-25.7-57.5-57.5V35.4h126.4V161.8z M278.7,45.5v58.8
											c0,26.1,21.2,47.3,47.3,47.3h58.8V45.5H278.7z"/>
										<path class="st3" d="M86.4,161.8H17.5V35.4h126.4v68.9C143.8,136,118.1,161.7,86.4,161.8z M27.6,151.6h58.8
											c26.1,0,47.3-21.2,47.3-47.3V45.5H27.6V151.6z"/>
									</g>
								</g>
							</g>
						</g>
					</g>
				</g>
			</g>
		</g>
	</g>
</g>
</svg>
