<?xml version="1.0" encoding="utf-8"?>
<!-- Generator: Adobe Illustrator 26.0.1, SVG Export Plug-In . SVG Version: 6.00 Build 0)  -->
<svg version="1.1" xmlns="http://www.w3.org/2000/svg" xmlns:xlink="http://www.w3.org/1999/xlink" x="0px" y="0px"
	 viewBox="0 0 414 576" style="enable-background:new 0 0 414 576;" xml:space="preserve">
<style type="text/css">
	.st0{filter:url(#blur);}
	.st1{fill:#26A7BD;}
	.st2{fill:#FFFFFF;}
	.st3{fill:#FFFEFF;}
</style>
<filter  id="blur">
	<feGaussianBlur  stdDeviation="10"></feGaussianBlur>
</filter>
<g id="Layer_2">
	<g class="st0">
		<g id="Layer_1_00000143593185108051171280000010919497829481894295_">
			<g id="Wayfinding_Signage_00000101103838415579396080000008182234718038235317_">
				<path d="M376.2,205.5c0,27.9-7,55.4-20.4,79.9L209.7,536.2c-1.4,2.5-3.8,2.5-5.3,0l-146-250.5c-13.5-24.6-20.6-52.2-20.6-80.2
					c0-6.7,0.4-13.4,1.2-20c10.1-84.2,82.4-147.6,168-147.6s157.9,63.4,168,147.5C375.8,192.1,376.2,198.8,376.2,205.5z"/>
			</g>
		</g>
	</g>
</g>
<g id="Layer_1">
	<g id="Layer_1_00000142873368567640939110000007853338336665187202_">
		<g>
			<g id="Layer_1_00000121243497866083684840000000310691976300415632_">
				<g id="Bicycle_Repair_Station">
					<path class="st1" d="M376.2,205.6c0,27.9-7,55.4-20.4,79.9L209.7,536.2c-1.5,2.5-3.8,2.5-5.3,0l-146-250.5
						c-13.5-24.6-20.6-52.1-20.6-80.2c0-6.7,0.4-13.4,1.2-20c10.1-84.2,82.3-147.6,168-147.6s157.9,63.4,168,147.6
						C375.8,192.1,376.2,198.9,376.2,205.6z"/>
					<path class="st2" d="M270.7,218.4c-22.5,0-40.7-18.2-40.7-40.6c0-22.5,18.2-40.7,40.6-40.7s40.7,18.2,40.7,40.6l0,0
						C311.3,200.2,293.2,218.4,270.7,218.4z M270.7,144.2c-18.5,0-33.5,15-33.5,33.5s15,33.5,33.5,33.5s33.5-15,33.5-33.5l0,0
						C304.2,159.2,289.2,144.2,270.7,144.2z"/>
					<path class="st2" d="M143.3,218.4c-22.5,0-40.7-18.2-40.7-40.6c0-22.4,18.2-40.7,40.6-40.7c22.5,0,40.7,18.2,40.7,40.6l0,0
						C183.9,200.2,165.7,218.4,143.3,218.4z M143.3,144.2c-18.5,0-33.5,14.9-33.5,33.4s14.9,33.5,33.4,33.5s33.5-14.9,33.5-33.4
						c0,0,0,0,0-0.1C176.7,159.2,161.8,144.2,143.3,144.2z"/>
					<path class="st2" d="M196.4,181.3h-53.1c-2,0-3.6-1.6-3.6-3.6c0-0.7,0.2-1.4,0.6-2l36-54c0.7-1,1.8-1.6,3-1.6h67.2
						c2,0.1,3.5,1.8,3.4,3.8c-0.1,1.8-1.6,3.3-3.4,3.4h-65.3L150,174.2h46.4c2,0.1,3.5,1.8,3.4,3.8
						C199.7,179.8,198.2,181.3,196.4,181.3L196.4,181.3z"/>
					<path class="st2" d="M215.6,172.4c-2,0-3.6-1.6-3.6-3.6c0-0.8,0.3-1.6,0.8-2.3l32.7-39.7c1.3-1.5,3.5-1.8,5.1-0.5
						s1.8,3.5,0.5,5.1l0,0l-32.7,39.7C217.7,171.9,216.7,172.4,215.6,172.4z"/>
					<path class="st2" d="M202.6,170.8c-1.3,0-2.5-0.7-3.2-1.9l-28.3-52.8c-0.9-1.7-0.3-3.9,1.5-4.9c1.7-0.9,3.9-0.3,4.9,1.5
						l28.3,52.8c0.9,1.7,0.3,3.9-1.5,4.9C203.8,170.7,203.2,170.9,202.6,170.8L202.6,170.8z"/>
					<path class="st2" d="M270.7,181.3c-1.4,0-2.7-0.8-3.3-2.1l-31.3-69.9c-1.5-3.4-2.3-5-3.1-5.5c-1.2-0.6-4.4-0.6-9.2-0.6
						c-2,0.1-3.7-1.4-3.8-3.4s1.4-3.7,3.4-3.8c0.1,0,0.3,0,0.4,0c12.6,0,14.4,0.4,18.9,10.3l31.3,69.9c0.8,1.8,0,3.9-1.8,4.7
						C271.7,181.2,271.2,181.3,270.7,181.3z"/>
					<path class="st2" d="M160.5,102.9c0.6-0.1,1.2-0.1,1.8-0.2c4.1,0,7.7,2,13.3,2.6c3.4,0.3,6.2,0.2,8.5,0.4c1,0.1,2,0.3,2.9,0.7
						c0.8,0.4,1.4,1.3,1.6,2.2c0,0.2,0.1,0.4,0.1,0.6c0,0.9-0.4,1.8-1.1,2.4c-2,1.7-5.8,2.2-10.7,3.1c-3.2,0.5-5.4,1.7-8.5,1.7l0,0
						c-2.2,0-4.7-0.7-8.1-2.5c-3.2-1.8-4.9-4-4.9-6.2C155.3,105.3,157.4,103.4,160.5,102.9"/>
					<path class="st2" d="M204.7,201.8c-0.2,0-0.4,0-0.6,0c-2-0.3-3.3-2.1-3-4.1l0,0l3.3-21c0.4-2,2.3-3.2,4.2-2.8
						c1.8,0.4,3.1,2.1,2.9,3.9l-3.3,21C208,200.6,206.5,201.8,204.7,201.8z"/>
					<path class="st3" d="M207.1,203.9h-12.5c-2,0.1-3.7-1.4-3.8-3.4s1.4-3.7,3.4-3.8c0.1,0,0.3,0,0.4,0h12.5c2,0.1,3.5,1.8,3.4,3.8
						C210.4,202.3,208.9,203.8,207.1,203.9z"/>
					<path class="st2" d="M209.6,170.6c-0.2,0-0.4,0-0.6,0c-2-0.3-3.3-2.1-3-4.1l1.7-10.8c0.3-2,2.1-3.3,4.1-3c2,0.3,3.3,2.1,3,4.1
						l0,0l-1.7,10.8C212.9,169.3,211.4,170.6,209.6,170.6z"/>
					<path class="st2" d="M220.8,157h-12.6c-2,0.1-3.7-1.4-3.8-3.4s1.4-3.7,3.4-3.8c0.1,0,0.3,0,0.4,0h12.6c2-0.1,3.7,1.4,3.8,3.4
						s-1.4,3.7-3.4,3.8C221,157,220.9,157,220.8,157z"/>
					<path class="st2" d="M208.2,192.1c-7.9,0-14.4-6.4-14.4-14.4c0-7.9,6.4-14.4,14.4-14.4c7.9,0,14.4,6.4,14.4,14.4l0,0
						C222.6,185.6,216.2,192.1,208.2,192.1z M208.2,170.5c-4,0-7.2,3.2-7.2,7.2s3.2,7.2,7.2,7.2s7.2-3.2,7.2-7.2l0,0
						C215.4,173.8,212.2,170.6,208.2,170.5L208.2,170.5z"/>
					<path class="st2" d="M120.1,289.4l111.7,0.5l0.1-30.1l-111.7-0.5c-3.1,0-5.6,2.5-5.6,5.5l0,0l-0.1,18.9
						C114.5,286.8,117,289.3,120.1,289.4L120.1,289.4z"/>
					<path class="st2" d="M296.8,288.2c1.3,0,2.4,1.1,2.3,2.4c0,0.4-0.1,0.8-0.3,1.1c-6.5,12.2-19.2,22-33.7,21.9
						c-21.1-0.1-38.2-17.2-38.1-38.3c0.1-20.2,15.8-36.8,35.9-38c15.7-0.9,29.5,9.4,36.2,22.6c0.6,1.2,0.2,2.6-1,3.2
						c-0.3,0.2-0.7,0.3-1.1,0.3l-27.1-0.1l-10,12.2l9.9,12.3L296.8,288.2z"/>
				</g>
			</g>
		</g>
	</g>
</g>
</svg>
