<?xml version="1.0" encoding="utf-8"?>
<!-- Generator: Adobe Illustrator 26.0.1, SVG Export Plug-In . SVG Version: 6.00 Build 0)  -->
<svg version="1.1" xmlns="http://www.w3.org/2000/svg" xmlns:xlink="http://www.w3.org/1999/xlink" x="0px" y="0px"
	 viewBox="0 0 414 576" style="enable-background:new 0 0 414 576;" xml:space="preserve">
<style type="text/css">
	.st0{filter:url(#blur);}
	.st1{fill:#26A7BD;}
	.st2{fill:#FFFFFF;}
	.st3{clip-path:url(#SVGID_00000103952850449236999750000008094662268709209513_);}
</style>
<filter  id="blur">
	<feGaussianBlur  stdDeviation="10"></feGaussianBlur>
</filter>
<g id="Layer_2">
	<g class="st0">
		<g id="Layer_1_00000140004441658960891390000017653352545442102948_">
			<g id="Wayfinding_Signage_00000085971279804827864520000010261151315498016131_">
				<path d="M376.2,205.5c0,27.9-7,55.4-20.4,79.9L209.7,536.2c-1.4,2.5-3.8,2.5-5.3,0l-146-250.5c-13.5-24.6-20.6-52.2-20.6-80.2
					c0-6.7,0.4-13.4,1.2-20c10.1-84.2,82.4-147.6,168-147.6s157.9,63.4,168,147.5C375.8,192.1,376.2,198.8,376.2,205.5z"/>
			</g>
		</g>
	</g>
</g>
<g id="Layer_1">
	<g>
		<g id="Layer_1_00000078744220543440552810000007424879490565861764_">
			<g id="Curb_Extension">
				<path class="st1" d="M376.2,205.5c0,27.9-7,55.4-20.4,79.9L209.7,536.2c-1.5,2.5-3.8,2.5-5.3,0l-146-250.5
					c-13.5-24.6-20.6-52.2-20.6-80.2c0-6.7,0.4-13.4,1.2-20c10.1-84.2,82.3-147.6,168-147.6s157.9,63.4,168,147.5
					C375.8,192.1,376.2,198.8,376.2,205.5z"/>
				<rect x="206.6" y="180.7" class="st2" width="57.5" height="46"/>
				<polygon class="st2" points="207.1,138.3 207.1,172 262.2,172 				"/>
				<polygon class="st2" points="207.6,269.6 207.6,235.9 262.8,235.9 				"/>
				<path class="st2" d="M168.3,263.6h-20v-120h20V263.6z M128.3,263.6h-20v-120h20V263.6z M88.3,263.6h-20v-120h20V263.6z"/>
				<g>
					<defs>
						<circle id="SVGID_1_" cx="207" cy="207.1" r="168.8"/>
					</defs>
					<clipPath id="SVGID_00000049911003032180468600000004425329415930960018_">
						<use xlink:href="#SVGID_1_"  style="overflow:visible;"/>
					</clipPath>
					<g style="clip-path:url(#SVGID_00000049911003032180468600000004425329415930960018_);">
						<path class="st2" d="M263.6,401.5h-10.5v-70.9c-0.1-15.5-12.6-28-28.1-28c-21.3,0-38.5-17.3-38.6-38.6V132.6
							c0-21.3,17.3-38.5,38.6-38.6c15.5,0,28.1-12.6,28.1-28.1v-43h10.5v43c0,21.3-17.3,38.6-38.6,38.6c-15.5,0-28.1,12.6-28.1,28.1
							v0V264c0,15.5,12.6,28.1,28.1,28.1c21.3,0,38.5,17.3,38.6,38.5V401.5z"/>
					</g>
				</g>
			</g>
		</g>
	</g>
</g>
</svg>
