<?xml version="1.0" encoding="utf-8"?>
<!-- Generator: Adobe Illustrator 26.0.1, SVG Export Plug-In . SVG Version: 6.00 Build 0)  -->
<svg version="1.1" xmlns="http://www.w3.org/2000/svg" xmlns:xlink="http://www.w3.org/1999/xlink" x="0px" y="0px"
	 viewBox="0 0 414 576" style="enable-background:new 0 0 414 576;" xml:space="preserve">
<style type="text/css">
	.st0{filter:url(#blur);}
	.st1{fill:#26A7BD;}
	.st2{fill:#FFFFFF;}
	.st3{fill:#FFFFFF;stroke:#FFFFFF;stroke-width:0.25;stroke-miterlimit:10;}
</style>
<filter  id="blur">
	<feGaussianBlur  stdDeviation="10"></feGaussianBlur>
</filter>
<g id="Layer_2">
	<g class="st0">
		<g id="Layer_1_00000079473446049637129730000017763574677385280145_">
			<g id="Wayfinding_Signage_00000178195306882279380690000012471734383930083738_">
				<path d="M376.2,205.5c0,27.9-7,55.4-20.4,79.9L209.7,536.2c-1.4,2.5-3.8,2.5-5.3,0l-146-250.5c-13.5-24.6-20.6-52.2-20.6-80.2
					c0-6.7,0.4-13.4,1.2-20c10.1-84.2,82.4-147.6,168-147.6s157.9,63.4,168,147.5C375.8,192.1,376.2,198.8,376.2,205.5z"/>
			</g>
		</g>
	</g>
</g>
<g id="Layer_1">
	<g>
		<g id="Layer_1_00000088819040151821907610000006528191037408073893_">
			<g id="Landscape_Shade">
				<path class="st1" d="M376.2,205.5c0,27.9-7,55.4-20.4,79.9L209.7,536.2c-1.4,2.5-3.8,2.5-5.3,0l-146-250.5
					c-13.5-24.6-20.6-52.2-20.6-80.2c0-6.7,0.4-13.4,1.2-20c10.1-84.2,82.3-147.6,168-147.6s157.9,63.4,168,147.5
					C375.8,192.1,376.2,198.8,376.2,205.5z"/>
				<path class="st2" d="M200.6,309.7c0,0-3.4-18,14.2-19.4c0,0,2.9-21.2,21.1-14.7c2.3-5.8,7.8-9.6,14-9.6c0,0,7.8-1.4,12.5,8.5
					c0,0,6.9-3.3,11.3,1.3c4.4,3.5,6.6,9.1,5.6,14.7c0,0,10.5-0.4,12.9,7.1c1.6,4,1.2,8.5-1.1,12.2H200.6z"/>
				<path class="st3" d="M171.3,214.8c-6.5,0-15.1-2.6-23.6-13.1c-12.5,2.4-23.1-0.7-28.8-8.7c-3.7-5-4.6-11.6-2.4-17.4
					c-10.2-6.5-12.9-18-10-26.4c0.8-2.7,2.4-5,4.6-6.8c-1.6-1.9-2.7-4.2-3.2-6.7c-1.6-7.4,1.4-15.9,7.1-20.3c3.7-2.9,8.5-4,13.1-3
					c-0.3-6.3,2.7-12.2,8.4-16.1c6-4.1,14.9-5.6,22.3-1.8c4-7.5,12.9-11.1,20.4-10.7c6.9,0.4,14.5,4.2,17.2,13.4
					c6.5-1.8,14.7-0.1,20.9,4.6c6.8,5,10.1,13.5,8.5,21.8c6.1,1.5,10,7.2,10.9,13.3c0.8,5.6-1,11.6-5.6,15.1
					c2.7,4.6,3.3,12.7-0.5,18.2c-2,2.9-5.1,4.9-8.6,5.4c1.5,7-0.3,14.2-4.9,19.7c-5.2,6-13.2,8.2-22.2,6.1
					c-4.1,6.3-12,12.3-21.2,13.3C172.9,214.8,172.1,214.8,171.3,214.8z"/>
				<path class="st3" d="M149.1,194.2c1.1,0,2.2,0.5,2.9,1.4c6.5,8.7,13.6,12.7,21,11.9c8.3-0.9,14.9-7.4,16.9-11.8
					c0.8-1.7,2.7-2.5,4.4-1.9c7.4,2.4,13.5,1.3,17.4-3.1c3.9-4.8,4.7-11.5,2-17.1c-0.9-1.8-0.2-4,1.6-4.8c0.7-0.4,1.5-0.5,2.3-0.3
					c4.3,0.8,6.9-0.6,8-4.2c1.3-4.2-0.3-8.7-1.4-9.3c-2,0.2-3.7-1.3-3.9-3.3c-0.2-1.8,1.1-3.5,2.9-3.9l0,0c5.6-0.9,6.9-5.8,6.4-9.8
					s-3.2-8-7.8-7.4c-2,0.3-3.8-1.1-4-3.1c-0.1-0.5,0-1.1,0.1-1.6c3.3-10.1-1.7-15.8-5-18.3c-5.3-4-13-5-17.2-2.3
					c-1.1,0.7-2.4,0.8-3.5,0.2c-1.1-0.6-1.9-1.6-2-2.9c-1-10-8.3-11.4-11.4-11.6c-6.2-0.3-13.3,3.3-14.7,9.9c-0.4,2-2.3,3.2-4.3,2.8
					c-0.6-0.1-1.2-0.4-1.7-0.9c-5.1-4.8-12.6-3.9-17.5-0.6c-2.4,1.6-7.5,6.2-4.3,14.3c0.7,1.9-0.2,4-2,4.7c-1,0.4-2,0.3-3-0.1
					c-4.7-2.4-8.8-2.4-12,0c-3.6,2.8-5.5,8.4-4.5,13c0.5,3,2.7,5.4,5.7,6c1.9,0.7,2.9,2.7,2.2,4.6c-0.6,1.6-2.1,2.6-3.8,2.4l0,0
					c-3.6-0.8-5.2,2.8-5.7,4.4c-1.7,5-0.6,14.6,9.5,19.3c1.8,0.8,2.6,3,1.8,4.8c-0.1,0.2-0.2,0.3-0.3,0.5c-2.5,4-2.3,9,0.5,12.8
					c4.3,6,13,8,23.5,5.4C148.5,194.2,148.8,194.2,149.1,194.2z"/>
				<path class="st3" d="M173,221.6c-0.8,0.1-1.7,0.1-2.7,0.1c-3,0-5.9-0.5-8.8-1.5v94.4h19v-94.8
					C178.1,220.7,175.6,221.3,173,221.6z"/>
				<path class="st2" d="M323.2,319.3H96.8c-2.9,0.1-5.4-2.2-5.6-5.1s2.2-5.4,5.1-5.6c0.2,0,0.3,0,0.5,0h226.5
					c2.9,0.1,5.2,2.6,5.1,5.6C328.2,317,326,319.2,323.2,319.3z"/>
			</g>
		</g>
	</g>
</g>
</svg>
