<?xml version="1.0" encoding="utf-8"?>
<!-- Generator: Adobe Illustrator 26.0.1, SVG Export Plug-In . SVG Version: 6.00 Build 0)  -->
<svg version="1.1" xmlns="http://www.w3.org/2000/svg" xmlns:xlink="http://www.w3.org/1999/xlink" x="0px" y="0px"
	 viewBox="0 0 414 576" style="enable-background:new 0 0 414 576;" xml:space="preserve">
<style type="text/css">
	.st0{filter:url(#blur);}
	.st1{fill:#26A7BD;}
	.st2{fill:#FFFFFF;}
</style>
<filter  id="blur">
	<feGaussianBlur  stdDeviation="10"></feGaussianBlur>
</filter>
<g id="Layer_2">
	<g class="st0">
		<g id="Layer_1_00000178923068861285820600000005475416000771217803_">
			<g id="Wayfinding_Signage_00000110461397665961761930000015098873321481715861_">
				<path d="M376.2,205.5c0,27.9-7,55.4-20.4,79.9L209.7,536.2c-1.4,2.5-3.8,2.5-5.3,0l-146-250.5c-13.5-24.6-20.6-52.2-20.6-80.2
					c0-6.7,0.4-13.4,1.2-20c10.1-84.2,82.4-147.6,168-147.6s157.9,63.4,168,147.5C375.8,192.1,376.2,198.8,376.2,205.5z"/>
			</g>
		</g>
	</g>
</g>
<g id="Layer_1">
	<g>
		<g id="Layer_1_00000147911995905630872850000009058221212448581535_">
			<g id="Overpass_Improvements">
				<path class="st1" d="M376.2,205.5c0,27.9-7,55.4-20.4,79.9L209.7,536.2c-1.4,2.5-3.8,2.5-5.3,0l-146-250.5
					c-13.5-24.6-20.6-52.2-20.6-80.2c0-6.7,0.4-13.4,1.2-20c10.1-84.2,82.3-147.6,168-147.6s157.9,63.4,168,147.6
					C375.8,192.1,376.2,198.8,376.2,205.5z"/>
				<path class="st2" d="M125.3,216.3h163.3c10.6,0,19.9-7.2,22.5-17.6l0.7-2.7v-20.2H102.7l-0.5,20.2l0.5,2.1
					C105.1,208.8,114.5,216.3,125.3,216.3z"/>
				<path class="st2" d="M210.3,129.5c0-0.4-0.2-0.7-0.5-1c-0.7-0.7-2.9-1-6.6-1l-2-3.7l0,0l-2.7-5c0-0.1-0.1-0.1-0.1-0.2
					c-3.5-5.3-7.3-8.7-30.9-8.7s-27.4,3.3-30.9,8.7c0,0.1-0.1,0.1-0.1,0.2l-2.7,5l0,0l-2,3.7c-3.7,0-6,0.3-6.7,1
					c-0.3,0.3-0.5,0.6-0.5,1c-0.2,2.3,1.3,4.4,3.6,4.9l-1.3,2.5c-0.5,0.9-0.7,2-0.8,3v29.2c0,2.1,1.6,3.8,3.7,3.8h2.6
					c2.1,0,3.7-1.7,3.7-3.8c0,0,0,0,0,0v-3.8h62.9v3.8c0,2.1,1.6,3.8,3.7,3.8h2.5c2.1,0,3.7-1.7,3.7-3.8v-29.2c0-1-0.3-2.1-0.8-3
					l-1.4-2.6C209,133.9,210.5,131.8,210.3,129.5z M138.3,126L138.3,126l2.5-4.7c1.1-2,3-3.5,5.2-4.2c4-1.4,11-2.2,21.4-2.2
					s17.4,0.8,21.4,2.2c2.2,0.6,4.1,2.1,5.2,4.2l2.5,4.7l0,0l3.6,6.6h-65.3L138.3,126z M138.6,150.3c-2.8,0-5-2.2-5-5s2.2-5,5-5
					s5,2.2,5,5C143.6,148.1,141.4,150.3,138.6,150.3L138.6,150.3z M196.2,150.3c-2.8,0-5-2.2-5-5c0-2.8,2.2-5,5-5c2.7,0,5,2.2,5,4.9
					C201.3,148,199,150.3,196.2,150.3C196.3,150.3,196.3,150.3,196.2,150.3L196.2,150.3z"/>
				<path class="st2" d="M190.9,336.7L181.1,222h58.5l-9.8,114.7c-0.2,2.2-2,3.9-4.2,3.9h-30.4C192.9,340.6,191.1,338.9,190.9,336.7
					z"/>
				<path class="st2" d="M252.8,148.1l1.4-6.8l0,0l2.6-13.2l0,0V128l0,0l0.2-1.1c1.4,1.4,3.1,2.3,5,2.8c0.9,0.2,1.8,0.3,2.7,0.3
					c1.1,0,2.1-0.2,3.1-0.5l-0.3,1.2l7.9,13.8c0.4,0.6,0.7,1.3,0.8,2l0,0l3.6,15.1c0,0,0,0,0,0.1c0,0.1,0,0.2,0,0.2l0,0
					c0.2,1.4-0.7,2.7-2.1,2.9c-1.2,0.2-2.3-0.5-2.7-1.6l0,0c0-0.1-0.1-0.2-0.1-0.3c0-0.1,0-0.1,0-0.2l-4.2-14.8l0,0l-7.5-11.5l0,0
					c-0.1-0.2-0.2-0.3-0.4-0.3c-0.2,0-0.3,0.1-0.4,0.2l-4,13l0,0v0.1l-4.8,13.6l0,0c-0.5,1.3-1.9,2-3.3,1.5c-1.3-0.5-2-1.8-1.6-3.1
					L252.8,148.1z"/>
				<path class="st2" d="M262.3,127.9c-2-0.6-3.6-1.8-4.7-3.5l2.2-7.4c0.1-0.4-0.2-0.9-0.6-1c-0.2,0-0.4,0-0.5,0.1
					c0,0-3,1.1-3.7,1.2c-0.1,0.3-1.6,12.2-1.6,12.2c-0.2,1.4-1.6,2.3-2.9,2c-0.1,0-0.1,0-0.2,0c-1.4-0.4-2.2-1.8-1.9-3.2l1.7-12.2
					c0.2-1.4,1-2.6,2.2-3.2c1.1-0.7,11.3-5.7,13.8-5.2c0.7,0.9,1.6,1.6,2.7,2c0.5,0.2,1,0.3,1.5,0.3c0.4,0,0.8,0,1.2,0h0.3
					c0.7,0.1,1.9,1.6,2.3,2.6l1,2.7l0,0l2.2,6.2l8.9,4.7c0,0,0.1,0,0.1,0l0.1,0.1l0,0l0,0c1.2,0.8,1.5,2.4,0.7,3.5
					c-0.7,1.1-2.1,1.4-3.2,0.9c0,0-0.1,0-0.1-0.1l0,0l-9.4-4.4l0,0h0H274l0,0c-1-0.6-1.8-1.6-2.2-2.7l0,0l0,0
					c-0.1-0.3-0.2-0.6-0.3-0.9l-0.6-1.7c0,0-0.1-0.1-0.1-0.1c-0.1,0-0.1,0-0.1,0.1l-2.3,6.8C266.4,128.6,264.3,128.6,262.3,127.9z"
					/>
				<path class="st2" d="M275.6,104.6c-0.5,2.1-2.4,3.6-4.6,3.7c-0.4,0-0.8-0.1-1.1-0.2c-2.5-0.8-3.9-3.5-3.1-6l0.7-2.4
					c0.5-2.1,2.4-3.6,4.6-3.7c0.4,0,0.8,0.1,1.1,0.2c2.5,0.8,3.9,3.5,3.1,6c0,0,0,0,0,0L275.6,104.6z"/>
				<rect x="233" y="167.8" class="st2" width="76" height="15.8"/>
				<path class="st2" d="M308.8,124.8L308.8,124.8c1.7,0,3,1.3,3,2.8c0,0,0,0,0,0v48.2h-5.8v-48.2
					C305.9,126.1,307.2,124.8,308.8,124.8C308.8,124.8,308.8,124.8,308.8,124.8z"/>
				<path class="st2" d="M105.6,124.8L105.6,124.8c1.7,0,3,1.3,3,2.9c0,0,0,0,0,0v48.2h-5.8v-48.2
					C102.8,126.1,104.1,124.8,105.6,124.8z"/>
			</g>
		</g>
	</g>
</g>
</svg>
