<?xml version="1.0" encoding="utf-8"?>
<!-- Generator: Adobe Illustrator 26.0.1, SVG Export Plug-In . SVG Version: 6.00 Build 0)  -->
<svg version="1.1" xmlns="http://www.w3.org/2000/svg" xmlns:xlink="http://www.w3.org/1999/xlink" x="0px" y="0px"
	 viewBox="0 0 414 576" style="enable-background:new 0 0 414 576;" xml:space="preserve">
<style type="text/css">
	.st0{filter:url(#blur);}
	.st1{fill:#26A7BD;}
	.st2{fill:#FFFFFF;}
</style>
<filter  id="blur">
	<feGaussianBlur  stdDeviation="10"></feGaussianBlur>
</filter>
<g id="Layer_2">
	<g class="st0">
		<g id="Layer_1_00000021086931878163920560000004756205886400582335_">
			<g id="Wayfinding_Signage_00000111163756303887118770000002595739837062457748_">
				<path d="M376.2,205.5c0,27.9-7,55.4-20.4,79.9L209.7,536.2c-1.4,2.5-3.8,2.5-5.3,0l-146-250.5c-13.5-24.6-20.6-52.2-20.6-80.2
					c0-6.7,0.4-13.4,1.2-20c10.1-84.2,82.4-147.6,168-147.6s157.9,63.4,168,147.5C375.8,192.1,376.2,198.8,376.2,205.5z"/>
			</g>
		</g>
	</g>
</g>
<g id="Layer_1">
	<g>
		<g id="Layer_1_00000115478882247314989400000008361282328710003091_">
			<g id="Traffic_Calming">
				<path class="st1" d="M376.2,205.5c0,27.9-7,55.4-20.4,79.9L209.7,536.2c-1.4,2.5-3.8,2.5-5.3,0l-146-250.5
					c-13.5-24.6-20.6-52.2-20.6-80.2c0-6.7,0.4-13.4,1.2-20c10.1-84.2,82.3-147.6,168-147.6s157.9,63.4,168,147.6
					C375.8,192.1,376.2,198.8,376.2,205.5z"/>
				<path class="st2" d="M118.8,234.9c-1.1-8.8-9.1-15-17.9-13.9c-8.2,1-14.3,8.2-14,16.5v0.1c0,0.1,0,0.3,0,0.4
					c0.1,0.9,0.3,1.9,0.5,2.8c2.3,8.5,11.1,13.6,19.6,11.2c6.4-1.7,11.1-7.3,11.7-13.9c0.1-0.9,0.1-1.9,0-2.8c0-0.1,0-0.3,0-0.4
					V234.9z"/>
				<path class="st2" d="M272.1,222.2v-0.2c-1.1-8.8-9.1-15-17.9-13.9c-8.2,1-14.3,8.2-14,16.5v0.2c0,0.1,0,0.2,0,0.4
					c0.1,1,0.3,1.9,0.5,2.8c2.3,8.5,11.1,13.5,19.7,11.2c6.4-1.8,11-7.3,11.7-13.8c0.1-1,0.1-1.9,0-2.9
					C272.1,222.4,272.1,222.3,272.1,222.2z"/>
				<path class="st2" d="M307.8,211.9l-3.1-2.3c-1.5-6.7-4.9-15.6-12.5-22c-12.2-10.3-45.9-15.5-52.4-16.4l-0.4-0.3
					c-17.7-15-37.8-32-99.2-26.8c-46.9,4-85.4,38.6-83.8,57.4l2.3,26.7l-4.2,4.3c-0.7,0.7-1.1,1.7-1,2.7l0.3,4.9
					c0.1,0.9,0.5,1.8,1.2,2.4c0.7,0.6,1.6,0.9,2.6,0.8l22.7-1.9c-0.2-0.9-0.3-1.8-0.4-2.8c0-0.2,0-0.5,0-0.7v-0.1
					c-0.2-12.7,10-23.1,22.7-23.3c11.4-0.1,21.2,8.1,23,19.4v0.1c0,0.2,0,0.4,0.1,0.7c0.1,0.9,0.1,1.9,0.1,2.8l107.9-9
					c-0.2-0.9-0.3-1.9-0.4-2.9c0-0.2,0-0.4,0-0.6v-0.1c0-12.7,10.4-23,23.1-22.9c11.1,0,20.6,8,22.6,19v0.1l0.1,0.6
					c0.1,1,0.1,1.9,0,2.9l27.3-2.4c1.9-0.2,3.3-1.8,3.2-3.7c0,0,0-0.1,0-0.1l-0.4-4.2C309.1,213.4,308.6,212.5,307.8,211.9z
					 M140.4,179.3c0.2,1.9-1.3,3.6-3.2,3.8c0,0,0,0,0,0l-41.8,3.5c-1.9,0.2-3.6-1.3-3.8-3.2c0-0.6,0.1-1.2,0.3-1.7
					c0.4-1,11.3-24.4,42.9-27.1c1.9-0.2,3.6,1.2,3.8,3.1c0,0,0,0,0,0L140.4,179.3z M221.4,174.1c-0.5,1.2-1.6,2-2.9,2.1l-64.9,5.5
					c-1.9,0.2-3.6-1.3-3.8-3.2L148,157c-0.2-1.9,1.3-3.6,3.2-3.8c51.3-4.3,69,16.4,69.7,17.3C221.7,171.5,221.9,172.9,221.4,174.1
					L221.4,174.1z M282.8,197.8c-3.9,0.3-8.5-2.5-10.3-6.2s-0.1-7.1,3.7-7.4s8.5,2.5,10.3,6.2S286.7,197.5,282.8,197.8L282.8,197.8z
					"/>
				<path class="st2" d="M355,256.2H251.3l24.3-15.1c7.7-4.8,16.6-7.4,25.6-7.4h3.7c9.1,0,17.9,2.6,25.6,7.4L355,256.2z"/>
			</g>
		</g>
	</g>
</g>
</svg>
