<?xml version="1.0" encoding="utf-8"?>
<!-- Generator: Adobe Illustrator 26.0.1, SVG Export Plug-In . SVG Version: 6.00 Build 0)  -->
<svg version="1.1" xmlns="http://www.w3.org/2000/svg" xmlns:xlink="http://www.w3.org/1999/xlink" x="0px" y="0px"
	 viewBox="0 0 414 576" style="enable-background:new 0 0 414 576;" xml:space="preserve">
<style type="text/css">
	.st0{filter:url(#blur);}
	.st1{fill:#26A7BD;}
	.st2{fill:#FFFFFF;}
</style>
<filter  id="blur">
	<feGaussianBlur  stdDeviation="10"></feGaussianBlur>
</filter>
<g id="Layer_2">
	<g class="st0">
		<g id="Layer_1_00000162348978319895209760000010928260629979868598_">
			<g id="Wayfinding_Signage_00000162342776353866793860000017416017579959463852_">
				<path d="M376.2,205.5c0,27.9-7,55.4-20.4,79.9L209.7,536.2c-1.4,2.5-3.8,2.5-5.3,0l-146-250.5c-13.5-24.6-20.6-52.2-20.6-80.2
					c0-6.7,0.4-13.4,1.2-20c10.1-84.2,82.4-147.6,168-147.6s157.9,63.4,168,147.5C375.8,192.1,376.2,198.8,376.2,205.5z"/>
				<circle cx="166.1" cy="140.2" r="33"/>
				
					<ellipse transform="matrix(7.088903e-02 -0.9975 0.9975 7.088903e-02 -58.4455 363.1885)" cx="165.7" cy="213" rx="33" ry="33"/>
				<rect x="214.4" y="131.6" width="63" height="15.9"/>
				<rect x="214.4" y="205.3" width="63" height="15.9"/>
			</g>
		</g>
	</g>
</g>
<g id="Layer_1">
	<g>
		<g id="Layer_1_00000084518640950662291100000003696161639821568681_">
			<g id="Wayfinding_Signage">
				<path class="st1" d="M376.2,205.5c0,27.9-7,55.4-20.4,79.9L209.7,536.2c-1.4,2.5-3.8,2.5-5.3,0l-146-250.5
					c-13.5-24.6-20.6-52.2-20.6-80.2c0-6.7,0.4-13.4,1.2-20c10.1-84.2,82.4-147.6,168-147.6s157.9,63.4,168,147.5
					C375.8,192.1,376.2,198.8,376.2,205.5z"/>
				<path class="st2" d="M127.4,91.6h159.1c10.2,0,18.5,8.3,18.5,18.6v133.1c0,10.2-8.3,18.5-18.5,18.5H127.4
					c-10.2,0-18.6-8.3-18.6-18.5V110.2C108.9,99.9,117.2,91.6,127.4,91.6z"/>
				<circle class="st1" cx="166.1" cy="140.2" r="33"/>
				<polygon class="st2" points="162.6,121.4 172.8,121.4 157.7,136.4 187.6,136.4 187.6,144 157.7,144 172.8,159 162.6,159 
					143.8,140.2 				"/>
				
					<ellipse transform="matrix(7.088903e-02 -0.9975 0.9975 7.088903e-02 -58.4455 363.1885)" class="st1" cx="165.7" cy="213" rx="33" ry="33"/>
				<polygon class="st2" points="169.3,231.7 159,231.7 174.2,216.8 144.2,216.8 144.2,209.1 174.2,209.1 159,194.2 169.3,194.2 
					188,213 				"/>
				<rect x="214.4" y="131.6" class="st1" width="63" height="15.9"/>
				<rect x="214.4" y="205.3" class="st1" width="63" height="15.9"/>
				<rect x="198.8" y="273.9" class="st2" width="15.9" height="71.7"/>
			</g>
		</g>
	</g>
</g>
</svg>
